<?xml version="1.0" encoding="UTF-8"?>
<svg width="29px" height="25px" viewBox="0 0 29 25" version="1.1" xmlns="http://www.w3.org/2000/svg" xmlns:xlink="http://www.w3.org/1999/xlink">
    <title>24/7-Monitoring-Icon</title>
    <defs>
        <polygon id="path-1" points="0 0 28.9921095 0 28.9921095 25 0 25"></polygon>
    </defs>
    <g id="Page-1" stroke="none" stroke-width="1" fill="none" fill-rule="evenodd">
        <g id="Mobile-1" transform="translate(-153.000000, -2760.000000)">
            <g id="24/7-Monitoring-Icon" transform="translate(153.000000, 2760.000000)">
                <g id="Group-3">
                    <mask id="mask-2" fill="white">
                        <use xlink:href="#path-1"></use>
                    </mask>
                    <g id="Clip-2"></g>
                    <path d="M25.5115931,15.6003082 L22.9482479,14.0999396 L22.1747369,13.6473491 L13.4233037,8.52533795 L6.96182547,4.74341723 L8.79764,1.51994406 C9.18926533,0.834399175 10.0543972,0.599550395 10.7315307,0.995021734 L28.054553,11.1345647 L25.5115931,15.6003082 Z M22.6361254,16.4866599 C22.1169218,16.6289699 21.5664605,16.5996354 21.0648675,16.4028469 L22.1233205,14.5444933 L23.956417,15.6173004 C23.6187562,16.0423359 23.1560086,16.3468758 22.6356724,16.4866599 L22.6361254,16.4866599 Z M18.3468201,16.6976852 L5.92806143,9.42914123 C5.251664,9.03229214 5.01978058,8.15518275 5.40982039,7.46860455 L6.56499054,5.43941005 L17.9461346,12.100826 L21.435428,14.1431091 L20.2800313,16.1732221 L20.2784458,16.1757479 C20.2483208,16.2275857 20.2149681,16.2774717 20.1785576,16.3250041 L20.1785576,16.3266114 C19.7462181,16.8985495 18.9627976,17.0572202 18.3468201,16.6976852 L18.3468201,16.6976852 Z M12.9913607,16.6933223 C12.2470687,17.9735954 10.8916124,18.7606919 9.42573545,18.7638492 L5.88910275,18.7638492 L5.88910275,16.8120383 L9.42573545,16.8120383 C10.2089861,16.8103161 10.9331759,16.3897583 11.3308602,15.7057059 L12.2765142,14.0726143 L13.9440363,15.0485197 L12.9913607,16.6933223 Z M3.34093329,21.1402365 L5.09633892,21.1402365 L5.09633892,13.6774299 L3.34093329,13.6774299 L3.34093329,21.1402365 Z M2.54816946,23.2204077 C2.54765983,23.7591649 2.11696256,24.1957965 1.58552766,24.1963131 L0.792763832,24.1963131 L0.792763832,11.3793448 L1.58552766,11.3793448 C2.11696256,11.3798614 2.54765983,11.816493 2.54816946,12.3552503 L2.54816946,23.2204077 Z M28.7943149,10.639264 L11.1270066,0.299028917 C10.0708187,-0.317054465 8.7220443,0.049254523 8.11110652,1.11810064 L6.07710103,4.6894554 L4.72306041,7.06676112 C4.11495392,8.13790348 4.47668073,9.50589332 5.53167951,10.125134 L11.5890747,13.6703116 L10.6470448,15.2988108 C10.3921146,15.7373368 9.92783809,16.0069737 9.42573545,16.0081218 L5.88910275,16.0081218 L5.88910275,13.2755865 C5.88910275,13.0536541 5.7116369,12.8737431 5.49272083,12.8737431 L3.34093329,12.8737431 L3.34093329,12.3552503 C3.33980077,11.3728579 2.5545682,10.5768061 1.58552766,10.5756579 L0.396381916,10.5756579 C0.177579098,10.5755431 -5.42427963e-08,10.7552245 -5.42427963e-08,10.9770421 C-5.42427963e-08,10.9772143 -5.42427963e-08,10.9773291 -5.42427963e-08,10.9775014 L-5.42427963e-08,24.5981566 C-5.42427963e-08,24.8199741 0.17712609,24.999994 0.395928908,24.999994 L0.396381916,24.999994 L1.58552766,24.999994 C2.5545682,24.9988519 3.33980077,24.2028 3.34093329,23.2204077 L3.34093329,21.9439233 L5.49272083,21.9439233 C5.7116369,21.9439233 5.88910275,21.7640123 5.88910275,21.5420799 L5.88910275,19.5673065 L9.42573545,19.5673065 C11.1727038,19.5635177 12.78813,18.6256151 13.6754026,17.0999878 L14.6296637,15.4503632 L17.9499852,17.393678 C18.284305,17.5902942 18.663869,17.6940846 19.0503414,17.6944865 C19.2446251,17.6944291 19.4380595,17.6684815 19.6256614,17.6173325 C19.9861991,17.5200864 20.3163286,17.3312774 20.5849057,17.0687589 C21.019227,17.2730101 21.4921106,17.3790968 21.9708833,17.3796709 C22.2643192,17.3794412 22.5563961,17.3402328 22.8397525,17.2630214 C23.56247,17.0682996 24.1988328,16.6312662 24.6452155,16.0230474 L25.4570057,16.4981412 C25.6464196,16.6091648 25.8887222,16.5434921 25.9982369,16.3515257 C25.9983501,16.3512961 25.9984634,16.3511239 25.9985766,16.3509517 L28.9385979,11.1887562 C29.0484523,10.9966176 28.9838421,10.750632 28.7943149,10.639264 C28.7943149,10.639264 28.7943149,10.639264 28.7943149,10.639264 L28.7943149,10.639264 Z" id="Fill-1" fill="#FC5413" mask="url(#mask-2)"></path>
                </g>
                <path d="M23.9466773,11.7070194 C24.0435644,11.53681 24.2034195,11.4128126 24.3908516,11.3625822 C24.4529136,11.3457622 24.5168444,11.3371512 24.5811149,11.3370938 C24.9855377,11.3371512 25.3133455,11.6695906 25.3132889,12.0795857 C25.3132323,12.4895808 24.9853678,12.8219053 24.580945,12.8218479 C24.1764656,12.8217905 23.8486577,12.4893511 23.8487143,12.079356 C23.848771,11.949044 23.8825767,11.8210281 23.9469038,11.7081675 L23.9466773,11.7070194 Z M23.8177966,13.4161169 C24.0486041,13.5520548 24.3107824,13.6237551 24.5777173,13.6239274 C24.7116944,13.6238126 24.8451619,13.6059018 24.9745522,13.5706544 C25.7877581,13.3498701 26.270438,12.5024972 26.0526544,11.6780867 C25.8348143,10.8536762 24.9990147,10.3643457 24.1858089,10.58513 C23.3725464,10.8059716 22.8898665,11.6532872 23.1077067,12.4776977 C23.2122949,12.8735709 23.4677347,13.2111194 23.8177966,13.4161169 L23.8177966,13.4161169 Z" id="Fill-4" fill="#FC5413"></path>
                <path d="M10.3059298,9.34647629 L7.05786314,7.44495319 C6.86901547,7.33272406 6.62614661,7.3969042 6.5154428,7.58835389 C6.40468237,7.77980358 6.46804685,8.02601879 6.65689452,8.13824792 C6.65842342,8.13916642 6.65995232,8.14002751 6.66148123,8.14094601 L9.91045391,10.0422395 C10.1044545,10.145054 10.3439258,10.0689908 10.4453996,9.87231712 C10.5409843,9.68695249 10.4803379,9.45824617 10.3059298,9.34647629" id="Fill-6" fill="#FC5413"></path>
            </g>
        </g>
    </g>
</svg>