<?xml version="1.0" encoding="UTF-8"?>
<svg width="36px" height="36px" viewBox="0 0 36 36" version="1.1" xmlns="http://www.w3.org/2000/svg" xmlns:xlink="http://www.w3.org/1999/xlink">
    <title>Group 7</title>
    <g id="Page-1" stroke="none" stroke-width="1" fill="none" fill-rule="evenodd">
        <g id="Mobile-1" transform="translate(-262.000000, -4637.000000)" fill="#FC5413">
            <g id="Group-10" transform="translate(73.000000, 4637.000000)">
                <g id="Group-7" transform="translate(189.000000, 0.000000)">
                    <path d="M34.8,34.8 L2.4,34.8 L2.4,33.6 L33,33.6 C33.33135,33.6 33.6,33.33135 33.6,33 L33.6,4.8 L34.8,4.8 L34.8,34.8 Z M4.8,3.6 L4.8,4.2 C4.801125,5.1936 5.6064,5.998875 6.6,6 C6.93135,6 7.2,5.73135 7.2,5.4 C7.2,5.06865 6.93135,4.8 6.6,4.8 C6.2688,4.799625 6.000375,4.5312 6,4.2 L6,3.6 L9.6,3.6 L9.6,4.2 C9.601125,5.1936 10.4064,5.998875 11.4,6 C11.73135,6 12,5.73135 12,5.4 C12,5.06865 11.73135,4.8 11.4,4.8 C11.0688,4.799625 10.800375,4.5312 10.8,4.2 L10.8,3.6 L20.4,3.6 L20.4,4.2 C20.401125,5.1936 21.2064,5.998875 22.2,6 C22.53135,6 22.8,5.73135 22.8,5.4 C22.8,5.06865 22.53135,4.8 22.2,4.8 C21.8688,4.799625 21.600375,4.5312 21.6,4.2 L21.6,3.6 L25.2,3.6 L25.2,4.2 C25.201125,5.1936 26.0064,5.998875 27,6 C27.33135,6 27.6,5.73135 27.6,5.4 C27.6,5.06865 27.33135,4.8 27,4.8 C26.6688,4.799625 26.400375,4.5312 26.4,4.2 L26.4,3.6 L32.4,3.6 L32.4,9.6 L1.2,9.6 L1.2,3.6 L4.8,3.6 Z M6,1.8 C6,1.46865 6.26865,1.2 6.6,1.2 C6.93135,1.2 7.2,1.46865 7.2,1.8 L7.2,2.4 L6,2.4 L6,1.8 Z M10.8,1.8 C10.8,1.46865 11.06865,1.2 11.4,1.2 C11.73135,1.2 12,1.46865 12,1.8 L12,2.4 L10.8,2.4 L10.8,1.8 Z M21.6,1.8 C21.6,1.46865 21.86865,1.2 22.2,1.2 C22.53135,1.2 22.8,1.46865 22.8,1.8 L22.8,2.4 L21.6,2.4 L21.6,1.8 Z M26.4,1.8 C26.4,1.46865 26.66865,1.2 27,1.2 C27.33135,1.2 27.6,1.46865 27.6,1.8 L27.6,2.4 L26.4,2.4 L26.4,1.8 Z M1.2,32.4 L32.4,32.4 L32.4,10.8 L1.2,10.8 L1.2,32.4 Z M35.4,3.6 L33.6,3.6 L33.6,3 C33.6,2.66865 33.33135,2.4 33,2.4 L28.8,2.4 L28.8,1.8 C28.8,0.805875 27.994125,0 27,0 C26.005875,0 25.2,0.805875 25.2,1.8 L25.2,2.4 L24,2.4 L24,1.8 C24,0.805875 23.194125,0 22.2,0 C21.205875,0 20.4,0.805875 20.4,1.8 L20.4,2.4 L13.2,2.4 L13.2,1.8 C13.2,0.805875 12.394125,0 11.4,0 C10.405875,0 9.6,0.805875 9.6,1.8 L9.6,2.4 L8.4,2.4 L8.4,1.8 C8.4,0.805875 7.594125,0 6.6,0 C5.605875,0 4.8,0.805875 4.8,1.8 L4.8,2.4 L0.6,2.4 C0.26865,2.4 0,2.66865 0,3 L0,33 C0,33.33135 0.26865,33.6 0.6,33.6 L1.2,33.6 L1.2,35.4 C1.2,35.73135 1.46865,36 1.8,36 L35.4,36 C35.73135,36 36,35.73135 36,35.4 L36,4.2 C36,3.86865 35.73135,3.6 35.4,3.6 L35.4,3.6 Z" id="Fill-1"></path>
                    <path d="M23.4,28.2 C23.73135,28.2 24,27.93135 24,27.6 L24,15.6 C23.999775,15.26865 23.730975,15.00015 23.399625,15.0003749 C23.27445,15.0003749 23.1525,15.039675 23.050725,15.1125 L18.250725,18.54885 C17.98125,18.74175 17.919225,19.116525 18.112125,19.386 C18.305025,19.655475 18.6798,19.7175 18.949275,19.5246 L22.8,16.76745 L22.8,27.6 C22.8,27.93135 23.06865,28.2 23.4,28.2" id="Fill-3"></path>
                    <path d="M16.8000003,18.6 C16.8000003,16.61175 15.18825,15 13.2,15 C11.21175,15 9.59999974,16.61175 9.59999974,18.6 C9.59999974,18.93135 9.86865,19.2 10.2,19.2 C10.53135,19.2 10.8,18.93135 10.8,18.6 C10.8,17.274525 11.874525,16.2 13.2,16.2 C14.525475,16.2 15.5999997,17.274525 15.5999997,18.6 C15.5999997,19.925475 14.525475,21 13.2,21 C12.86865,21 12.5999997,21.26865 12.5999997,21.6 C12.5999997,21.93135 12.86865,22.2 13.2,22.2 C14.525475,22.2 15.5999997,23.274525 15.5999997,24.6 C15.5999997,25.925475 14.525475,27 13.2,27 C11.874525,27 10.8,25.925475 10.8,24.6 C10.8,24.26865 10.53135,24 10.2,24 C9.86865,24 9.59999974,24.26865 9.59999974,24.6 C9.59925,26.58825 11.210475,28.2006 13.198725,28.2012753 C15.1869,28.202025 16.79925,26.5908 16.8000003,24.60255 C16.80045,23.394675 16.19505,22.26705 15.188025,21.6 C16.194375,20.93355 16.799625,19.80705 16.8000003,18.6" id="Fill-5"></path>
                </g>
            </g>
        </g>
    </g>
</svg>