<?xml version="1.0" encoding="UTF-8"?>
<svg width="36px" height="36px" viewBox="0 0 36 36" version="1.1" xmlns="http://www.w3.org/2000/svg" xmlns:xlink="http://www.w3.org/1999/xlink">
    <title>Group 9</title>
    <g id="Page-1" stroke="none" stroke-width="1" fill="none" fill-rule="evenodd">
        <g id="Mobile-1" transform="translate(-115.000000, -4637.000000)" fill="#FC5413">
            <g id="Group-10" transform="translate(73.000000, 4637.000000)">
                <g id="Group-9" transform="translate(42.000000, 0.000000)">
                    <path d="M34.8,34.8 L2.4,34.8 L2.4,33.6 L33,33.6 C33.33135,33.6 33.6,33.33135 33.6,33 L33.6,4.8 L34.8,4.8 L34.8,34.8 Z M4.8,3.6 L4.8,4.2 C4.801125,5.1936 5.6064,5.998875 6.6,6 C6.93135,6 7.2,5.73135 7.2,5.4 C7.2,5.06865 6.93135,4.8 6.6,4.8 C6.2688,4.799625 6.000375,4.5312 6,4.2 L6,3.6 L9.6,3.6 L9.6,4.2 C9.601125,5.1936 10.4064,5.998875 11.4,6 C11.73135,6 12,5.73135 12,5.4 C12,5.06865 11.73135,4.8 11.4,4.8 C11.0688,4.799625 10.800375,4.5312 10.8,4.2 L10.8,3.6 L20.4,3.6 L20.4,4.2 C20.401125,5.1936 21.2064,5.998875 22.2,6 C22.53135,6 22.8,5.73135 22.8,5.4 C22.8,5.06865 22.53135,4.8 22.2,4.8 C21.8688,4.799625 21.600375,4.5312 21.6,4.2 L21.6,3.6 L25.2,3.6 L25.2,4.2 C25.201125,5.1936 26.0064,5.998875 27,6 C27.33135,6 27.6,5.73135 27.6,5.4 C27.6,5.06865 27.33135,4.8 27,4.8 C26.6688,4.799625 26.400375,4.5312 26.4,4.2 L26.4,3.6 L32.4,3.6 L32.4,9.6 L1.2,9.6 L1.2,3.6 L4.8,3.6 Z M6,1.8 C6,1.46865 6.26865,1.2 6.6,1.2 C6.93135,1.2 7.2,1.46865 7.2,1.8 L7.2,2.4 L6,2.4 L6,1.8 Z M10.8,1.8 C10.8,1.46865 11.06865,1.2 11.4,1.2 C11.73135,1.2 12,1.46865 12,1.8 L12,2.4 L10.8,2.4 L10.8,1.8 Z M21.6,1.8 C21.6,1.46865 21.86865,1.2 22.2,1.2 C22.53135,1.2 22.8,1.46865 22.8,1.8 L22.8,2.4 L21.6,2.4 L21.6,1.8 Z M26.4,1.8 C26.4,1.46865 26.66865,1.2 27,1.2 C27.33135,1.2 27.6,1.46865 27.6,1.8 L27.6,2.4 L26.4,2.4 L26.4,1.8 Z M1.2,32.4 L32.4,32.4 L32.4,10.8 L1.2,10.8 L1.2,32.4 Z M35.4,3.6 L33.6,3.6 L33.6,3 C33.6,2.66865 33.33135,2.4 33,2.4 L28.8,2.4 L28.8,1.8 C28.8,0.805875 27.994125,0 27,0 C26.005875,0 25.2,0.805875 25.2,1.8 L25.2,2.4 L24,2.4 L24,1.8 C24,0.805875 23.194125,0 22.2,0 C21.205875,0 20.4,0.805875 20.4,1.8 L20.4,2.4 L13.2,2.4 L13.2,1.8 C13.2,0.805875 12.394125,0 11.4,0 C10.405875,0 9.6,0.805875 9.6,1.8 L9.6,2.4 L8.4,2.4 L8.4,1.8 C8.4,0.805875 7.594125,0 6.6,0 C5.605875,0 4.8,0.805875 4.8,1.8 L4.8,2.4 L0.6,2.4 C0.26865,2.4 0,2.66865 0,3 L0,33 C0,33.33135 0.26865,33.6 0.6,33.6 L1.2,33.6 L1.2,35.4 C1.2,35.73135 1.46865,36 1.8,36 L35.4,36 C35.73135,36 36,35.73135 36,35.4 L36,4.2 C36,3.86865 35.73135,3.6 35.4,3.6 L35.4,3.6 Z" id="Fill-1"></path>
                    <path d="M12.2727273,24.2480428 C12.2723438,23.0510049 11.6533381,21.9338489 10.6241165,21.2729269 C12.3189034,20.1838114 12.7822756,17.9687632 11.6590909,16.3253836 C10.5359063,14.682004 8.2515682,14.2326871 6.55678127,15.3218027 C5.52763639,15.9830965 4.90893753,17.1006244 4.90909091,18.2978111 C4.90909091,18.6264126 5.18384662,18.8928342 5.5227273,18.8928342 C5.86160798,18.8928342 6.13636366,18.6264126 6.13636366,18.2978111 C6.13636366,16.9833305 7.23530968,15.9177184 8.59090911,15.9177184 C9.94650853,15.9177184 11.0454546,16.9833305 11.0454546,18.2978111 C11.0454546,19.6122916 9.94650853,20.6779038 8.59090911,20.6779038 C8.25202842,20.6779038 7.97727274,20.9443254 7.97727274,21.2729269 C7.97727274,21.6015285 8.25202842,21.8679501 8.59090911,21.8679501 C9.94650853,21.8679501 11.0454546,22.9335622 11.0454546,24.2480428 C11.0454546,25.5625234 9.94650853,26.6281355 8.59090911,26.6281355 C7.23530968,26.6281355 6.13636366,25.5625234 6.13636366,24.2480428 C6.13636366,23.9194412 5.86160798,23.6530196 5.5227273,23.6530196 C5.18384662,23.6530196 4.90909091,23.9194412 4.90909091,24.2480428 C4.90909091,26.2198008 6.55747161,27.8181818 8.59090911,27.8181818 C10.6243466,27.8181818 12.2727273,26.2198008 12.2727273,24.2480428" id="Fill-3"></path>
                    <path d="M24.9545455,20.677686 L23.1136364,20.677686 L23.1136364,15.9173554 L27.4090909,15.9173554 C27.7479716,15.9173554 28.0227273,15.6509256 28.0227273,15.322314 C28.0227273,14.9937025 27.7479716,14.7272727 27.4090909,14.7272727 L22.5,14.7272727 C22.1611193,14.7272727 21.8863636,14.9937025 21.8863636,15.322314 L21.8863636,21.2727273 C21.8863636,21.6013388 22.1611193,21.8677686 22.5,21.8677686 L24.9545455,21.8677686 C26.3101449,21.8677686 27.4090909,22.9334132 27.4090909,24.2479339 C27.4090909,25.5624545 26.3101449,26.6280992 24.9545455,26.6280992 C23.598946,26.6280992 22.5,25.5624545 22.5,24.2479339 C22.5,23.9193223 22.2252443,23.6528926 21.8863636,23.6528926 C21.547483,23.6528926 21.2727273,23.9193223 21.2727273,24.2479339 C21.2727273,26.2197521 22.921108,27.8181818 24.9545455,27.8181818 C26.987983,27.8181818 28.6363636,26.2197521 28.6363636,24.2479339 C28.6363636,22.2761157 26.987983,20.677686 24.9545455,20.677686" id="Fill-5"></path>
                    <path d="M16.7674423,21.8621721 C18.1210944,21.8621721 19.2184618,22.9269816 19.2184618,24.240472 C19.2184618,25.5539623 18.1210944,26.6187718 16.7674423,26.6187718 C15.4137901,26.6187718 14.3164227,25.5539623 14.3164227,24.240472 C14.3179546,22.9275761 15.4144029,21.8636586 16.7674423,21.8621721 M16.7674423,15.9164226 C18.1204816,15.9179091 19.2169299,16.9818266 19.2184618,18.2947224 C19.2184618,18.6230765 19.4928228,18.8892974 19.8312167,18.8892974 C20.1696106,18.8892974 20.4439716,18.6230765 20.4439716,18.2947224 C20.4439716,16.3244497 18.7979588,14.7272727 16.7674423,14.7272727 C14.7369258,14.7272727 13.0909091,16.3244497 13.0909091,18.2947224 L13.0909091,24.240472 C13.0880024,26.2135689 14.7340152,27.8153538 16.7674423,27.8181818 C18.8008694,27.8210023 20.451631,26.2238253 20.4545455,24.2507284 C20.4574522,22.2776314 18.8114394,20.6758465 16.7780123,20.6730222 C15.8697564,20.6717588 14.9930573,20.9963224 14.3164227,21.5842827 L14.3164227,18.2947224 C14.3179546,16.9818266 15.4144029,15.9179091 16.7674423,15.9164226" id="Fill-7"></path>
                </g>
            </g>
        </g>
    </g>
</svg>