<?xml version="1.0" encoding="UTF-8"?>
<svg width="36px" height="36px" viewBox="0 0 36 36" version="1.1" xmlns="http://www.w3.org/2000/svg" xmlns:xlink="http://www.w3.org/1999/xlink">
    <title>Group 8</title>
    <defs>
        <polygon id="path-1" points="0 0 36 0 36 36 0 36"></polygon>
    </defs>
    <g id="Page-1" stroke="none" stroke-width="1" fill="none" fill-rule="evenodd">
        <g id="Mobile-1" transform="translate(-115.000000, -4747.000000)">
            <g id="Group-10" transform="translate(73.000000, 4637.000000)">
                <g id="Group-8" transform="translate(42.000000, 110.000000)">
                    <path d="M17.986939,27.8205406 C12.5768821,27.8205406 8.17569678,23.4179839 8.17569678,18.0062413 C8.17569678,12.5944986 12.5768821,8.19194197 17.986939,8.19194197 C23.396996,8.19194197 27.7981813,12.5944986 27.7981813,18.0062413 C27.7981813,23.4179839 23.396996,27.8205406 17.986939,27.8205406 M17.986939,6.55625097 C11.6750143,6.55625097 6.54051529,11.6923498 6.54051529,18.0062413 C6.54051529,24.3201327 11.6750143,29.4562316 17.986939,29.4562316 C24.2988638,29.4562316 29.4333628,24.3201327 29.4333628,18.0062413 C29.4333628,11.6923498 24.2988638,6.55625097 17.986939,6.55625097" id="Fill-1" fill="#FC5413"></path>
                    <path d="M22.3145094,14.1565824 L16.3517269,20.1212228 L13.6585409,17.428041 C13.3388324,17.1082329 12.8221325,17.1082329 12.502424,17.428041 C12.1827921,17.7477725 12.1827921,18.2654768 12.502424,18.5844415 L15.7737067,21.8559002 C15.9339059,22.0153826 16.143238,22.0955071 16.3517269,22.0955071 C16.5602158,22.0955071 16.7703143,22.0153826 16.929747,21.8559002 L23.4706263,15.3130595 C23.7902582,14.9932514 23.7902582,14.4763905 23.4706263,14.1565824 C23.1509178,13.8367742 22.6342179,13.8367742 22.3145094,14.1565824 Z" id="Fill-3" fill="#FC5413"></path>
                    <g id="Group-7">
                        <mask id="mask-2" fill="white">
                            <use xlink:href="#path-1"></use>
                        </mask>
                        <g id="Clip-6"></g>
                        <path d="M33.0651781,23.4948882 C33.3431888,23.9422822 33.1714921,24.5572861 32.5386669,24.7658399 C31.379254,25.1485976 29.242856,25.4634986 29.8127513,28.8485884 C29.9215181,29.4922685 29.5772814,29.8774797 28.8398286,29.8210475 C27.718051,29.7351724 25.4083466,29.281261 24.7599615,32.5485793 C24.6315722,33.1938695 23.9995902,33.3337232 23.4894056,33.0760979 C21.2883914,31.9646285 20.4078324,31.8223211 18.6761481,34.0338355 C18.3450187,34.4566171 17.6550124,34.4386753 17.3001214,34.0338355 C16.3697397,32.9730477 15.3157977,31.3422639 12.4860974,33.0769413 C11.9939257,33.378731 11.4329985,33.1456414 11.2155416,32.5501894 C10.650552,30.9995302 10.4837609,29.3466641 7.13490794,29.8235011 C6.61813141,29.8971083 6.07038815,29.5470139 6.1627518,28.851042 C6.33851101,27.5195943 6.54048463,25.3816872 3.43522646,24.7682935 C2.95608524,24.6734475 2.58164838,24.0338312 2.90871534,23.4973417 C4.14899433,21.4682354 3.97729759,20.1988938 1.93326324,18.6736136 C1.70269904,18.5018634 1.32741903,17.7633374 1.95127606,17.3167868 C3.94211509,15.8921032 4.14899433,14.5319793 2.90871534,12.5020295 C2.58080523,11.9655401 2.95608524,11.325157 3.43522646,11.2310778 C6.54048463,10.6176841 6.33851101,8.47985364 6.1627518,7.14832925 C6.07038815,6.45235741 6.61897457,6.10233963 7.13490794,6.17594687 C10.4837609,6.65194039 10.650552,4.99984111 11.2155416,3.44918182 C11.432232,2.85296314 11.9939257,2.62071695 12.4860974,2.92250665 C15.3166408,4.65718405 16.3705062,3.02632354 17.3001214,1.96561247 C17.6550124,1.56077262 18.3442522,1.54275418 18.6761481,1.96561247 C20.4078324,4.17705013 21.2883914,4.03474279 23.4894056,2.92327339 C23.9995902,2.66564804 24.6315722,2.8055018 24.7599615,3.45079198 C25.4083466,6.71818691 27.718051,6.26427557 28.8398286,6.17840045 C29.5781246,6.12196823 29.9215181,6.50717948 29.8127513,7.15078282 C29.242856,10.5367161 31.379254,10.8507737 32.5386669,11.2335313 C33.1714921,11.4420852 33.3431888,12.0579325 33.0651781,12.5044831 C31.2468023,15.425924 33.1681961,16.5872316 34.0226173,17.3200837 C34.3561996,17.6063086 34.5482853,18.2826518 34.099421,18.6327463 C33.0782853,19.3393758 31.2468023,20.573524 33.0651781,23.4948882 Z M34.2327159,15.3457228 C33.8958377,15.0963015 33.79121,14.603133 34.0144157,14.2482081 C34.8131888,12.9772563 35.9733682,10.3077669 31.978583,9.32879053 C31.5714164,9.2289607 31.2697207,8.80778925 31.3564123,8.39888567 C31.7398172,6.60447905 31.2026517,3.99878258 27.5921145,4.63341505 C27.1808855,4.70541213 26.7434421,4.42240761 26.6624993,4.01105046 C26.3919237,2.6354384 25.2259955,-0.151055868 21.7454573,1.97373993 C21.387347,2.19210809 20.8166853,2.07356976 20.6482078,1.75460503 C20.107823,0.733074487 17.7408608,-1.62235735 15.3256089,1.75460503 C15.0820142,2.09565193 14.5219302,2.18313721 14.2284361,1.97297319 C12.6439205,0.837734788 10.0839527,0.553963524 9.31055091,4.0094403 C9.22140657,4.40607601 8.79952316,4.71031928 8.38009255,4.63096147 C6.99509774,4.36766222 3.95522229,4.45430409 4.6183243,8.39643209 C4.6877695,8.80939941 4.41060191,9.26499758 3.99692007,9.3271037 C2.38381388,9.56839745 -0.103336034,10.8647284 1.95947765,14.2457545 C2.17777779,14.603133 2.11477122,15.1543439 1.74117751,15.3432692 C0.309502644,16.0670737 -1.32974132,18.6417172 1.74117751,20.6699801 C2.09024311,20.9006162 2.17777779,21.3970817 1.95947765,21.7544602 C-0.103336034,25.1354863 2.38381388,26.4309738 3.99692007,26.673111 C4.41144506,26.7352171 4.6877695,27.1908153 4.6183243,27.6037826 C3.95522229,31.5459106 6.99509774,31.6325525 8.38170221,31.3684098 C8.80113281,31.2882852 9.22301623,31.5932953 9.31216057,31.9900076 C10.085639,35.4462512 12.6455301,35.1616365 14.2300457,34.0264748 C14.5235399,33.8162341 15.0836238,33.903796 15.3272952,34.2448429 C17.7424705,37.622572 20.1094327,35.2671402 20.6498941,34.2448429 C20.8182949,33.9266449 21.3889566,33.8072632 21.747067,34.0256313 C25.2276052,36.1504271 26.3935333,33.3640096 26.6641856,31.9883208 C26.7451284,31.5769637 27.1824952,31.2939591 27.5938008,31.3659562 C31.204338,32.0005887 31.7406604,29.3948922 31.3580219,27.6005623 C31.2705639,27.191582 31.5730261,26.7704106 31.9801926,26.6706574 C35.975821,25.6916811 34.8156416,23.0221916 34.0160254,21.7512399 C33.7928196,21.3962383 33.8893224,20.8924887 34.2327159,20.6552587 C35.3005316,19.9167327 37.6093929,17.8451488 34.2327159,15.3457228 Z" id="Fill-5" fill="#FC5413" mask="url(#mask-2)"></path>
                    </g>
                </g>
            </g>
        </g>
    </g>
</svg>