<?xml version="1.0" encoding="UTF-8"?>
<svg width="30px" height="30px" viewBox="0 0 30 30" version="1.1" xmlns="http://www.w3.org/2000/svg" xmlns:xlink="http://www.w3.org/1999/xlink">
    <title>Calculator-Icon</title>
    <defs>
        <polygon id="path-1" points="0 0 1.25002148 0 1.25002148 1.24998047 0 1.24998047"></polygon>
        <polygon id="path-3" points="0 30 30 30 30 0 0 0"></polygon>
    </defs>
    <g id="Page-1" stroke="none" stroke-width="1" fill="none" fill-rule="evenodd">
        <g id="Mobile-1" transform="translate(-323.000000, -2062.000000)">
            <g id="Calculator-Icon" transform="translate(323.000000, 2062.000000)">
                <g id="Group-3" transform="translate(28.749979, 14.374998)">
                    <mask id="mask-2" fill="white">
                        <use xlink:href="#path-1"></use>
                    </mask>
                    <g id="Clip-2"></g>
                    <path d="M0.625019531,0 C0.975,0 1.25003906,0.274980469 1.25003906,0.625019531 C1.25003906,0.975 0.975,1.24998047 0.625019531,1.24998047 L0,1.24998047 L0,0 L0.625019531,0 Z" id="Fill-1" fill="#FC5413" mask="url(#mask-2)"></path>
                </g>
                <mask id="mask-4" fill="white">
                    <use xlink:href="#path-3"></use>
                </mask>
                <g id="Clip-5"></g>
                <polygon id="Fill-4" fill="#FC5413" mask="url(#mask-4)" points="15.6250195 15.6249609 28.7500195 15.6249609 28.7500195 14.3749805 15.6250195 14.3749805"></polygon>
                <path d="M26.875002,30 L14.9999824,30 C15.3500215,30 15.625002,29.7250195 15.625002,29.3749805 L15.625002,28.7500195 L26.875002,28.7500195 C27.9125215,28.7500195 28.750002,27.9124805 28.750002,26.8750195 L28.750002,15.6250195 L29.3750215,15.6250195 C29.725002,15.6250195 29.9999824,15.3499805 29.9999824,15 L29.9999824,26.8750195 C29.9999824,28.6000195 28.600002,30 26.875002,30" id="Fill-6" fill="#FC5413" mask="url(#mask-4)"></path>
                <path d="M30,3.12499805 L30,15.0000176 C30,14.6499785 29.7250195,14.374998 29.3749805,14.374998 L28.7500195,14.374998 L28.7500195,3.12499805 C28.7500195,2.08747852 27.9124805,1.24999805 26.8750195,1.24999805 L15.6250195,1.24999805 L15.6250195,0.624978516 C15.6250195,0.274998047 15.3499805,1.75781249e-05 15,1.75781249e-05 L26.8750195,1.75781249e-05 C28.6000195,1.75781249e-05 30,1.39999805 30,3.12499805" id="Fill-7" fill="#FC5413" mask="url(#mask-4)"></path>
                <path d="M25.000002,7.5 C25.3499824,7.5 25.6250215,7.77498047 25.6250215,8.12501953 C25.6250215,8.475 25.3499824,8.74998047 25.000002,8.74998047 L20.0000215,8.74998047 C19.6499824,8.74998047 19.375002,8.475 19.375002,8.12501953 C19.375002,7.77498047 19.6499824,7.5 20.0000215,7.5 L25.000002,7.5 Z" id="Fill-8" fill="#FC5413" mask="url(#mask-4)"></path>
                <path d="M25.000002,19.999998 C25.3499824,19.999998 25.6250215,20.2749785 25.6250215,20.6250176 C25.6250215,20.974998 25.3499824,21.2499785 25.000002,21.2499785 L20.0000215,21.2499785 C19.6499824,21.2499785 19.375002,20.974998 19.375002,20.6250176 C19.375002,20.2749785 19.6499824,19.999998 20.0000215,19.999998 L25.000002,19.999998 Z" id="Fill-9" fill="#FC5413" mask="url(#mask-4)"></path>
                <path d="M25.000002,23.749998 C25.3499824,23.749998 25.6250215,24.0249785 25.6250215,24.3750176 C25.6250215,24.724998 25.3499824,24.9999785 25.000002,24.9999785 L20.0000215,24.9999785 C19.6499824,24.9999785 19.375002,24.724998 19.375002,24.3750176 C19.375002,24.0249785 19.6499824,23.749998 20.0000215,23.749998 L25.000002,23.749998 Z" id="Fill-10" fill="#FC5413" mask="url(#mask-4)"></path>
                <path d="M15.625002,28.750002 L15.625002,29.3750215 C15.625002,29.725002 15.3500215,29.9999824 14.9999824,29.9999824 C14.650002,29.9999824 14.3750215,29.725002 14.3750215,29.3750215 L14.3750215,28.750002 L15.625002,28.750002 Z" id="Fill-11" fill="#FC5413" mask="url(#mask-4)"></path>
                <polygon id="Fill-12" fill="#FC5413" mask="url(#mask-4)" points="14.3749805 28.7500195 15.6249609 28.7500195 15.6249609 15.6250195 14.3749805 15.6250195"></polygon>
                <polygon id="Fill-13" fill="#FC5413" mask="url(#mask-4)" points="14.3749805 15.6249609 15.6249609 15.6249609 15.6249609 14.3749805 14.3749805 14.3749805"></polygon>
                <polygon id="Fill-14" fill="#FC5413" mask="url(#mask-4)" points="14.3749805 14.3749805 15.6249609 14.3749805 15.6249609 1.24998047 14.3749805 1.24998047"></polygon>
                <path d="M15.625002,0.625001953 L15.625002,1.25002148 L14.3750215,1.25002148 L14.3750215,0.625001953 C14.3750215,0.275021484 14.650002,-1.75781249e-05 14.9999824,-1.75781249e-05 C15.3500215,-1.75781249e-05 15.625002,0.275021484 15.625002,0.625001953" id="Fill-15" fill="#FC5413" mask="url(#mask-4)"></path>
                <polygon id="Fill-16" fill="#FC5413" mask="url(#mask-4)" points="1.24998047 15.6249609 14.3749805 15.6249609 14.3749805 14.3749805 1.24998047 14.3749805"></polygon>
                <path d="M10.000002,7.5 C10.3499824,7.5 10.6250215,7.77498047 10.6250215,8.12501953 C10.6250215,8.475 10.3499824,8.74998047 10.000002,8.74998047 L8.12500195,8.74998047 L8.12500195,7.5 L10.000002,7.5 Z" id="Fill-17" fill="#FC5413" mask="url(#mask-4)"></path>
                <path d="M9.81250195,23.937498 C10.0625215,24.1749785 10.0625215,24.574998 9.81250195,24.8124785 C9.70000195,24.9375176 9.53752148,24.9999785 9.37498242,24.9999785 C9.21250195,24.9999785 9.05002148,24.9375176 8.93752148,24.8124785 L7.49998242,23.374998 L8.37502148,22.5000176 L9.81250195,23.937498 Z" id="Fill-18" fill="#FC5413" mask="url(#mask-4)"></path>
                <path d="M8.93749805,20.187498 C9.17497852,19.9374785 9.57499805,19.9374785 9.81247852,20.187498 C10.062498,20.4249785 10.062498,20.824998 9.81247852,21.0624785 L8.37499805,22.5000176 L7.50001758,21.6249785 L8.93749805,20.187498 Z" id="Fill-19" fill="#FC5413" mask="url(#mask-4)"></path>
                <polygon id="Fill-20" fill="#FC5413" mask="url(#mask-4)" points="6.62133984 22.498752 7.49626172 21.6238301 8.37118359 22.498752 7.49626172 23.3736738"></polygon>
                <path d="M8.12500195,8.74999805 L8.12500195,10.624998 C8.12500195,10.9749785 7.85002148,11.2500176 7.49998242,11.2500176 C7.15000195,11.2500176 6.87502148,10.9749785 6.87502148,10.624998 L6.87502148,8.74999805 L8.12500195,8.74999805 Z" id="Fill-21" fill="#FC5413" mask="url(#mask-4)"></path>
                <polygon id="Fill-22" fill="#FC5413" mask="url(#mask-4)" points="6.87498047 8.74998047 8.12496094 8.74998047 8.12496094 7.5 6.87498047 7.5"></polygon>
                <path d="M8.12500195,5.625 L8.12500195,7.5 L6.87502148,7.5 L6.87502148,5.625 C6.87502148,5.27501953 7.15000195,4.99998047 7.49998242,4.99998047 C7.85002148,4.99998047 8.12500195,5.27501953 8.12500195,5.625" id="Fill-23" fill="#FC5413" mask="url(#mask-4)"></path>
                <path d="M7.50000977,21.625002 L6.62501953,22.4999824 L5.18748047,21.062502 C4.93751953,20.8250215 4.93751953,20.425002 5.18748047,20.1875215 C5.42501953,19.937502 5.82498047,19.937502 6.06251953,20.1875215 L7.50000977,21.625002 Z" id="Fill-24" fill="#FC5413" mask="url(#mask-4)"></path>
                <path d="M6.87499805,7.5 L6.87499805,8.74998047 L4.99999805,8.74998047 C4.65001758,8.74998047 4.37497852,8.475 4.37497852,8.12501953 C4.37497852,7.77498047 4.65001758,7.5 4.99999805,7.5 L6.87499805,7.5 Z" id="Fill-25" fill="#FC5413" mask="url(#mask-4)"></path>
                <path d="M6.06250195,24.812502 C5.95000195,24.9374824 5.78752148,25.000002 5.62498242,25.000002 C5.46250195,25.000002 5.30002148,24.9374824 5.18752148,24.812502 C4.93750195,24.5750215 4.93750195,24.175002 5.18752148,23.9375215 L6.62500195,22.4999824 L7.49998242,23.3750215 L6.06250195,24.812502 Z" id="Fill-26" fill="#FC5413" mask="url(#mask-4)"></path>
                <path d="M1.24999805,14.374998 L1.24999805,15.6249785 L0.624978516,15.6249785 C0.274998047,15.6249785 1.75781255e-05,15.349998 1.75781255e-05,15.0000176 C1.75781255e-05,14.6499785 0.274998047,14.374998 0.624978516,14.374998 L1.24999805,14.374998 Z" id="Fill-27" fill="#FC5413" mask="url(#mask-4)"></path>
                <path d="M0,3.12499805 C0,1.39999805 1.39998047,1.75781249e-05 3.12498047,1.75781249e-05 L15,1.75781249e-05 C14.6500195,1.75781249e-05 14.3749805,0.274998047 14.3749805,0.624978516 L14.3749805,1.24999805 L3.12498047,1.24999805 C2.08751953,1.24999805 1.24998047,2.08747852 1.24998047,3.12499805 L1.24998047,14.374998 L0.625019531,14.374998 C0.274980469,14.374998 0,14.6499785 0,15.0000176 L0,3.12499805 Z" id="Fill-28" fill="#FC5413" mask="url(#mask-4)"></path>
                <path d="M1.24999805,26.875002 C1.24999805,27.9125215 2.08747852,28.750002 3.12499805,28.750002 L14.374998,28.750002 L14.374998,29.3750215 C14.374998,29.725002 14.6499785,29.9999824 15.0000176,29.9999824 L3.12499805,29.9999824 C1.39999805,29.9999824 1.75781255e-05,28.600002 1.75781255e-05,26.875002 L1.75781255e-05,14.9999824 C1.75781255e-05,15.3500215 0.274998047,15.625002 0.624978516,15.625002 L1.24999805,15.625002 L1.24999805,26.875002 Z" id="Fill-29" fill="#FC5413" mask="url(#mask-4)"></path>
            </g>
        </g>
    </g>
</svg>