<?xml version="1.0" encoding="UTF-8"?>
<svg width="25px" height="25px" viewBox="0 0 25 25" version="1.1" xmlns="http://www.w3.org/2000/svg" xmlns:xlink="http://www.w3.org/1999/xlink">
    <title>Cargo-Elevator-Icon</title>
    <g id="Page-1" stroke="none" stroke-width="1" fill="none" fill-rule="evenodd">
        <g id="Mobile-1" transform="translate(-155.000000, -2795.000000)" fill="#FC5413">
            <g id="Cargo-Elevator-Icon" transform="translate(155.000000, 2795.000000)">
                <path d="M14.574236,3.09783598 L14.574236,4.1748913 C14.574236,4.23992496 14.5210937,4.29277069 14.4556952,4.29277069 L10.7203125,4.29277069 C10.6549139,4.29277069 10.6017717,4.23992496 10.6017717,4.1748913 L10.6017717,3.09783598 C10.6017717,3.03280231 10.6549139,2.97995658 10.7203125,2.97995658 L14.4556952,2.97995658 C14.5210464,2.97995658 14.574236,3.03284937 14.574236,3.09783598 L14.574236,3.09783598 Z M10.7203125,2.27272727 C10.2628066,2.27272727 9.89057444,2.64288269 9.89057444,3.09783598 L9.89057444,4.1748913 C9.89057444,4.62984458 10.2628066,5 10.7203125,5 L14.4556952,5 C14.913201,5 15.2854332,4.62984458 15.2854332,4.1748913 L15.2854332,3.09783598 C15.2854332,2.64288269 14.913201,2.27272727 14.4556952,2.27272727 L10.7203125,2.27272727 Z" id="Fill-1"></path>
                <path d="M22.9119371,0 L19.3017738,0 C19.1013058,0 18.9388451,0.164305999 18.9388451,0.366990754 C18.9388451,0.569675509 19.1013058,0.73393268 19.3017738,0.73393268 L22.9119371,0.73393268 C23.5122305,0.73393268 24.0006752,1.22772958 24.0006752,1.83470963 L24.0006752,24.1438022 C24.0006752,24.2112824 23.9464411,24.2661161 23.8796989,24.2661161 L19.4952875,24.2661161 C19.4285454,24.2661161 19.3743113,24.2112824 19.3743113,24.1438022 L19.3743113,7.45392596 C19.3743113,6.98185749 18.9944314,6.59777696 18.5275258,6.59777696 L9.33690403,6.59777696 C9.13643599,6.59777696 8.97397526,6.76203413 8.97397526,6.96471889 C8.97397526,7.16740364 9.13643599,7.33166081 9.33690403,7.33166081 L12.0003617,7.33166081 L12.0003617,23.1375561 L6.07798236,23.1375561 L6.07798236,7.45392596 C6.07798236,7.38644576 6.13221643,7.33161199 6.19895862,7.33161199 L7.88523724,7.33161199 C8.08570528,7.33161199 8.24816601,7.16735482 8.24816601,6.96467006 C8.24816601,6.7619853 8.08570528,6.59772813 7.88523724,6.59772813 L6.19895862,6.59772813 C5.73205305,6.59772813 5.35217311,6.98180866 5.35217311,7.45387713 L5.35217311,24.1437533 C5.35217311,24.2112335 5.29793905,24.2660673 5.23119686,24.2660673 L0.846785503,24.2660673 C0.780043313,24.2660673 0.725809246,24.2112335 0.725809246,24.1437533 L0.725809246,1.8346608 C0.725809246,1.22768075 1.21420561,0.733883852 1.81454726,0.733883852 L17.8500587,0.733883852 C18.0505268,0.733883852 18.2129875,0.569626681 18.2129875,0.366941926 C18.2129875,0.164257171 18.0505268,0 17.8500587,0 L1.81454726,0 C0.813993935,0 0,0.82304366 0,1.8346608 L0,24.1437533 C0,24.6158706 0.379879934,25 0.846785503,25 L5.23119686,25 C5.69810243,25 6.07798236,24.6158706 6.07798236,24.1438022 L6.07798236,23.8713423 L12.3632422,23.8713423 L14.9614548,23.8713423 C15.1619229,23.8713423 15.3243836,23.7070851 15.3243836,23.5044004 C15.3243836,23.3017156 15.1619229,23.1374584 14.9614548,23.1374584 L12.7261227,23.1374584 L12.7261227,7.33161199 L18.5274775,7.33161199 C18.5942197,7.33161199 18.6484537,7.38644576 18.6484537,7.45392596 L18.6484537,23.1375073 L16.4130733,23.1375073 C16.2126053,23.1375073 16.0501445,23.3017644 16.0501445,23.5044492 C16.0501445,23.707134 16.2126053,23.8713911 16.4130733,23.8713911 L18.6484537,23.8713911 L18.6484537,24.143851 C18.6484537,24.6159195 19.0283337,25 19.4952393,25 L23.8796506,25 C24.3465562,25 24.7264361,24.6159195 24.7264361,24.143851 L24.7264361,1.8346608 C24.7264361,0.82304366 23.9124905,0 22.9119371,0 Z" id="Fill-3"></path>
                <path d="M21.0500422,13.1818182 C21.1491615,13.1818182 21.2479855,13.1469531 21.3208238,13.0781324 L21.8042147,12.6212049 L22.2876549,13.0781324 C22.4269337,13.2097103 22.6609023,13.2169864 22.8103194,13.0945905 C22.959835,12.9720646 22.9681523,12.7661657 22.8290212,12.6346312 L22.0748979,11.9218676 C22.004914,11.8557322 21.9068775,11.8181818 21.8042147,11.8181818 C21.701552,11.8181818 21.6035155,11.8557322 21.5335316,11.9218676 L20.7794575,12.6346312 C20.6402771,12.7661657 20.6485945,12.9721079 20.7981593,13.0945905 C20.8693735,13.1529733 20.9597817,13.1818182 21.0500422,13.1818182 Z" id="Fill-5"></path>
                <path d="M20.7794391,15.5472122 L21.5335067,16.2599538 C21.60349,16.3260872 21.7015257,16.3636364 21.8041875,16.3636364 C21.9068494,16.3636364 22.0048851,16.3260872 22.0748684,16.2599538 L22.8289852,15.5472122 C22.9681644,15.4156818 22.9598471,15.209746 22.8102836,15.0872672 C22.6608678,14.9647451 22.4268027,14.972151 22.2876235,15.1037247 L21.8041875,15.5606381 L21.3208008,15.1037247 C21.1816216,14.9721943 20.9476057,14.9648317 20.7981407,15.0872672 C20.6486264,15.209746 20.6402599,15.4156818 20.7794391,15.5472122" id="Fill-7"></path>
            </g>
        </g>
    </g>
</svg>