<?xml version="1.0" encoding="UTF-8"?>
<svg width="32px" height="30px" viewBox="0 0 32 30" version="1.1" xmlns="http://www.w3.org/2000/svg" xmlns:xlink="http://www.w3.org/1999/xlink">
    <title>Chat-Icon</title>
    <g id="Page-1" stroke="none" stroke-width="1" fill="none" fill-rule="evenodd">
        <g id="Mobile-1" transform="translate(-204.000000, -2062.000000)" fill="#FC5413">
            <g id="Chat-Icon" transform="translate(204.000000, 2062.000000)">
                <path d="M25.9390839,5.52211078 L5.72758275,5.52211078 C5.3758347,5.52211078 5.0906657,5.80481672 5.0906657,6.15352667 C5.0906657,6.50223662 5.3758347,6.78494256 5.72758275,6.78494256 L25.9390839,6.78494256 C26.290832,6.78494256 26.576001,6.50223662 26.576001,6.15352667 C26.576001,5.80481672 26.290832,5.52211078 25.9390839,5.52211078" id="Fill-1"></path>
                <path d="M25.9390839,10.3489064 L5.72758275,10.3489064 C5.3758347,10.3489064 5.0906657,10.6316123 5.0906657,10.9803223 C5.0906657,11.3290322 5.3758347,11.6117382 5.72758275,11.6117382 L25.9390839,11.6117382 C26.290832,11.6117382 26.576001,11.3290322 26.576001,10.9803223 C26.576001,10.6316123 26.290832,10.3489064 25.9390839,10.3489064" id="Fill-3"></path>
                <path d="M25.9390839,15.1757104 L5.72758275,15.1757104 C5.3758347,15.1757104 5.0906657,15.4584164 5.0906657,15.8071263 C5.0906657,16.1558362 5.3758347,16.4385422 5.72758275,16.4385422 L25.9390839,16.4385422 C26.290832,16.4385422 26.576001,16.1558362 26.576001,15.8071263 C26.576001,15.4584164 26.290832,15.1757104 25.9390839,15.1757104" id="Fill-5"></path>
                <path d="M30.3928326,18.7942202 C30.3928326,20.1056289 29.3166126,21.1861919 27.9937783,21.2028613 C27.6452573,21.2073233 27.3650138,21.4886822 27.3650138,21.8342772 L27.3650138,28.42668 L22.1699786,21.9065112 C21.8142392,21.4598897 21.2809274,21.2037874 20.7068528,21.2037874 L3.70447943,21.2037874 C2.3642361,21.2037874 1.27383411,20.1228034 1.27383411,18.794136 L1.27383411,3.67239899 C1.27383411,2.34373158 2.36415118,1.26274759 3.70447943,1.26274759 L27.9621872,1.26274759 C29.3024306,1.26274759 30.3928326,2.34373158 30.3928326,3.67239899 L30.3928326,18.7942202 Z M27.9621872,0 L3.70447943,0 C1.66184398,0 0,1.64740614 0,3.67248318 L0,18.7942202 C0,20.819213 1.66175905,22.4667033 3.70447943,22.4667033 L20.7068528,22.4667033 C20.8886714,22.4667033 21.0575818,22.5477771 21.1703586,22.6892985 L26.6610082,29.5804031 C26.8773901,29.8519961 27.1931311,30 27.5237335,30 C27.6466161,30 27.7716217,29.9795421 27.8942494,29.9372794 C28.3466304,29.7815301 28.6389328,29.3741406 28.6389328,28.8994 L28.6389328,22.4039827 C30.3564858,22.0859175 31.6666667,20.5805378 31.6666667,18.7942202 L31.6666667,3.67239899 C31.6666667,1.64740614 30.0049076,0 27.9621872,0 L27.9621872,0 Z" id="Fill-7"></path>
            </g>
        </g>
    </g>
</svg>