<?xml version="1.0" encoding="UTF-8"?>
<svg width="18px" height="25px" viewBox="0 0 18 25" version="1.1" xmlns="http://www.w3.org/2000/svg" xmlns:xlink="http://www.w3.org/1999/xlink">
    <title>Clilmate-Control-Icon</title>
    <defs>
        <polygon id="path-1" points="0 0 10.8324458 0 10.8324458 25 0 25"></polygon>
    </defs>
    <g id="Page-1" stroke="none" stroke-width="1" fill="none" fill-rule="evenodd">
        <g id="Mobile-1" transform="translate(-38.000000, -2794.000000)">
            <g id="Clilmate-Control-Icon" transform="translate(38.000000, 2794.000000)">
                <g id="Group-3" transform="translate(6.524500, 0.000000)">
                    <mask id="mask-2" fill="white">
                        <use xlink:href="#path-1"></use>
                    </mask>
                    <g id="Clip-2"></g>
                    <path d="M9.90357261,20.5046425 C9.46819305,22.6386995 7.59145769,24.1714941 5.41402291,24.1714941 C3.23658813,24.1714941 1.35985276,22.6386507 0.924473201,20.5046425 C0.489093637,18.3705855 1.61534964,16.2248099 3.61866188,15.3714019 C3.9466488,15.2348312 4.1614341,14.9155479 4.16436299,14.5601809 L4.16436299,2.08361816 C4.16470469,1.73137619 4.31315062,1.39549146 4.57343135,1.15818955 C4.80295873,0.948279903 5.10302356,0.832363293 5.41402291,0.83362249 C5.45566197,0.83362249 5.49734984,0.83362249 5.5389889,0.839492115 C6.19383998,0.927967641 6.67788794,1.49407429 6.66368283,2.15490639 L6.66368283,14.5601809 C6.66661172,14.9155479 6.88139701,15.2348312 7.20938393,15.3714019 C9.21269617,16.2248099 10.3389522,18.3705855 9.90357261,20.5046425 M7.53844477,14.6047605 C7.51887002,14.596411 7.49885593,14.5793213 7.49885593,14.5601809 L7.49885593,2.15490639 C7.51008335,1.06448948 6.69922003,0.140330387 5.61684857,0.00991199322 C5.03190033,-0.0473627262 4.45002743,0.14526197 4.01469669,0.540228044 C3.57936594,0.935194119 3.33114247,1.49573442 3.3312401,2.08361816 L3.3312401,14.5601321 C3.3312401,14.580542 3.31000565,14.5968016 3.29165127,14.6047117 C1.19895905,15.5030898 -0.111963495,17.6111706 0.00753523494,19.8858998 C0.179558733,22.6625762 2.41376517,24.8645035 5.1919642,24.9954102 C5.26694379,24.9983399 5.34192339,24.9999941 5.41646365,24.9999941 C7.98939627,25.0015137 10.2077379,23.1909392 10.7224904,20.6693379 C11.2372429,18.1477854 9.90601335,15.6122682 7.53844477,14.6047605" id="Fill-1" fill="#FC5413" mask="url(#mask-2)"></path>
                </g>
                <path d="M11.9385229,21.6667383 C10.78825,21.6667383 9.8557401,20.7340344 9.8557401,19.5834131 C9.85710691,18.4334266 10.788787,17.5015039 11.9385229,17.5000879 C13.0887958,17.5000879 14.0213057,18.4327918 14.0213057,19.5834131 C14.0212569,20.7340344 13.0887958,21.6667383 11.9385229,21.6667383 M12.3550599,16.6997066 L12.3550599,13.3334863 C12.3550599,13.1033621 12.1685872,12.9168408 11.9385229,12.9168408 C11.7084586,12.9168408 11.5219859,13.1034109 11.5219859,13.3334863 L11.5219859,16.6997066 C10.0174148,16.9274872 8.94094998,18.2742976 9.05000234,19.7924927 C9.15905469,21.3106878 10.4168667,22.4897267 11.9385229,22.5000781 C13.4601791,22.4897267 14.7180399,21.3106878 14.8270435,19.7924927 C14.9360958,18.2742976 13.859631,16.927536 12.3550599,16.6997066" id="Fill-4" fill="#FC5413"></path>
                <path d="M15.2709168,14.1668262 L16.9371138,14.1668262 C17.1671781,14.1668262 17.3536508,13.9803049 17.3536508,13.7501807 C17.3536508,13.5200564 17.1671781,13.3335352 16.9371138,13.3335352 L15.2709168,13.3335352 C15.0408525,13.3335352 14.8543798,13.5201052 14.8543798,13.7501807 C14.8543798,13.9802561 15.0409013,14.1668262 15.2709168,14.1668262" id="Fill-6" fill="#FC5413"></path>
                <path d="M15.2709168,12.5001953 L16.1040397,12.5001953 C16.334104,12.5001953 16.5205767,12.3136741 16.5205767,12.0835498 C16.5205767,11.8534255 16.3340552,11.6669043 16.1040397,11.6669043 L15.2709168,11.6669043 C15.0408525,11.6669043 14.8543798,11.8534255 14.8543798,12.0835498 C14.8543798,12.3136741 15.0409013,12.5001953 15.2709168,12.5001953" id="Fill-8" fill="#FC5413"></path>
                <path d="M15.2709168,10.8335156 L16.1040397,10.8335156 C16.334104,10.8335156 16.5205767,10.6469455 16.5205767,10.4168701 C16.5205767,10.1867459 16.3340552,10.0002246 16.1040397,10.0002246 L15.2709168,10.0002246 C15.0408525,10.0002246 14.8543798,10.1867947 14.8543798,10.4168701 C14.8543798,10.6469944 15.0409013,10.8335156 15.2709168,10.8335156" id="Fill-10" fill="#FC5413"></path>
                <path d="M15.2709168,9.16688476 L16.9371138,9.16688476 C17.1671781,9.16688476 17.3536508,8.98036351 17.3536508,8.75023926 C17.3536508,8.520115 17.1671781,8.33359375 16.9371138,8.33359375 L15.2709168,8.33359375 C15.0408525,8.33359375 14.8543798,8.520115 14.8543798,8.75023926 C14.8543798,8.98036351 15.0409013,9.16688476 15.2709168,9.16688476" id="Fill-12" fill="#FC5413"></path>
                <path d="M15.2709168,7.5002539 L16.1040397,7.5002539 C16.334104,7.5002539 16.5205767,7.31368382 16.5205767,7.0836084 C16.5205767,6.85353297 16.3340552,6.66696289 16.1040397,6.66696289 L15.2709168,6.66696289 C15.0408525,6.66696289 14.8543798,6.85348414 14.8543798,7.0836084 C14.8543798,7.31373265 15.0409013,7.5002539 15.2709168,7.5002539" id="Fill-14" fill="#FC5413"></path>
                <path d="M15.2709168,5.83357422 L16.1040397,5.83357422 C16.334104,5.83357422 16.5205767,5.64705296 16.5205767,5.41692871 C16.5205767,5.18680445 16.3340552,5.0002832 16.1040397,5.0002832 L15.2709168,5.0002832 C15.0408525,5.0002832 14.8543798,5.18680445 14.8543798,5.41692871 C14.8543798,5.64705296 15.0409013,5.83357422 15.2709168,5.83357422" id="Fill-16" fill="#FC5413"></path>
                <path d="M15.2709168,4.16694336 L16.9371138,4.16694336 C17.1671781,4.16694336 17.3536508,3.9804221 17.3536508,3.75029785 C17.3536508,3.52017359 17.1671781,3.33365234 16.9371138,3.33365234 L15.2709168,3.33365234 C15.0408525,3.33365234 14.8543798,3.52017359 14.8543798,3.75029785 C14.8543798,3.9804221 15.0409013,4.16694336 15.2709168,4.16694336" id="Fill-18" fill="#FC5413"></path>
                <path d="M15.2709168,2.5003125 L16.1040397,2.5003125 C16.334104,2.5003125 16.5205767,2.31379124 16.5205767,2.08366699 C16.5205767,1.85354273 16.3340552,1.66702148 16.1040397,1.66702148 L15.2709168,1.66702148 C15.0408525,1.66702148 14.8543798,1.85354273 14.8543798,2.08366699 C14.8543798,2.31379124 15.0409013,2.5003125 15.2709168,2.5003125" id="Fill-20" fill="#FC5413"></path>
                <path d="M6.85406673,7.18023812 L7.06235966,6.81940251 L7.42310133,7.02774967 C7.62246114,7.14278739 7.87727461,7.07442882 7.99233119,6.87501709 C8.10733895,6.67560536 8.03899817,6.42072554 7.83963836,6.305639 L7.47889669,6.09729183 L7.68718962,5.73689566 C7.7628038,5.60789327 7.76348721,5.448276 7.68904458,5.31863884 C7.61460195,5.18900169 7.47640713,5.10916864 7.32693609,5.10951044 C7.17746505,5.10985223 7.03961194,5.19027121 6.96575509,5.32025015 L6.75746216,5.68064632 L4.85714923,4.58358886 L6.75746216,3.48609196 L6.96575509,3.84692758 C7.03961194,3.97690652 7.17746505,4.0573255 7.32693609,4.05766729 C7.47640713,4.05800909 7.61460195,3.97817604 7.68904458,3.84853888 C7.76348721,3.71890173 7.7628038,3.55928446 7.68718962,3.43028207 L7.47889669,3.06944645 L7.83963836,2.86109928 C8.03899817,2.74606157 8.10733895,2.49113292 7.99233119,2.29172119 C7.87732342,2.09230947 7.62246114,2.02395089 7.42310133,2.13898861 L7.06235966,2.34733577 L6.85406673,1.98693961 C6.78020988,1.85696066 6.64235677,1.77654168 6.49288573,1.77619989 C6.34341468,1.7758581 6.20521987,1.85569114 6.13077724,1.9853283 C6.05633461,2.11496545 6.05701801,2.27458272 6.1326322,2.40358511 L6.34092513,2.76442073 L4.4406122,3.86147819 L4.4406122,1.66697265 L4.85714923,1.66697265 C5.08721358,1.66697265 5.27368627,1.48040257 5.27368627,1.25032714 C5.27368627,1.02025172 5.08721358,0.833681637 4.85714923,0.833681637 L4.4406122,0.833681637 L4.4406122,0.416987301 C4.4406122,0.186863045 4.25409069,0.00034179287 4.02407516,0.00034179287 C3.79405963,0.00034179287 3.60753813,0.186863045 3.60753813,0.416987301 L3.60753813,0.833632809 L3.19100109,0.833632809 C2.96093675,0.833632809 2.77446406,1.02015406 2.77446406,1.25027832 C2.77446406,1.48040257 2.96093675,1.66692383 3.19100109,1.66692383 L3.60753813,1.66692383 L3.60753813,3.86147819 L1.7072252,2.76442073 L1.91551812,2.40358511 C1.99113231,2.27458272 1.99181572,2.11496545 1.91737309,1.9853283 C1.84293046,1.85569114 1.70473564,1.7758581 1.5552646,1.77619989 C1.40579356,1.77654168 1.26794045,1.85696066 1.19408359,1.98693961 L0.985790669,2.34733577 L0.625048997,2.13898861 C0.496080188,2.06457542 0.337236697,2.06457542 0.208316703,2.13908626 C0.0793967086,2.21359711 0,2.35119315 0,2.50011719 C0,2.64904122 0.0794943382,2.78663727 0.208463147,2.86105046 L0.569204819,3.06939762 L0.360911894,3.43023324 C0.285297706,3.55923563 0.284614298,3.7188529 0.35905693,3.84849006 C0.433499562,3.97812721 0.571694376,4.05796026 0.721165418,4.05761847 C0.87063646,4.05727667 1.00848957,3.97685769 1.08234642,3.84687875 L1.29063935,3.48604313 L3.19095228,4.58354004 L1.29063935,5.68059749 L1.08234642,5.32020133 C1.00848957,5.19022238 0.87063646,5.1098034 0.721165418,5.10946161 C0.571694376,5.10911982 0.433499562,5.18895286 0.35905693,5.31859002 C0.284614298,5.44822717 0.285297706,5.60784444 0.360911894,5.73684683 L0.569204819,6.097243 L0.208463147,6.30559017 C0.11268843,6.36086296 0.0427855781,6.45192634 0.0141800815,6.55876103 C-0.0144254151,6.66559572 0.000609555823,6.77941274 0.0560143999,6.87516357 C0.171070979,7.07442882 0.425786817,7.14273856 0.625048997,7.02765202 L0.985790669,6.81930485 L1.19408359,7.18014047 C1.3098724,7.37774557 1.56341668,7.4447858 1.76170256,7.33023636 C1.95998844,7.21573575 2.02871974,6.96256489 1.91551812,6.76344613 L1.7072252,6.4022199 L3.60753813,5.30516244 L3.60753813,7.50015625 L3.19100109,7.50015625 C2.96093675,7.50015625 2.77446406,7.6866775 2.77446406,7.91680176 C2.77446406,8.14692601 2.96093675,8.33344726 3.19100109,8.33344726 L3.60753813,8.33344726 L3.60753813,8.75009277 C3.60753813,8.98021703 3.79401082,9.16673828 4.02407516,9.16673828 C4.25413951,9.16673828 4.4406122,8.98021703 4.4406122,8.75009277 L4.4406122,8.33344726 L4.85714923,8.33344726 C5.08721358,8.33344726 5.27368627,8.14692601 5.27368627,7.91680176 C5.27368627,7.6866775 5.08721358,7.50015625 4.85714923,7.50015625 L4.4406122,7.50015625 L4.4406122,5.30516244 L6.34092513,6.4022199 L6.1326322,6.76344613 C6.05701801,6.89244853 6.05633461,7.0520658 6.13077724,7.18170295 C6.20521987,7.3113401 6.34341468,7.39117315 6.49288573,7.39083136 C6.64235677,7.39063605 6.78016106,7.31021707 6.85406673,7.18023812" id="Fill-22" fill="#FC5413"></path>
            </g>
        </g>
    </g>
</svg>