<?xml version="1.0" encoding="UTF-8"?>
<svg width="19px" height="20px" viewBox="0 0 19 20" version="1.1" xmlns="http://www.w3.org/2000/svg" xmlns:xlink="http://www.w3.org/1999/xlink">
    <title>Contact-Info-icon</title>
    <defs>
        <polygon id="path-1" points="0 0 18.125 0 18.125 20 0 20"></polygon>
    </defs>
    <g id="Page-1" stroke="none" stroke-width="1" fill="none" fill-rule="evenodd">
        <g id="Mobile-1" transform="translate(-25.000000, -510.000000)">
            <g id="Contact-Info-icon" transform="translate(25.000000, 510.000000)">
                <mask id="mask-2" fill="white">
                    <use xlink:href="#path-1"></use>
                </mask>
                <g id="Clip-2"></g>
                <path d="M7.43024516,19.1594948 L10.7006351,19.1594948 L10.7006351,15.8440002 L7.43024516,15.8440002 L7.43024516,19.1594948 Z M15.6478279,19.1601308 L15.6478279,0.845238554 L2.47811466,0.845238554 L2.47811466,19.1559234 L6.5900042,19.1559234 L6.5900042,18.9300926 C6.5900042,17.8038254 6.58966534,16.6775583 6.59019784,15.5512421 C6.59034307,15.1461069 6.7355711,15.0003149 7.13877251,15.0001682 C8.42070031,14.9997279 9.7026281,14.9997768 10.9845559,15.0001193 C11.3971971,15.000266 11.5372454,15.1440032 11.5373422,15.5666041 C11.5376326,16.6928713 11.537439,17.8191874 11.537439,18.9454546 L11.537439,19.1601308 L15.6478279,19.1601308 Z M0.328400988,20 C0.0785119627,19.8794526 -0.015595799,19.75005 0.002073611,19.551225 C0.0228896282,19.3164413 0.18472206,19.1748078 0.455911196,19.1711386 C0.84139479,19.1659038 1.2269752,19.1698176 1.64256941,19.1698176 L1.64256941,18.9123823 C1.64256941,12.8134848 1.642521,6.71463613 1.64256941,0.615787481 C1.64256941,0.124497999 1.76393163,0 2.24318412,0 C6.79022524,0 11.337218,0 15.8842591,0 C16.3635116,0 16.4848738,0.124497999 16.4849222,0.615738558 C16.4849222,6.70812931 16.4849222,12.8004711 16.4849222,18.892813 L16.4849222,19.1694263 C16.8062634,19.1694263 17.1133239,19.1692306 17.4203843,19.1694752 C17.516961,19.169573 17.6138281,19.1665398 17.7101143,19.1723127 C17.93241,19.1855221 18.0729907,19.2997095 18.1137029,19.4938378 C18.1574166,19.7019582 18.0740073,19.8621826 17.8680255,19.9658025 C17.8450795,19.9772995 17.8220851,19.9886008 17.7990906,20 L0.328400988,20 Z" id="Fill-1" fill="#FC5413" mask="url(#mask-2)"></path>
                <path d="M8.29783982,12.9492949 L9.82736019,12.9492949 L9.82736019,11.4196725 L8.29783982,11.4196725 L8.29783982,12.9492949 Z M9.0560104,13.749436 C8.70914095,13.749436 8.36231727,13.7507174 8.01549358,13.7491156 C7.6504112,13.7473766 7.50260271,13.6038601 7.5015502,13.2444739 C7.49953671,12.538607 7.49939943,11.8326943 7.50164173,11.1268274 C7.50273999,10.7751754 7.64995358,10.6277689 8.00130763,10.6266248 C8.70717322,10.6243824 9.41303882,10.6245654 10.1188587,10.6265333 C10.4784497,10.6275401 10.6230092,10.7752669 10.6237871,11.1400533 C10.625343,11.8398336 10.6254803,12.5396596 10.6237413,13.2394856 C10.6228261,13.6022584 10.4772142,13.747102 10.1147859,13.7490241 C9.76183024,13.7509462 9.40892032,13.749436 9.0560104,13.749436 L9.0560104,13.749436 Z" id="Fill-3" fill="#FC5413" mask="url(#mask-2)"></path>
                <path d="M8.2975228,4.83432501 L9.8310454,4.83432501 L9.8310454,3.28981236 L8.2975228,3.28981236 L8.2975228,4.83432501 Z M9.05440398,5.6242004 C8.70169287,5.62424628 8.34898175,5.62566865 7.99627064,5.62383333 C7.6491857,5.6220439 7.50386562,5.48269731 7.50240189,5.13990561 C7.49933723,4.42009353 7.49901704,3.70028144 7.50253912,2.98046936 C7.5041858,2.64924017 7.65554374,2.50190994 7.98483532,2.50117582 C8.70242473,2.49956991 9.42001414,2.49966168 10.1376036,2.50112993 C10.4684961,2.50181818 10.6204029,2.64777192 10.6220953,2.97812932 C10.6258461,3.70399796 10.6261663,4.42995837 10.6218666,5.15582701 C10.6199455,5.47861372 10.4719267,5.62085094 10.1490389,5.62346627 C9.78420632,5.62644866 9.41928228,5.62415452 9.05440398,5.6242004 L9.05440398,5.6242004 Z" id="Fill-4" fill="#FC5413" mask="url(#mask-2)"></path>
                <path d="M8.29810926,9.20395345 L9.8305508,9.20395345 L9.8305508,7.66518757 L8.29810926,7.66518757 L8.29810926,9.20395345 Z M9.07242633,6.87582275 C9.43122495,6.87582275 9.79006932,6.8735745 10.1488222,6.87651099 C10.4717593,6.87917218 10.6199169,7.02136246 10.6218381,7.34396326 C10.6261835,8.06982652 10.6258176,8.79578154 10.6221583,9.52164481 C10.6204658,9.85209153 10.4685573,9.99818184 10.1378442,9.99887008 C9.42024692,10.0003383 8.70260394,10.0004301 7.98500669,9.99882419 C7.6555743,9.99809007 7.50416897,9.85094447 7.50252227,9.51976362 C7.49900015,8.79995686 7.49936608,8.08015011 7.50238504,7.36034336 C7.50380304,7.01750832 7.64912471,6.87797923 7.99603047,6.87618981 C8.35482909,6.8743545 8.71362771,6.87577686 9.07242633,6.87582275 L9.07242633,6.87582275 Z" id="Fill-5" fill="#FC5413" mask="url(#mask-2)"></path>
                <path d="M3.91699254,12.9493532 L5.4589687,12.9493532 L5.4589687,11.421274 L3.91699254,11.421274 L3.91699254,12.9493532 Z M3.12600143,12.1876687 C3.12600143,11.8228778 3.1232946,11.4580869 3.12678137,11.0933417 C3.12976347,10.7806377 3.27161977,10.631008 3.58373116,10.6287672 C4.31563077,10.623554 5.04762213,10.624057 5.77956761,10.6284014 C6.10007477,10.6302763 6.24766588,10.7833815 6.24853757,11.1020762 C6.25051035,11.8255759 6.25046447,12.5490755 6.24853757,13.2725752 C6.24766588,13.5913614 6.10016652,13.7446952 5.77993464,13.7466159 C5.04798916,13.7509603 4.31599779,13.7514176 3.58409819,13.74625 C3.27189504,13.7440092 3.12980935,13.594471 3.12682725,13.2820414 C3.1232946,12.9172962 3.12600143,12.5524596 3.12600143,12.1876687 L3.12600143,12.1876687 Z" id="Fill-6" fill="#FC5413" mask="url(#mask-2)"></path>
                <path d="M12.6676421,12.9514238 L14.206158,12.9514238 L14.206158,11.4205066 L12.6676421,11.4205066 L12.6676421,12.9514238 Z M14.9989033,12.1966195 C14.9989033,12.5552967 15.0011511,12.913974 14.9982611,13.2726512 C14.9956463,13.5962564 14.8541715,13.7445925 14.5319997,13.7465588 C13.8001289,13.7509485 13.0682581,13.7514515 12.3363873,13.7462387 C12.0258675,13.7439981 11.8778327,13.5898089 11.8768235,13.2820251 C11.8743922,12.5525531 11.8743922,11.8229897 11.8768235,11.0935177 C11.8778327,10.785551 12.0256381,10.6312247 12.3361121,10.6290298 C13.0740382,10.6238627 13.8120561,10.623314 14.5499822,10.6294413 C14.8521989,10.6319563 14.9945453,10.7828531 14.9978941,11.0840981 C15.0019769,11.4548928 14.9988575,11.825779 14.9989033,12.1966195 L14.9989033,12.1966195 Z" id="Fill-7" fill="#FC5413" mask="url(#mask-2)"></path>
                <path d="M3.91763835,4.83179296 L5.46139653,4.83179296 L5.46139653,3.29399847 L3.91763835,3.29399847 L3.91763835,4.83179296 Z M3.12589219,4.07599397 C3.12584631,3.71011458 3.12368984,3.3442352 3.12648866,2.97840169 C3.12905807,2.64174678 3.27060518,2.50181799 3.6083453,2.50112982 C4.32791849,2.49966171 5.04753756,2.49956996 5.76711076,2.5011757 C6.09847322,2.50190975 6.24804975,2.65087656 6.24878386,2.98129203 C6.25048151,3.70080129 6.25029798,4.42035643 6.24887563,5.13986569 C6.24823328,5.47858513 6.10898029,5.62190891 5.77312135,5.62310175 C5.04739992,5.62562505 4.32172437,5.62567093 3.59600294,5.62300999 C3.268724,5.62177128 3.12947101,5.48165897 3.12662631,5.1552808 C3.12346042,4.79554911 3.12589219,4.43577154 3.12589219,4.07599397 L3.12589219,4.07599397 Z" id="Fill-8" fill="#FC5413" mask="url(#mask-2)"></path>
                <path d="M12.6661172,4.83628114 L14.2048704,4.83628114 L14.2048704,3.29134521 L12.6661172,3.29134521 L12.6661172,4.83628114 Z M14.9989754,4.06596924 C14.9989295,4.43176647 15.001774,4.79765544 14.9980578,5.16345267 C14.9948922,5.48099072 14.8563861,5.62122676 14.5389552,5.62260297 C13.8071986,5.62581413 13.0754421,5.62572238 12.3437314,5.62278646 C12.0186388,5.621502 11.8772423,5.4764951 11.8764165,5.1497823 C11.8745814,4.4241973 11.8744438,3.69865818 11.8765083,2.97307318 C11.8774259,2.65259921 12.0275851,2.50240858 12.348044,2.5014911 C13.0736987,2.49942678 13.7993535,2.49961028 14.5249623,2.50139935 C14.85189,2.50222508 14.9951675,2.64337859 14.9982414,2.96843993 C15.0016822,3.33423716 14.9990213,3.70012614 14.9989754,4.06596924 L14.9989754,4.06596924 Z" id="Fill-9" fill="#FC5413" mask="url(#mask-2)"></path>
                <path d="M3.91633878,9.20646031 L5.45749148,9.20646031 L5.45749148,7.66114179 L3.91633878,7.66114179 L3.91633878,9.20646031 Z M3.12587229,8.4242813 C3.12587229,8.06450373 3.12348639,7.70472616 3.12660641,7.34499447 C3.12945114,7.01852454 3.26865913,6.87822872 3.59571074,6.87699001 C4.32143679,6.87432907 5.04711696,6.87437495 5.77284301,6.87689825 C6.10884174,6.87804521 6.24823326,7.02132312 6.24887562,7.35985904 C6.25029798,8.0793683 6.25048152,8.79892344 6.24878386,9.5184327 C6.24804973,9.8489858 6.09856402,9.99809025 5.76738298,9.9988243 C5.0478052,10.00043 4.32818154,10.0003383 3.60860377,9.99887018 C3.27067797,9.99822789 3.1290382,9.85834497 3.12646877,9.52187358 C3.12362404,9.15604007 3.12582641,8.79016069 3.12587229,8.4242813 L3.12587229,8.4242813 Z" id="Fill-10" fill="#FC5413" mask="url(#mask-2)"></path>
                <path d="M12.6647578,9.20465553 L14.2064586,9.20465553 L14.2064586,7.66887356 L12.6647578,7.66887356 L12.6647578,9.20465553 Z M13.4373281,6.87628144 C13.8030893,6.87623557 14.1688506,6.87362097 14.5345659,6.87701537 C14.8523999,6.87995106 14.9959525,7.01870858 14.9974202,7.33232351 C15.0008141,8.07000893 15.0009517,8.80769435 14.9972826,9.54537978 C14.995815,9.84793997 14.8468962,9.99651373 14.5469949,9.99775222 C13.8094185,10.0008255 13.0717961,10.000642 12.3342197,9.99784396 C12.0343184,9.99669721 11.8790246,9.84505015 11.8776487,9.54891179 C11.874209,8.80512562 11.8739796,8.06133945 11.8777863,7.31755329 C11.8792539,7.02907526 12.0299155,6.88146478 12.3218365,6.87756581 C12.6936059,6.87261182 13.0655128,6.87637318 13.4373281,6.87628144 L13.4373281,6.87628144 Z" id="Fill-11" fill="#FC5413" mask="url(#mask-2)"></path>
            </g>
        </g>
    </g>
</svg>