<?xml version="1.0" encoding="UTF-8"?>
<svg width="14px" height="10px" viewBox="0 0 14 10" version="1.1" xmlns="http://www.w3.org/2000/svg" xmlns:xlink="http://www.w3.org/1999/xlink">
    <title>Group 3</title>
    <defs>
        <polygon id="path-1" points="0 0 13.8461538 0 13.8461538 10 0 10"></polygon>
    </defs>
    <g id="Page-1" stroke="none" stroke-width="1" fill="none" fill-rule="evenodd">
        <g id="Mobile-1" transform="translate(-24.000000, -608.000000)">
            <g id="Group-3" transform="translate(24.000000, 608.000000)">
                <mask id="mask-2" fill="white">
                    <use xlink:href="#path-1"></use>
                </mask>
                <g id="Clip-2"></g>
                <path d="M13.0297015,1.42910323 C11.8656635,2.64366234 10.7206591,3.83835798 9.61768476,4.98922179 C10.732479,6.15643556 11.8746046,7.35224439 13.0297015,8.561655 L13.0297015,1.42910323 Z M0.821593923,1.42252846 L0.821593923,8.58297953 C1.98800275,7.36243703 3.13124597,6.1661064 4.24790293,4.99760549 C3.12853654,3.82966119 1.9855304,2.63701799 0.821593923,1.42252846 L0.821593923,1.42252846 Z M1.48059459,9.15512405 L12.3687704,9.15512405 C11.2513006,7.98415326 10.1107668,6.78900539 8.95387486,5.57674223 C8.75689943,5.78303012 8.57567255,5.97481177 8.392312,6.16443661 C8.0189528,6.55064373 7.57094885,6.77495137 7.03888489,6.803616 C6.41852744,6.83701168 5.89269517,6.61395637 5.45559667,6.16506278 C5.27152489,5.97606411 5.09080603,5.78365629 4.89423702,5.57782063 C3.73775147,6.78973592 2.59718381,7.98498815 1.48059459,9.15512405 L1.48059459,9.15512405 Z M1.40029391,0.836538649 C1.43456818,0.875848147 1.45072315,0.896337787 1.46877471,0.914809772 C2.98927194,2.4686829 4.5080419,4.02433017 6.03158723,5.57503766 C6.56368506,6.11660426 7.29079398,6.11065565 7.82509321,5.56606257 C9.3379363,4.0239823 10.8478329,2.47887554 12.3585762,0.934638457 C12.3843835,0.908269785 12.4061605,0.877726654 12.4402654,0.836538649 L1.40029391,0.836538649 Z M13.8461538,8.88858478 C13.7670047,9.08704556 13.7158304,9.30456971 13.6027456,9.4799666 C13.3793871,9.82644677 13.036509,9.97975381 12.6357507,9.99874761 C12.608758,10 12.5816976,9.99954771 12.554671,9.99954771 C8.80167273,9.9995825 5.04870829,9.99926941 1.29570999,10 C0.869279859,10.0001043 0.513294865,9.85041513 0.249024014,9.49749933 C0.077855889,9.26884329 0.0019580322,9.00581753 0.00178869294,8.72118894 C0.000433978852,6.24075965 -0.0018690351,3.76029558 0.0027369928,1.27986629 C0.00415944259,0.529333187 0.538898961,0.00182060423 1.28131615,0.00095092508 C2.83568123,-0.00082322038 4.3900463,0.000429117592 5.94441138,0.000429117592 C8.14751517,0.000429117592 10.3506528,0.000289968928 12.5537905,0.000498691923 C13.0824338,0.000568266255 13.4840726,0.225571655 13.7224684,0.718610157 C13.7813985,0.840504386 13.8058511,0.980000921 13.8461538,1.11142683 L13.8461538,8.88858478 Z" id="Fill-1" fill="#FC5413" mask="url(#mask-2)"></path>
            </g>
        </g>
    </g>
</svg>