<?xml version="1.0" encoding="UTF-8"?>
<svg width="26px" height="25px" viewBox="0 0 26 25" version="1.1" xmlns="http://www.w3.org/2000/svg" xmlns:xlink="http://www.w3.org/1999/xlink">
    <title>FAQ-Icon</title>
    <defs>
        <polygon id="path-1" points="1.73841591e-15 0 15.4202809 0 15.4202809 15.9272034 1.73841591e-15 15.9272034"></polygon>
        <polygon id="path-3" points="0 0 17.3900175 0 17.3900175 16.5030711 0 16.5030711"></polygon>
    </defs>
    <g id="Page-1" stroke="none" stroke-width="1" fill="none" fill-rule="evenodd">
        <g id="Mobile-1" transform="translate(-36.000000, -740.000000)">
            <g id="FAQ-Icon" transform="translate(36.000000, 740.000000)">
                <g id="Group-3" transform="translate(9.585346, 0.000000)">
                    <mask id="mask-2" fill="white">
                        <use xlink:href="#path-1"></use>
                    </mask>
                    <g id="Clip-2"></g>
                    <path d="M11.8063977,14.2699398 C11.8063977,13.77646 11.8419346,13.3502006 11.7977123,12.9324432 C11.7382598,12.3711313 11.9536832,12.0087894 12.3822669,11.6471815 C13.5552294,10.6575918 14.2111025,9.35795635 14.3916618,7.83775965 C14.590693,6.16134734 14.1666967,4.63962151 13.1192448,3.31325692 C12.148127,2.08341081 10.8795022,1.32618721 9.32756081,1.072291 C8.35008179,0.9124055 7.36465131,0.947636582 6.38276841,1.02684535 C5.75503127,1.07749003 5.15004754,1.24869107 4.58182402,1.52063098 C2.59995335,2.46924009 1.3703519,4.01769506 1.05094789,6.19725124 C0.713867178,8.49718029 1.50161214,10.409017 3.29136332,11.8838903 C4.30560255,12.7197722 5.49348942,13.1534937 6.81257537,13.2015695 C7.87752045,13.2403482 8.94534028,13.2911152 9.98539117,12.9845558 C10.2880359,12.895316 10.5171603,12.9614966 10.7310546,13.1872569 C11.0651994,13.5399958 11.4151859,13.8777494 11.8063977,14.2699398 L11.8063977,14.2699398 Z M15.420336,7.66735375 C15.348834,8.05770925 15.299535,8.45369192 15.2019767,8.83744159 C14.8433047,10.248214 14.1124433,11.4384251 13.0191788,12.3993896 C12.8453476,12.5521799 12.7727447,12.7043586 12.7772709,12.938315 C12.7926233,13.7356017 12.7804515,14.5333778 12.7846719,15.3309703 C12.7860175,15.5785054 12.7258922,15.7877511 12.4790912,15.8884288 C12.2332687,15.9886783 12.0398648,15.8823734 11.8669511,15.7087258 C11.3385461,15.17818 10.8051255,14.6527108 10.2801457,14.1188621 C10.1734738,14.0104164 10.0820931,13.9696193 9.92245231,14.0077863 C8.88968006,14.254832 7.83929228,14.2153194 6.78963847,14.178131 C5.49881078,14.1323796 4.30768217,13.7590891 3.23429631,13.0470054 C1.49090826,11.8903738 0.401558319,10.2817936 0.0923077133,8.20585105 C-0.291747776,5.62811024 0.526824387,3.4544259 2.46942708,1.72437183 C3.56935858,0.744813202 4.88067656,0.207294547 6.34435674,0.0425770068 C6.42374901,0.0336469063 6.5020403,0.0144410736 6.58088208,-5.50485651e-05 L8.82735285,-5.50485651e-05 C8.90613347,0.0144410736 8.98528107,0.0272857388 9.06369469,0.043555648 C9.54017061,0.142520735 10.0342621,0.191330463 10.4899418,0.350176155 C12.978504,1.21761921 14.5708755,2.92981308 15.2242408,5.49207912 C15.3161107,5.85228023 15.356235,6.22563184 15.420336,6.59292809 L15.420336,7.66735375 Z" id="Fill-1" fill="#FC5413" mask="url(#mask-2)"></path>
                </g>
                <g id="Group-6" transform="translate(0.000000, 8.496929)">
                    <mask id="mask-4" fill="white">
                        <use xlink:href="#path-3"></use>
                    </mask>
                    <g id="Clip-5"></g>
                    <path d="M8.20649328,14.8214659 C8.20649328,14.5464677 8.20643212,14.3276191 8.20649328,14.1087704 C8.20667678,13.5247052 8.34692829,13.3819459 8.92175764,13.3818847 C10.557801,13.3818236 12.1938443,13.3825575 13.8298265,13.3817012 C15.353999,13.3809061 16.408913,12.328561 16.4101974,10.8080585 C16.4111149,9.78250372 16.4094023,8.75694895 16.4119101,7.73139418 C16.4121547,7.62680191 16.4166809,7.51707177 16.4478751,7.41884066 C16.5173586,7.20023669 16.6853791,7.08585801 16.9091821,7.08983374 C17.1219142,7.09362597 17.2805764,7.20763767 17.349326,7.41535425 C17.3767279,7.49835526 17.3854134,7.59089801 17.3855968,7.67909805 C17.38786,8.7615975 17.3945269,9.84421928 17.3851687,10.9267187 C17.3708561,12.5750563 16.2898857,13.9157335 14.6817337,14.2745278 C14.4067967,14.3358764 14.1174859,14.3534919 13.8345974,14.355021 C12.3858415,14.362789 10.9369633,14.3586298 9.48814621,14.3586298 C9.3990287,14.3586298 9.30997235,14.3586298 9.18268784,14.3586298 C9.18268784,14.6322211 9.18268784,14.8970659 9.18268784,15.1619107 C9.18268784,15.4061428 9.17779463,15.6504361 9.18391114,15.8944236 C9.19002765,16.1401848 9.1328383,16.350715 8.88848384,16.4586102 C8.63000024,16.5727442 8.43476133,16.4514539 8.25726029,16.2735858 C7.67643677,15.6918448 7.09041421,15.1151805 6.51613535,14.5270172 C6.39062462,14.3984482 6.26462457,14.3533696 6.08926431,14.355021 C5.23472708,14.3629725 4.38000636,14.3601589 3.52540797,14.3582628 C1.48598097,14.3538589 0.00370660338,12.8689544 0.00181048614,10.8250624 C-0.000452621535,8.39136531 -0.000819611969,5.95766825 0.00193281628,3.52397119 C0.00425708903,1.48491117 1.49124116,0.00373778363 3.53556137,0.00104652045 C5.08205906,-0.001033092 6.62855675,0.000618364947 8.17505444,0.00067953002 C8.23199912,0.00067953002 8.28931079,-0.00182823794 8.34588848,0.00294263769 C8.63122355,0.0267970159 8.83306828,0.225338841 8.83679935,0.483210785 C8.84053042,0.740409914 8.64027598,0.947209024 8.35732635,0.97393816 C8.28466225,0.980849814 8.21095833,0.977241074 8.13774374,0.977241074 C6.59938101,0.97742457 5.06101828,0.975895443 3.52265554,0.97779156 C2.04778215,0.979626512 0.979962322,2.04285896 0.978616691,3.51381779 C0.976414748,5.9556498 0.976598243,8.39748182 0.978555526,10.8393138 C0.979717662,12.3136367 2.04411225,13.3785206 3.51653904,13.3815177 C4.48508796,13.383475 5.45375921,13.3864109 6.42230813,13.3788876 C6.68519561,13.376808 6.87009762,13.4588916 7.0522472,13.6655072 C7.39966482,14.0594714 7.79313973,14.4127609 8.20649328,14.8214659" id="Fill-4" fill="#FC5413" mask="url(#mask-4)"></path>
                </g>
                <path d="M8.30351332,15.1393463 C9.94750813,15.1393463 11.5915029,15.1392239 13.2354978,15.1396521 C13.3167861,15.1396521 13.3991755,15.136288 13.4791182,15.1480317 C13.7337484,15.1855259 13.9158369,15.3890221 13.9158369,15.6276882 C13.9158369,15.8664155 13.7337484,16.0699117 13.4791182,16.1073447 C13.3992367,16.1190884 13.3167861,16.1157855 13.2354978,16.1157855 C9.93123823,16.1161525 6.62697869,16.1160913 3.32271915,16.1160913 C3.30644925,16.1160913 3.29017934,16.1161525 3.27384826,16.1160301 C2.87780442,16.1138282 2.64238006,15.9317398 2.64238006,15.6276882 C2.64238006,15.3236978 2.87780442,15.1398356 3.27384826,15.1396521 C4.95044406,15.1389181 6.62697869,15.1393463 8.30351332,15.1393463" id="Fill-7" fill="#FC5413"></path>
                <path d="M7.35295305,17.8742201 C8.67895065,17.8742201 10.0049483,17.8737308 11.3309459,17.8751376 C11.4278925,17.87526 11.5276527,17.8767279 11.6211741,17.8986862 C11.8451606,17.9512881 11.9879811,18.1343552 11.9923238,18.3542436 C11.9967888,18.5809826 11.8468732,18.776405 11.6137732,18.8287623 C11.5200071,18.849803 11.4202469,18.8500477 11.3232391,18.8501089 C8.65497394,18.8511487 5.98670883,18.850904 3.31844372,18.850904 C3.2859039,18.850904 3.25330291,18.8514545 3.22082426,18.8507817 C2.86808529,18.8437477 2.63957258,18.6492428 2.64236048,18.3587087 C2.64519977,18.0686639 2.87303966,17.8756269 3.22853106,17.8750765 C4.60333839,17.8729968 5.97814572,17.8742201 7.35295305,17.8742201" id="Fill-9" fill="#FC5413"></path>
                <path d="M6.66727424,13.3812235 C5.5523573,13.3812235 4.4373792,13.3813977 3.32246226,13.3809177 C3.24117388,13.3808566 3.15872336,13.3842818 3.07884178,13.3724158 C2.82408925,13.3347381 2.64224549,13.1312419 2.64236776,12.8926369 C2.64249015,12.6539097 2.82439508,12.4507193 3.07926993,12.4132251 C3.15921268,12.4014203 3.24160204,12.4047843 3.32289042,12.4047843 C5.56905537,12.4044173 7.81522032,12.4044785 10.0613853,12.4044785 C10.0776552,12.4044785 10.0939251,12.4044173 10.110195,12.4045397 C10.5061165,12.4067416 10.741602,12.5890135 10.7414186,12.8930651 C10.741235,13.1971167 10.5058718,13.3806119 10.1097668,13.3809177 C8.96224892,13.381774 7.81479216,13.3812235 6.66727424,13.3812235" id="Fill-11" fill="#FC5413"></path>
                <path d="M13.4204181,18.8468488 C13.1649928,18.8397536 12.9400276,18.6043904 12.9470616,18.3515952 C12.9542179,18.0961698 13.18952,17.8712047 13.4423152,17.8782999 C13.6977406,17.885395 13.9227057,18.1207582 13.9156717,18.3734923 C13.9085154,18.6289176 13.6731522,18.8538828 13.4204181,18.8468488" id="Fill-13" fill="#FC5413"></path>
                <path d="M16.9440768,7.99413427 C16.9440768,7.80703031 16.9387554,7.61974286 16.9451777,7.4328224 C16.9590011,7.02876593 17.1845167,6.72538717 17.5669207,6.58721528 C17.6356091,6.56238226 17.7061936,6.54280943 17.7751266,6.51858807 C18.2974763,6.335521 18.6014667,5.81494507 18.4968745,5.28372642 C18.3960133,4.77159127 17.9337276,4.39377462 17.4166381,4.40093093 C16.8684767,4.4085154 16.4279047,4.80284662 16.3530998,5.35192548 C16.3432523,5.42440609 16.3319367,5.4968867 16.3169513,5.56838867 C16.2599454,5.84038974 16.0595687,5.98981602 15.790687,5.96308688 C15.546883,5.93886551 15.3743975,5.74264796 15.3662626,5.48049446 C15.3402062,4.64192132 15.9825618,3.75967631 16.7907359,3.52388496 C18.2097656,3.10991975 19.5246312,4.12409782 19.4851185,5.60209062 C19.4643224,6.37907054 18.9162834,7.15433783 18.1720268,7.40523695 C17.956848,7.47777873 17.9005762,7.57613217 17.914583,7.78409341 C17.9320762,8.04324982 17.924981,8.30466934 17.9168461,8.56474323 C17.9062645,8.90053948 17.702646,9.12207937 17.4218983,9.11905238 C17.1388875,9.11596286 16.9488477,8.89460646 16.9427311,8.5555073 C16.9393059,8.36840335 16.9421195,8.18123823 16.9421195,7.99413427 L16.9440768,7.99413427 Z" id="Fill-15" fill="#FC5413"></path>
                <path d="M17.4289874,10.0826768 C17.6875933,10.0843283 17.9145157,10.3114954 17.9130548,10.5671654 C17.9115798,10.8243033 17.6855137,11.0448034 17.4242165,11.0437673 C17.1575979,11.0426626 16.9443765,10.8281567 16.9456552,10.5623333 C16.9469454,10.2990789 17.1667115,10.0809642 17.4289874,10.0826768" id="Fill-17" fill="#FC5413"></path>
            </g>
        </g>
    </g>
</svg>