<?xml version="1.0" encoding="UTF-8"?>
<svg width="15px" height="20px" viewBox="0 0 15 20" version="1.1" xmlns="http://www.w3.org/2000/svg" xmlns:xlink="http://www.w3.org/1999/xlink">
    <title>Gate-Access-Icon</title>
    <defs>
        <polygon id="path-1" points="0 0 14.9932349 0 14.9932349 20 0 20"></polygon>
    </defs>
    <g id="Page-1" stroke="none" stroke-width="1" fill="none" fill-rule="evenodd">
        <g id="Mobile-1" transform="translate(-298.000000, -509.000000)">
            <g id="Gate-Access-Icon" transform="translate(298.000000, 509.000000)">
                <g id="Group-3">
                    <mask id="mask-2" fill="white">
                        <use xlink:href="#path-1"></use>
                    </mask>
                    <g id="Clip-2"></g>
                    <path d="M13.4044011,19.3260568 C9.46637719,19.326213 5.52830119,19.326213 1.59027728,19.3260568 C0.97876639,19.3260568 0.679599489,19.0280357 0.679495323,18.4163686 C0.679104697,15.4742308 0.679104697,12.5320931 0.679495323,9.58995541 C0.679599489,8.97563201 0.977203888,8.67693386 1.58699603,8.67688178 C3.55918507,8.67656928 5.53137411,8.67667904 7.50356315,8.67667904 C9.46924177,8.67667904 11.4349204,8.67656928 13.4005469,8.6768297 C14.0125266,8.67693386 14.3117456,8.97427784 14.3119018,9.58636166 C14.3125268,12.5284994 14.3123575,15.4706371 14.3119539,18.4127748 C14.3118497,19.0265253 14.0135162,19.3260047 13.4044011,19.3260568 M4.4497066,5.62323356 C4.45616494,4.06943026 5.6175721,2.73583547 7.09736492,2.57937702 C8.74012662,2.40562688 10.1458569,3.41250267 10.4806488,5.00536849 C10.5086697,5.13854568 10.5341905,5.2753687 10.5351801,5.41068131 C10.5412218,6.25010905 10.5400239,7.08964096 10.5404926,7.92912078 C10.5404926,7.94719371 10.5319509,7.96531872 10.5233051,7.99974583 L4.44913368,7.99974583 L4.44913368,7.80984985 C4.44913368,7.08094303 4.44668577,6.3520883 4.4497066,5.62323356 M2.62454893,5.04776436 C2.86965328,2.97291899 4.04361253,1.5609908 6.02142658,0.913906964 C8.90668925,-0.0301562736 11.9310145,1.88911606 12.3627336,4.89364966 C12.429817,5.36062919 12.4095045,5.84109831 12.4164837,6.31552577 C12.4246607,6.86792203 12.4184107,7.42047455 12.4184107,7.99354791 L11.2246077,7.99354791 C11.2211702,7.91886035 11.2152848,7.85000613 11.2152327,7.78109983 C11.2145036,7.06521385 11.2187223,6.34937996 11.2138786,5.63354607 C11.2011702,3.76521127 9.96189841,2.28166845 8.12528239,1.93057442 C6.13710375,1.55052204 4.0866334,3.00656485 3.8306957,5.0153685 C3.75470606,5.61187938 3.78829983,6.22276528 3.77803941,6.82714075 C3.77152899,7.20953688 3.77678941,7.59219343 3.77678941,7.98787082 L2.59970516,7.98787082 C2.5914239,7.97380831 2.57960097,7.96307914 2.57965306,7.95245413 C2.58814265,6.98349504 2.51158009,6.00443177 2.62454893,5.04776436 M14.9895065,9.4537053 C14.9704961,8.63266299 14.3505477,8.0195896 13.5305991,8.00557917 C13.3900782,8.00318334 13.2495051,8.00526667 13.0923175,8.00526667 C13.0923175,7.90656868 13.0924217,7.83620404 13.0923175,7.7658394 C13.0911717,7.00427631 13.1027863,6.24240071 13.0865883,5.48115012 C13.0319008,2.91172102 11.2679932,0.739010994 8.76528289,0.149791784 C8.50122018,0.0876042351 8.23153247,0.0493229552 7.96444893,0 L7.0269482,0 C6.88090642,0.0251562697 6.7352813,0.052916708 6.58877077,0.0751563087 C4.00408125,0.468021199 1.96522549,2.77323133 1.90689211,5.38323337 C1.88913168,6.17698399 1.90090253,6.97146378 1.89913169,7.76557898 C1.89897544,7.84104779 1.89913169,7.9165166 1.89913169,8.00703751 C1.71371488,8.00703751 1.55803768,8.00313125 1.4025688,8.00771459 C0.722151606,8.02781877 0.142828237,8.53120458 0.0304323154,9.20198636 C0.0112135504,9.3168302 0.00142187611,9.43464279 0.00136979274,9.55110121 C-0.000192708484,12.5194369 -0.000348958606,15.4877204 0.000484375378,18.4560561 C0.000692708875,19.1409004 0.34324506,19.670432 0.93168302,19.899078 C1.03397477,19.9388697 1.14090193,19.9666823 1.24569368,20.0000156 L13.7457034,20.0000156 C14.7117459,19.6702758 14.9913294,19.275588 14.9913294,18.2413163 C14.9913294,15.6245435 14.9913294,13.0077706 14.9912773,10.3909977 C14.9912773,10.0785495 14.996694,9.76599721 14.9895065,9.4537053" id="Fill-1" fill="#FC5413" mask="url(#mask-2)"></path>
                </g>
                <path d="M8.13429802,13.9699067 C7.94934996,14.1027714 7.89570409,14.2533445 7.94559996,14.4724592 C8.0579438,14.9657409 8.15461054,15.4625642 8.2609127,15.9736062 L6.73085943,15.9736062 C6.83627617,15.4654808 6.93184917,14.9693346 7.04460967,14.4771467 C7.09471388,14.2585007 7.04429717,14.1066777 6.86138036,13.9718859 C6.44065087,13.6618336 6.30065076,13.1515728 6.49169257,12.6890724 C6.68429689,12.2227179 7.16523476,11.9566239 7.67809975,12.0327177 C8.1469022,12.102249 8.53060041,12.5055827 8.57539212,13.0053747 C8.61106923,13.403448 8.45971494,13.7361566 8.13429802,13.9699067 M9.23841347,12.8647496 C9.13070505,12.0937594 8.54685043,11.4927173 7.81783944,11.3698005 C7.04127633,11.2388109 6.28877575,11.6057382 5.93450464,12.2881346 C5.57575436,12.9791247 5.70497321,13.7796462 6.25940072,14.3576675 C6.30632784,14.4066258 6.33726537,14.5054801 6.32466119,14.5714176 C6.22216111,15.1073556 6.10762977,15.6410018 5.99653593,16.1753251 C5.93033797,16.4936066 6.06164015,16.6613672 6.39075499,16.6654818 C6.75507819,16.670013 7.11945348,16.6665234 7.48382876,16.6664714 C7.86117281,16.6664193 8.23862102,16.6710547 8.6158609,16.6649609 C8.92966323,16.6599609 9.05971541,16.4874087 8.99549661,16.1791272 C8.88554861,15.6512622 8.77898603,15.1225639 8.66263177,14.5961052 C8.63867342,14.4875634 8.65898593,14.42048 8.73763183,14.3413654 C9.14419464,13.9326151 9.31794478,13.4335522 9.23841347,12.8647496" id="Fill-4" fill="#FC5413"></path>
            </g>
        </g>
    </g>
</svg>