<?xml version="1.0" encoding="UTF-8"?>
<svg width="60px" height="60px" viewBox="0 0 60 60" version="1.1" xmlns="http://www.w3.org/2000/svg" xmlns:xlink="http://www.w3.org/1999/xlink">
    <title>Group 9</title>
    <g id="Page-1" stroke="none" stroke-width="1" fill="none" fill-rule="evenodd">
        <g id="Artboard" transform="translate(-209.000000, -1060.000000)" fill="#FC5413">
            <g id="Group-9" transform="translate(209.000000, 1060.000000)">
                <path d="M58,58 L4,58 L4,56 L55,56 C55.55225,56 56,55.55225 56,55 L56,8 L58,8 L58,58 Z M8,6 L8,7 C8.001875,8.656 9.344,9.998125 11,10 C11.55225,10 12,9.55225 12,9 C12,8.44775 11.55225,8 11,8 C10.448,7.999375 10.000625,7.552 10,7 L10,6 L16,6 L16,7 C16.001875,8.656 17.344,9.998125 19,10 C19.55225,10 20,9.55225 20,9 C20,8.44775 19.55225,8 19,8 C18.448,7.999375 18.000625,7.552 18,7 L18,6 L34,6 L34,7 C34.001875,8.656 35.344,9.998125 37,10 C37.55225,10 38,9.55225 38,9 C38,8.44775 37.55225,8 37,8 C36.448,7.999375 36.000625,7.552 36,7 L36,6 L42,6 L42,7 C42.001875,8.656 43.344,9.998125 45,10 C45.55225,10 46,9.55225 46,9 C46,8.44775 45.55225,8 45,8 C44.448,7.999375 44.000625,7.552 44,7 L44,6 L54,6 L54,16 L2,16 L2,6 L8,6 Z M10,3 C10,2.44775 10.44775,2 11,2 C11.55225,2 12,2.44775 12,3 L12,4 L10,4 L10,3 Z M18,3 C18,2.44775 18.44775,2 19,2 C19.55225,2 20,2.44775 20,3 L20,4 L18,4 L18,3 Z M36,3 C36,2.44775 36.44775,2 37,2 C37.55225,2 38,2.44775 38,3 L38,4 L36,4 L36,3 Z M44,3 C44,2.44775 44.44775,2 45,2 C45.55225,2 46,2.44775 46,3 L46,4 L44,4 L44,3 Z M2,54 L54,54 L54,18 L2,18 L2,54 Z M59,6 L56,6 L56,5 C56,4.44775 55.55225,4 55,4 L48,4 L48,3 C48,1.343125 46.656875,0 45,0 C43.343125,0 42,1.343125 42,3 L42,4 L40,4 L40,3 C40,1.343125 38.656875,0 37,0 C35.343125,0 34,1.343125 34,3 L34,4 L22,4 L22,3 C22,1.343125 20.656875,0 19,0 C17.343125,0 16,1.343125 16,3 L16,4 L14,4 L14,3 C14,1.343125 12.656875,0 11,0 C9.343125,0 8,1.343125 8,3 L8,4 L1,4 C0.44775,4 0,4.44775 0,5 L0,55 C0,55.55225 0.44775,56 1,56 L2,56 L2,59 C2,59.55225 2.44775,60 3,60 L59,60 C59.55225,60 60,59.55225 60,59 L60,7 C60,6.44775 59.55225,6 59,6 L59,6 Z" id="Fill-1"></path>
                <path d="M20.4545455,40.4134046 C20.4539063,38.4183415 19.4222301,36.5564149 17.7068608,35.4548782 C20.5315057,33.6396856 21.3037926,29.9479387 19.4318182,27.2089727 C17.5598438,24.4700067 13.7526137,23.7211452 10.9279688,25.5363378 C9.21272732,26.6384942 8.18156255,28.5010407 8.18181818,30.4963518 C8.18181818,31.044021 8.63974436,31.4880571 9.2045455,31.4880571 C9.76934663,31.4880571 10.2272728,31.044021 10.2272728,30.4963518 C10.2272728,28.3055508 12.0588495,26.5295306 14.3181818,26.5295306 C16.5775142,26.5295306 18.4090909,28.3055508 18.4090909,30.4963518 C18.4090909,32.6871527 16.5775142,34.4631729 14.3181818,34.4631729 C13.7533807,34.4631729 13.2954546,34.907209 13.2954546,35.4548782 C13.2954546,36.0025475 13.7533807,36.4465835 14.3181818,36.4465835 C16.5775142,36.4465835 18.4090909,38.2226037 18.4090909,40.4134046 C18.4090909,42.6042056 16.5775142,44.3802258 14.3181818,44.3802258 C12.0588495,44.3802258 10.2272728,42.6042056 10.2272728,40.4134046 C10.2272728,39.8657354 9.76934663,39.4216994 9.2045455,39.4216994 C8.63974436,39.4216994 8.18181818,39.8657354 8.18181818,40.4134046 C8.18181818,43.699668 10.9291194,46.3636364 14.3181818,46.3636364 C17.7072443,46.3636364 20.4545455,43.699668 20.4545455,40.4134046" id="Fill-3"></path>
                <path d="M41.5909091,34.4628099 L38.5227273,34.4628099 L38.5227273,26.5289256 L45.6818182,26.5289256 C46.2466193,26.5289256 46.7045455,26.084876 46.7045455,25.5371901 C46.7045455,24.9895041 46.2466193,24.5454545 45.6818182,24.5454545 L37.5,24.5454545 C36.9351989,24.5454545 36.4772727,24.9895041 36.4772727,25.5371901 L36.4772727,35.4545455 C36.4772727,36.0022314 36.9351989,36.446281 37.5,36.446281 L41.5909091,36.446281 C43.8502415,36.446281 45.6818182,38.2223554 45.6818182,40.4132231 C45.6818182,42.6040909 43.8502415,44.3801653 41.5909091,44.3801653 C39.3315767,44.3801653 37.5,42.6040909 37.5,40.4132231 C37.5,39.8655372 37.0420739,39.4214876 36.4772727,39.4214876 C35.9124716,39.4214876 35.4545455,39.8655372 35.4545455,40.4132231 C35.4545455,43.6995868 38.2018466,46.3636364 41.5909091,46.3636364 C44.9799716,46.3636364 47.7272727,43.6995868 47.7272727,40.4132231 C47.7272727,37.1268595 44.9799716,34.4628099 41.5909091,34.4628099" id="Fill-5"></path>
                <path d="M27.9457371,36.4369536 C30.201824,36.4369536 32.0307697,38.2116359 32.0307697,40.4007866 C32.0307697,42.5899372 30.201824,44.3646196 27.9457371,44.3646196 C25.6896502,44.3646196 23.8607045,42.5899372 23.8607045,40.4007866 C23.8632577,38.2126269 25.6906715,36.439431 27.9457371,36.4369536 M27.9457371,26.5273711 C30.2008027,26.5298484 32.0282165,28.3030444 32.0307697,30.4912041 C32.0307697,31.0384608 32.488038,31.4821623 33.0520278,31.4821623 C33.6160176,31.4821623 34.073286,31.0384608 34.073286,30.4912041 C34.073286,27.2074162 31.3299313,24.5454545 27.9457371,24.5454545 C24.5615429,24.5454545 21.8181818,27.2074162 21.8181818,30.4912041 L21.8181818,40.4007866 C21.8133373,43.6892815 24.556692,46.3589231 27.9457371,46.3636364 C31.3347823,46.3683372 34.0860517,43.7063756 34.0909091,40.4178806 C34.0957536,37.1293857 31.352399,34.4597441 27.9633538,34.4550371 C26.4495939,34.4529313 24.9884288,34.9938706 23.8607045,35.9738045 L23.8607045,30.4912041 C23.8632577,28.3030444 25.6906715,26.5298484 27.9457371,26.5273711" id="Fill-7"></path>
            </g>
        </g>
    </g>
</svg>