<?xml version="1.0" encoding="UTF-8"?>
<svg width="23px" height="30px" viewBox="0 0 23 30" version="1.1" xmlns="http://www.w3.org/2000/svg" xmlns:xlink="http://www.w3.org/1999/xlink">
    <title>Group 6</title>
    <defs>
        <polygon id="path-1" points="0 0 22.1568887 0 22.1568887 30 0 30"></polygon>
    </defs>
    <g id="Page-1" stroke="none" stroke-width="1" fill="none" fill-rule="evenodd">
        <g id="Artboard" transform="translate(-1478.000000, -312.000000)">
            <g id="Group-6" transform="translate(1478.000000, 312.000000)">
                <g id="Group-3">
                    <mask id="mask-2" fill="white">
                        <use xlink:href="#path-1"></use>
                    </mask>
                    <g id="Clip-2"></g>
                    <path d="M11.0810685,28.7566329 C11.2002283,28.5949963 11.2904917,28.4831882 11.369421,28.363722 C12.7468556,26.278578 14.1288851,24.196293 15.4975385,22.1053289 C16.7964522,20.1209653 18.1109884,18.1457914 19.361503,16.1312039 C20.1886785,14.7984925 20.6793067,13.3153763 20.8102089,11.7492464 C21.0269838,9.15550328 20.2735302,6.82366676 18.5999828,4.85073926 C16.2825435,2.11884426 13.2938473,0.969314303 9.72722078,1.40020935 C8.14771475,1.59115099 6.71228287,2.1846017 5.42010828,3.11031129 C3.67477913,4.36072378 2.4551011,6.0092547 1.78568216,8.04804175 C1.35774824,9.35144821 1.18875978,10.6910008 1.37908878,12.062309 C1.63783002,13.9264917 2.37586542,15.603817 3.39949642,17.1614719 C5.86560474,20.914241 8.34406811,24.6590457 10.8185493,28.406301 C10.8872678,28.5102468 10.9678309,28.6062281 11.0810685,28.7566329 L11.0810685,28.7566329 Z M10.8451994,30 C10.2990246,29.8408139 9.94562943,29.4621981 9.64165442,28.9998538 C7.20648477,25.2965049 4.76222752,21.5990783 2.32164616,17.899201 C1.26809757,16.3020303 0.509436388,14.5843724 0.15869599,12.6925185 C-0.136191424,11.1021891 -0.00722923439,9.53840765 0.438675661,8.00045951 C1.10002808,5.71926847 2.37882655,3.84222022 4.24066073,2.36676207 C5.61891222,1.27451461 7.17125757,0.531680142 8.89861573,0.216166946 C12.7302121,-0.483782232 16.086088,0.515444997 18.8811878,3.22334466 C20.6442837,4.93130234 21.6790444,7.04769134 22.042242,9.48674109 C22.4272906,12.072724 21.8213828,14.4695011 20.5434011,16.6848326 C19.5496877,18.4072896 18.4113896,20.0469371 17.3205717,21.7125201 C15.7265664,24.1462602 14.1138753,26.5677474 12.5183383,29.0004664 C12.214976,29.4630149 11.8603555,29.8411202 11.3141807,30 L10.8451994,30 Z" id="Fill-1" fill="#FC5413" mask="url(#mask-2)"></path>
                </g>
                <path d="M11.0779644,6.50742694 C8.57029822,6.50967497 6.50404416,8.58123863 6.512899,11.0841058 C6.52191303,13.586156 8.5661118,15.630559 11.0667326,15.6381358 C13.5777683,15.645671 15.6403465,13.5930994 15.646384,11.0807362 C15.6523952,8.57695011 13.5828737,6.50528433 11.0779644,6.50742694 M11.0763307,16.9373381 C7.83542816,16.9340676 5.20962319,14.302953 5.21492476,11.0641947 C5.22024241,7.83115451 7.87157433,5.19105445 11.0976712,5.20610185 C14.3233597,5.22127837 16.943753,7.84973814 16.9443658,11.0709339 C16.9450804,14.310509 14.31417,16.9406025 11.0763307,16.9373381" id="Fill-4" fill="#FC5413"></path>
            </g>
        </g>
    </g>
</svg>