<?xml version="1.0" encoding="UTF-8"?>
<svg width="60px" height="60px" viewBox="0 0 60 60" version="1.1" xmlns="http://www.w3.org/2000/svg" xmlns:xlink="http://www.w3.org/1999/xlink">
    <title>Group 30</title>
    <defs>
        <polygon id="path-1" points="-6.66133815e-15 0 2.50004297 0 2.50004297 2.49996094 -6.66133815e-15 2.49996094"></polygon>
        <polygon id="path-3" points="0 60 60 60 60 0 0 0"></polygon>
    </defs>
    <g id="Page-1" stroke="none" stroke-width="1" fill="none" fill-rule="evenodd">
        <g id="Artboard" transform="translate(-706.000000, -1498.000000)">
            <g id="Group-30" transform="translate(706.000000, 1498.000000)">
                <g id="Group-3" transform="translate(57.499957, 28.749996)">
                    <mask id="mask-2" fill="white">
                        <use xlink:href="#path-1"></use>
                    </mask>
                    <g id="Clip-2"></g>
                    <path d="M1.25003906,0 C1.95,0 2.50007812,0.549960937 2.50007812,1.25003906 C2.50007812,1.95 1.95,2.49996094 1.25003906,2.49996094 L-6.66133815e-15,2.49996094 L-6.66133815e-15,0 L1.25003906,0 Z" id="Fill-1" fill="#FC5413" mask="url(#mask-2)"></path>
                </g>
                <mask id="mask-4" fill="white">
                    <use xlink:href="#path-3"></use>
                </mask>
                <g id="Clip-5"></g>
                <polygon id="Fill-4" fill="#FC5413" mask="url(#mask-4)" points="31.2500391 31.2499219 57.5000391 31.2499219 57.5000391 28.7499609 31.2500391 28.7499609"></polygon>
                <path d="M53.7500039,60 L29.9999648,60 C30.700043,60 31.2500039,59.4500391 31.2500039,58.7499609 L31.2500039,57.5000391 L53.7500039,57.5000391 C55.825043,57.5000391 57.5000039,55.8249609 57.5000039,53.7500391 L57.5000039,31.2500391 L58.750043,31.2500391 C59.4500039,31.2500391 59.9999648,30.6999609 59.9999648,30 L59.9999648,53.7500391 C59.9999648,57.2000391 57.2000039,60 53.7500039,60" id="Fill-6" fill="#FC5413" mask="url(#mask-4)"></path>
                <path d="M60,6.24999609 L60,30.0000352 C60,29.299957 59.4500391,28.7499961 58.7499609,28.7499961 L57.5000391,28.7499961 L57.5000391,6.24999609 C57.5000391,4.17495703 55.8249609,2.49999609 53.7500391,2.49999609 L31.2500391,2.49999609 L31.2500391,1.24995703 C31.2500391,0.549996094 30.6999609,3.515625e-05 30,3.515625e-05 L53.7500391,3.515625e-05 C57.2000391,3.515625e-05 60,2.79999609 60,6.24999609" id="Fill-7" fill="#FC5413" mask="url(#mask-4)"></path>
                <path d="M50.0000039,15 C50.6999648,15 51.250043,15.5499609 51.250043,16.2500391 C51.250043,16.95 50.6999648,17.4999609 50.0000039,17.4999609 L40.000043,17.4999609 C39.2999648,17.4999609 38.7500039,16.95 38.7500039,16.2500391 C38.7500039,15.5499609 39.2999648,15 40.000043,15 L50.0000039,15 Z" id="Fill-8" fill="#FC5413" mask="url(#mask-4)"></path>
                <path d="M50.0000039,39.9999961 C50.6999648,39.9999961 51.250043,40.549957 51.250043,41.2500352 C51.250043,41.9499961 50.6999648,42.499957 50.0000039,42.499957 L40.000043,42.499957 C39.2999648,42.499957 38.7500039,41.9499961 38.7500039,41.2500352 C38.7500039,40.549957 39.2999648,39.9999961 40.000043,39.9999961 L50.0000039,39.9999961 Z" id="Fill-9" fill="#FC5413" mask="url(#mask-4)"></path>
                <path d="M50.0000039,47.4999961 C50.6999648,47.4999961 51.250043,48.049957 51.250043,48.7500352 C51.250043,49.4499961 50.6999648,49.999957 50.0000039,49.999957 L40.000043,49.999957 C39.2999648,49.999957 38.7500039,49.4499961 38.7500039,48.7500352 C38.7500039,48.049957 39.2999648,47.4999961 40.000043,47.4999961 L50.0000039,47.4999961 Z" id="Fill-10" fill="#FC5413" mask="url(#mask-4)"></path>
                <path d="M31.2500039,57.5000039 L31.2500039,58.750043 C31.2500039,59.4500039 30.700043,59.9999648 29.9999648,59.9999648 C29.3000039,59.9999648 28.750043,59.4500039 28.750043,58.750043 L28.750043,57.5000039 L31.2500039,57.5000039 Z" id="Fill-11" fill="#FC5413" mask="url(#mask-4)"></path>
                <polygon id="Fill-12" fill="#FC5413" mask="url(#mask-4)" points="28.7499609 57.5000391 31.2499219 57.5000391 31.2499219 31.2500391 28.7499609 31.2500391"></polygon>
                <polygon id="Fill-13" fill="#FC5413" mask="url(#mask-4)" points="28.7499609 31.2499219 31.2499219 31.2499219 31.2499219 28.7499609 28.7499609 28.7499609"></polygon>
                <polygon id="Fill-14" fill="#FC5413" mask="url(#mask-4)" points="28.7499609 28.7499609 31.2499219 28.7499609 31.2499219 2.49996094 28.7499609 2.49996094"></polygon>
                <path d="M31.2500039,1.25000391 L31.2500039,2.50004297 L28.750043,2.50004297 L28.750043,1.25000391 C28.750043,0.550042969 29.3000039,-3.515625e-05 29.9999648,-3.515625e-05 C30.700043,-3.515625e-05 31.2500039,0.550042969 31.2500039,1.25000391" id="Fill-15" fill="#FC5413" mask="url(#mask-4)"></path>
                <polygon id="Fill-16" fill="#FC5413" mask="url(#mask-4)" points="2.49996094 31.2499219 28.7499609 31.2499219 28.7499609 28.7499609 2.49996094 28.7499609"></polygon>
                <path d="M20.0000039,15 C20.6999648,15 21.250043,15.5499609 21.250043,16.2500391 C21.250043,16.95 20.6999648,17.4999609 20.0000039,17.4999609 L16.2500039,17.4999609 L16.2500039,15 L20.0000039,15 Z" id="Fill-17" fill="#FC5413" mask="url(#mask-4)"></path>
                <path d="M19.6250039,47.8749961 C20.125043,48.349957 20.125043,49.1499961 19.6250039,49.624957 C19.4000039,49.8750352 19.075043,49.999957 18.7499648,49.999957 C18.4250039,49.999957 18.100043,49.8750352 17.875043,49.624957 L14.9999648,46.7499961 L16.750043,45.0000352 L19.6250039,47.8749961 Z" id="Fill-18" fill="#FC5413" mask="url(#mask-4)"></path>
                <path d="M17.8749961,40.3749961 C18.349957,39.874957 19.1499961,39.874957 19.624957,40.3749961 C20.1249961,40.849957 20.1249961,41.6499961 19.624957,42.124957 L16.7499961,45.0000352 L15.0000352,43.249957 L17.8749961,40.3749961 Z" id="Fill-19" fill="#FC5413" mask="url(#mask-4)"></path>
                <polygon id="Fill-20" fill="#FC5413" mask="url(#mask-4)" points="13.2426797 44.9975039 14.9925234 43.2476602 16.7423672 44.9975039 14.9925234 46.7473477"></polygon>
                <path d="M16.2500039,17.4999961 L16.2500039,21.2499961 C16.2500039,21.949957 15.700043,22.5000352 14.9999648,22.5000352 C14.3000039,22.5000352 13.750043,21.949957 13.750043,21.2499961 L13.750043,17.4999961 L16.2500039,17.4999961 Z" id="Fill-21" fill="#FC5413" mask="url(#mask-4)"></path>
                <polygon id="Fill-22" fill="#FC5413" mask="url(#mask-4)" points="13.7499609 17.4999609 16.2499219 17.4999609 16.2499219 15 13.7499609 15"></polygon>
                <path d="M16.2500039,11.25 L16.2500039,15 L13.750043,15 L13.750043,11.25 C13.750043,10.5500391 14.3000039,9.99996094 14.9999648,9.99996094 C15.700043,9.99996094 16.2500039,10.5500391 16.2500039,11.25" id="Fill-23" fill="#FC5413" mask="url(#mask-4)"></path>
                <path d="M15,43.2500039 L13.2500391,44.9999648 L10.3749609,42.1250039 C9.87503906,41.650043 9.87503906,40.8500039 10.3749609,40.375043 C10.8500391,39.8750039 11.6499609,39.8750039 12.1250391,40.375043 L15,43.2500039 Z" id="Fill-24" fill="#FC5413" mask="url(#mask-4)"></path>
                <path d="M13.7499961,15 L13.7499961,17.4999609 L9.99999609,17.4999609 C9.30003516,17.4999609 8.74995703,16.95 8.74995703,16.2500391 C8.74995703,15.5499609 9.30003516,15 9.99999609,15 L13.7499961,15 Z" id="Fill-25" fill="#FC5413" mask="url(#mask-4)"></path>
                <path d="M12.1250039,49.6250039 C11.9000039,49.8749648 11.575043,50.0000039 11.2499648,50.0000039 C10.9250039,50.0000039 10.600043,49.8749648 10.375043,49.6250039 C9.87500391,49.150043 9.87500391,48.3500039 10.375043,47.875043 L13.2500039,44.9999648 L14.9999648,46.750043 L12.1250039,49.6250039 Z" id="Fill-26" fill="#FC5413" mask="url(#mask-4)"></path>
                <path d="M2.49999609,28.7499961 L2.49999609,31.249957 L1.24995703,31.249957 C0.549996094,31.249957 3.515625e-05,30.6999961 3.515625e-05,30.0000352 C3.515625e-05,29.299957 0.549996094,28.7499961 1.24995703,28.7499961 L2.49999609,28.7499961 Z" id="Fill-27" fill="#FC5413" mask="url(#mask-4)"></path>
                <path d="M0,6.24999609 C0,2.79999609 2.79996094,3.515625e-05 6.24996094,3.515625e-05 L30,3.515625e-05 C29.3000391,3.515625e-05 28.7499609,0.549996094 28.7499609,1.24995703 L28.7499609,2.49999609 L6.24996094,2.49999609 C4.17503906,2.49999609 2.49996094,4.17495703 2.49996094,6.24999609 L2.49996094,28.7499961 L1.25003906,28.7499961 C0.549960938,28.7499961 0,29.299957 0,30.0000352 L0,6.24999609 Z" id="Fill-28" fill="#FC5413" mask="url(#mask-4)"></path>
                <path d="M2.49999609,53.7500039 C2.49999609,55.825043 4.17495703,57.5000039 6.24999609,57.5000039 L28.7499961,57.5000039 L28.7499961,58.750043 C28.7499961,59.4500039 29.299957,59.9999648 30.0000352,59.9999648 L6.24999609,59.9999648 C2.79999609,59.9999648 3.515625e-05,57.2000039 3.515625e-05,53.7500039 L3.515625e-05,29.9999648 C3.515625e-05,30.700043 0.549996094,31.2500039 1.24995703,31.2500039 L2.49999609,31.2500039 L2.49999609,53.7500039 Z" id="Fill-29" fill="#FC5413" mask="url(#mask-4)"></path>
            </g>
        </g>
    </g>
</svg>