<?xml version="1.0" encoding="UTF-8"?>
<svg width="46px" height="50px" viewBox="0 0 46 50" version="1.1" xmlns="http://www.w3.org/2000/svg" xmlns:xlink="http://www.w3.org/1999/xlink">
    <title>Group 13</title>
    <g id="Page-1" stroke="none" stroke-width="1" fill="none" fill-rule="evenodd">
        <g id="Artboard" transform="translate(-1254.000000, -4562.000000)" fill="#FC5413">
            <g id="Group-13" transform="translate(1254.407365, 4562.000000)">
                <path d="M18.7117187,48.5147461 L1.48515625,48.5147461 L1.48515625,25.5373047 L18.7117187,25.5373047 L18.7117187,48.5147461 L18.7117187,48.5147461 Z M20.196875,21.3791016 L27.7707031,21.3791016 L27.7707031,18.2604492 L20.196875,18.2604492 L20.196875,21.3791016 Z M29.2558594,21.3791016 L43.9579102,21.3791016 L43.9579102,18.2604492 L29.2558594,18.2604492 L29.2558594,21.3791016 Z M44.7005859,28.6064453 C44.2904297,28.6064453 43.9580078,28.9389648 43.9580078,29.3490234 L43.9580078,48.5148437 L25.8424805,48.5148437 C25.8417969,48.5148437 25.8412109,48.5147461 25.840625,48.5147461 L20.196875,48.5147461 L20.196875,22.8642578 L43.9579102,22.8642578 L43.9579102,26.8738281 C43.9579102,27.2838867 44.290332,27.6164063 44.7004883,27.6164063 C45.1106445,27.6164063 45.4431641,27.2838867 45.4431641,26.8738281 L45.4431641,17.5178711 C45.4431641,17.1078125 45.1106445,16.775293 44.7004883,16.775293 L26.5832031,16.775293 L26.5832031,0.742578125 C26.5832031,0.332519531 26.2507812,0 25.840625,0 L0.742578125,0 C0.332421875,0 0,0.332519531 0,0.742578125 L0,4.2015625 C0,4.61162109 0.332421875,4.94414062 0.742578125,4.94414062 C1.15273438,4.94414062 1.48515625,4.61162109 1.48515625,4.2015625 L1.48515625,1.48515625 L25.0979492,1.48515625 L25.0979492,16.775293 L19.4541992,16.775293 C19.044043,16.775293 18.7116211,17.1078125 18.7116211,17.5178711 L18.7116211,24.0522461 L1.48515625,24.0522461 L1.48515625,6.67685547 C1.48515625,6.26679687 1.15273438,5.93427734 0.742578125,5.93427734 C0.332421875,5.93427734 0,6.26679687 0,6.67685547 L0,49.2573242 C0,49.6673828 0.332421875,50 0.742578125,50 L44.7005859,50 C45.1107422,50 45.4431641,49.6674805 45.4431641,49.2574219 L45.4431641,29.3490234 C45.4431641,28.9389648 45.1107422,28.6064453 44.7005859,28.6064453 L44.7005859,28.6064453 Z" id="Fill-1"></path>
                <path d="M4.15800781,11.5776367 C3.74785156,11.5776367 3.41542969,11.9101562 3.41542969,12.3202148 L3.41542969,21.3791016 C3.41542969,21.7891602 3.74785156,22.1216797 4.15800781,22.1216797 C4.56816406,22.1216797 4.90058594,21.7891602 4.90058594,21.3791016 L4.90058594,12.3202148 C4.90058594,11.9100586 4.56826172,11.5776367 4.15800781,11.5776367" id="Fill-3"></path>
                <path d="M4.15800781,27.4677734 C3.74785156,27.4677734 3.41542969,27.800293 3.41542969,28.2103516 L3.41542969,37.2693359 C3.41542969,37.6793945 3.74785156,38.0119141 4.15800781,38.0119141 C4.56816406,38.0119141 4.90058594,37.6793945 4.90058594,37.2693359 L4.90058594,28.2103516 C4.90058594,27.8001953 4.56816406,27.4677734 4.15800781,27.4677734" id="Fill-5"></path>
                <path d="M32.0773438,25.6856445 C26.7546875,25.6856445 22.4245117,30.0160156 22.4245117,35.3386719 C22.4245117,36.4174805 22.6013672,37.4770508 22.9501953,38.4879883 C23.0839844,38.8755859 23.5060547,39.081543 23.8943359,38.9477539 C24.2819336,38.8139648 24.487793,38.3913086 24.3541016,38.0036133 C24.0591797,37.1488281 23.9097656,36.2522461 23.9097656,35.3386719 C23.9097656,30.8349609 27.5738281,27.1708008 32.0775391,27.1708008 C36.58125,27.1708008 40.2453125,30.8348633 40.2453125,35.3386719 C40.2453125,39.8424805 36.58125,43.506543 32.0775391,43.506543 C29.5141602,43.506543 27.1490234,42.3376953 25.5885742,40.2998047 C25.3391602,39.9741211 24.8730469,39.912207 24.5473633,40.1617187 C24.2216797,40.4110352 24.1599609,40.8771484 24.4091797,41.2027344 C26.2530273,43.6106445 29.0480469,44.9916992 32.0773438,44.9916992 C37.4,44.9916992 41.7302734,40.6614258 41.7302734,35.3386719 C41.7302734,30.0160156 37.4,25.6856445 32.0773438,25.6856445" id="Fill-7"></path>
                <path d="M34.5676758,39.3137695 C33.8256836,39.7793945 32.9644531,40.0298828 32.0773438,40.0298828 C29.490625,40.0298828 27.3860352,37.9253906 27.3860352,35.3385742 C27.3860352,32.7517578 29.490625,30.6472656 32.0773438,30.6472656 C32.9643555,30.6472656 33.8256836,30.8978516 34.5676758,31.3633789 C33.6374023,32.4698242 33.1168945,33.8769531 33.1168945,35.3383789 C33.1168945,36.8 33.6374023,38.2074219 34.5676758,39.3137695 M36.1787109,38.8458008 C35.1767578,37.9550781 34.6020508,36.6769531 34.6020508,35.3390625 C34.6020508,34.0011719 35.1766602,32.7227539 36.1787109,31.8319336 C36.3373047,31.6910156 36.4280273,31.4890625 36.4280273,31.2769531 C36.4280273,31.0648437 36.3373047,30.8628906 36.1788086,30.7219727 C35.0473633,29.7162109 33.5908203,29.1624023 32.0774414,29.1624023 C28.6717773,29.1624023 25.9009766,31.9331055 25.9009766,35.3388672 C25.9009766,38.7446289 28.6716797,41.515332 32.0774414,41.515332 C33.5908203,41.515332 35.0473633,40.9614258 36.1788086,39.9557617 C36.3373047,39.8148437 36.4280273,39.6128906 36.4280273,39.4007812 C36.4280273,39.1886719 36.3373047,38.9866211 36.1787109,38.8458008" id="Fill-9"></path>
            </g>
        </g>
    </g>
</svg>