<?xml version="1.0" encoding="UTF-8"?>
<svg width="52px" height="44px" viewBox="0 0 52 44" version="1.1" xmlns="http://www.w3.org/2000/svg" xmlns:xlink="http://www.w3.org/1999/xlink">
    <title>Group 8</title>
    <defs>
        <polygon id="path-1" points="1.59964859e-15 0 51.2297922 0 51.2297922 44 1.59964859e-15 44"></polygon>
    </defs>
    <g id="Page-1" stroke="none" stroke-width="1" fill="none" fill-rule="evenodd">
        <g id="Artboard" transform="translate(-1461.000000, -4563.000000)">
            <g id="Group-8" transform="translate(1461.000000, 4563.000000)">
                <path d="M29.1011506,24.6300798 C29.1011506,23.8057019 29.7718394,23.135013 30.5962174,23.135013 C31.4206954,23.135013 32.0913842,23.8057019 32.0913842,24.6300798 C32.0913842,25.4545579 31.4206954,26.1252467 30.5962174,26.1252467 C29.7718394,26.1252467 29.1011506,25.4545579 29.1011506,24.6300798 M33.5923544,24.6300798 C33.5923544,22.978022 32.2482752,21.6341429 30.5963174,21.6341429 C28.9443597,21.6341429 27.6003805,22.9781221 27.6003805,24.6300798 C27.6003805,26.2820376 28.9443597,27.6261169 30.5963174,27.6261169 C32.2482752,27.6261169 33.5923544,26.2820376 33.5923544,24.6300798" id="Fill-1" fill="#FC5413"></path>
                <g id="Group-5">
                    <mask id="mask-2" fill="white">
                        <use xlink:href="#path-1"></use>
                    </mask>
                    <g id="Clip-4"></g>
                    <path d="M23.5716447,5.33769465 C24.1139591,5.8248771 24.8303745,6.12194934 25.6149294,6.12194934 C26.3400498,6.12194934 27.0067363,5.86790205 27.5317407,5.44495684 L38.131286,13.8613364 L12.8370211,13.8613364 L23.5716447,5.33769465 Z M25.6149294,1.50087016 C26.4751281,1.50087016 27.1749338,2.20067589 27.1749338,3.06097467 C27.1749338,3.92127345 26.4751281,4.62107918 25.6149294,4.62107918 C24.7546306,4.62107918 24.0548248,3.92127345 24.0548248,3.06097467 C24.0548248,2.20067589 24.7547306,1.50087016 25.6149294,1.50087016 L25.6149294,1.50087016 Z M49.6429602,38.1754331 C49.1653833,37.9064771 48.8686112,37.4134913 48.8686112,36.8887871 L48.8686112,18.7646792 C48.8686112,18.239975 49.1652832,17.7469892 49.64276,17.4782334 C50.6943697,16.8862902 51.3000209,15.7693426 51.2232764,14.5631433 C51.1258199,13.0313552 49.8993088,11.7848325 48.3701222,11.6635622 C47.2028454,11.5714088 46.091301,12.1308331 45.4740431,13.1251096 C45.1877772,13.5859768 44.7144027,13.8612364 44.2079091,13.8612364 L40.5451855,13.8612364 L28.4366653,4.24686221 C28.5905545,3.88205071 28.675804,3.48131837 28.675804,3.06097467 C28.675804,1.37319614 27.3027079,0 25.6149294,0 C23.9271508,0 22.5539547,1.37319614 22.5539547,3.06097467 C22.5539547,3.42118351 22.6169912,3.76678388 22.7317578,4.08797009 L10.4232216,13.8613364 L7.02194965,13.8613364 C6.51535594,13.8613364 6.04208155,13.5860768 5.75581558,13.1251096 C5.13845765,12.1310332 4.02921454,11.5703081 2.85983657,11.6636623 C1.33075005,11.7848325 0.104038835,13.0313552 0.00658233211,14.5631433 C-0.0703622783,15.7693426 0.535288862,16.8863903 1.58709867,17.4783335 C2.0645755,17.7471893 2.3612475,18.2400751 2.3612475,18.7647793 L2.3612475,36.8888872 C2.3612475,37.4135914 2.06447544,37.9065772 1.5867985,38.1755331 C0.537189964,38.7663757 -0.0684611761,39.8813221 0.00618210006,41.0853201 C0.103038255,42.6464252 1.35336316,43.8967501 2.91436819,43.9937064 C4.11826617,44.0686498 5.23361282,43.4626985 5.82465549,42.4128898 C6.09351137,41.935413 6.58639713,41.638741 7.11110134,41.638741 L9.18470356,41.638741 C9.5992439,41.638741 9.93513864,41.3028463 9.93513864,40.8883059 C9.93513864,40.4737656 9.5992439,40.1378708 9.18470356,40.1378708 L7.1112014,40.1378708 C6.04528341,40.1378708 5.05110701,40.7276128 4.51669717,41.6767631 C4.21051966,42.2207785 3.63428558,42.5350607 3.00742214,42.4958379 C2.21366194,42.4465093 1.55347918,41.7860264 1.50415058,40.9924663 C1.46542813,40.3678042 1.77931011,39.7895689 2.32322546,39.4832913 C3.27247581,38.9488815 3.86221772,37.9548052 3.86221772,36.8887871 L3.86221772,18.7646792 C3.86221772,17.6987613 3.27247581,16.7045849 2.32332552,16.170175 C1.77840959,15.8634972 1.46452761,15.2842614 1.5043507,14.6583985 C1.55477993,13.8666395 2.18844732,13.222366 2.97830526,13.1597297 C3.58445669,13.1122021 4.16089089,13.4016699 4.48087641,13.9167686 C5.0428022,14.8217933 5.99275295,15.3621065 7.02194965,15.3621065 L44.2079091,15.3621065 C45.2371058,15.3621065 46.1870565,14.8217933 46.7490824,13.9167686 C47.0687677,13.40177 47.6431007,13.1122021 48.2515535,13.1597297 C49.0415114,13.222366 49.6751788,13.8666395 49.725508,14.6584986 C49.765231,15.2842614 49.4515492,15.8635973 48.9065332,16.170175 C47.9573829,16.7045849 47.367641,17.6986612 47.367641,18.7646792 L47.367641,36.8887871 C47.367641,37.954605 47.9573829,38.9488815 48.9065332,39.4832913 C49.4505486,39.7895689 49.7643305,40.3678042 49.7257081,40.9923663 C49.6764796,41.7861265 49.0160967,42.4465093 48.2225366,42.4958379 C47.5967738,42.5354609 47.0194391,42.2207785 46.7131615,41.6767631 C46.1787517,40.7276128 45.1846754,40.1378708 44.1186573,40.1378708 L12.1852432,40.1378708 C11.7707028,40.1378708 11.4348081,40.4737656 11.4348081,40.8883059 C11.4348081,41.3028463 11.7707028,41.638741 12.1852432,41.638741 L44.1186573,41.638741 C44.6433615,41.638741 45.1363473,41.935413 45.4051032,42.4128898 C46.0034501,43.4758061 47.1276018,44.0683496 48.3155906,43.9937064 C49.8765956,43.8966501 51.1268205,42.6463252 51.2235765,41.0852201 C51.2983199,39.8813221 50.6925687,38.7662756 49.6429602,38.1754331 L49.6429602,38.1754331 Z" id="Fill-3" fill="#FC5413" mask="url(#mask-2)"></path>
                </g>
                <path d="M14.4571604,27.691845 C14.4964832,27.6375135 14.5489136,27.6261069 14.585935,27.6261069 C14.6229565,27.6261069 14.6753869,27.6375135 14.7146096,27.691845 L21.410892,36.9569166 L7.76087806,36.9569166 L14.4571604,27.691845 Z M25.4908574,29.9005255 C25.5302803,29.8511969 25.5801092,29.8407909 25.6148293,29.8407909 C25.6497495,29.8407909 25.6995784,29.8511969 25.7389012,29.9006256 L29.5845308,34.7190191 L27.9671931,36.9568166 L23.2625655,36.9568166 L21.6452278,34.7189191 L25.4908574,29.9005255 Z M10.6849734,18.5431408 C11.0995137,18.5431408 11.4354085,18.2072461 11.4354085,17.7927057 C11.4354085,17.3781654 11.0995137,17.0422706 10.6849734,17.0422706 L6.29262681,17.0422706 C5.87808647,17.0422706 5.54219173,17.3781654 5.54219173,17.7927057 L5.54219173,37.7073517 C5.54219173,38.121892 5.87808647,38.4577868 6.29262681,38.4577868 L44.9371318,38.4577868 C45.3516722,38.4577868 45.6875669,38.121892 45.6875669,37.7073517 L45.6875669,17.7927057 C45.6875669,17.3781654 45.3516722,17.0422706 44.9371318,17.0422706 L13.6854129,17.0422706 C13.2708726,17.0422706 12.9349779,17.3781654 12.9349779,17.7927057 C12.9349779,18.2072461 13.2708726,18.5431408 13.6854129,18.5431408 L44.1866968,18.5431408 L44.1866968,35.3877068 L41.4525116,31.6045134 C41.2095707,31.2685186 40.7404987,31.1933751 40.404604,31.4358156 C40.0688093,31.6786564 39.9932655,32.1477284 40.2359062,32.4837232 L43.4687805,36.9568166 L29.8189667,36.9568166 L36.5152491,27.6917449 C36.5544718,27.6374134 36.6068021,27.6260068 36.6438236,27.6260068 C36.6808451,27.6260068 36.7332755,27.6374134 36.7724982,27.6917449 L38.455574,30.0205951 C38.6984148,30.3562897 39.1674868,30.4316334 39.5034816,30.1892929 C39.8392762,29.9464521 39.91482,29.4773802 39.6721794,29.1413854 L37.9890035,26.8125352 C37.6778231,26.3819856 37.1749315,26.1250366 36.6438236,26.1251366 C36.1127157,26.1251366 35.6099242,26.3820856 35.2989439,26.8125352 L30.49726,33.456287 L26.9121815,28.9643828 C26.5954979,28.5674526 26.1226237,28.3399207 25.6149294,28.3399207 C25.1073351,28.3399207 24.6344609,28.5674526 24.3177773,28.9642827 L20.7326988,33.456287 L15.9311149,26.8126352 C15.6200346,26.3821857 15.117143,26.1252367 14.5861352,26.1252367 L14.5860351,26.1252367 C14.0549272,26.1252367 13.5520356,26.3821857 13.2409553,26.8126352 L7.04306189,35.388007 L7.04306189,18.5431408 L10.6849734,18.5431408 Z" id="Fill-6" fill="#FC5413"></path>
            </g>
        </g>
    </g>
</svg>