<?xml version="1.0" encoding="UTF-8"?>
<svg width="55px" height="50px" viewBox="0 0 55 50" version="1.1" xmlns="http://www.w3.org/2000/svg" xmlns:xlink="http://www.w3.org/1999/xlink">
    <title>Group 3</title>
    <defs>
        <polygon id="path-1" points="-9.67000981e-16 0 54.3839916 0 54.3839916 50 -9.67000981e-16 50"></polygon>
    </defs>
    <g id="Page-1" stroke="none" stroke-width="1" fill="none" fill-rule="evenodd">
        <g id="Artboard" transform="translate(-1251.000000, -4478.000000)">
            <g id="Group-3" transform="translate(1251.407365, 4478.000000)">
                <mask id="mask-2" fill="white">
                    <use xlink:href="#path-1"></use>
                </mask>
                <g id="Clip-2"></g>
                <path d="M2.59888357,43.0618818 L1.74010172,41.2723015 C24.3274983,41.2356559 41.2905908,40.1167433 52.1958987,37.945199 L52.2088575,37.964106 C52.2599489,38.0386718 52.3222995,38.1007038 52.3910233,38.1517952 C52.0534588,38.7438608 51.7075031,39.3445301 51.3595291,39.9439248 C40.1946216,41.9020749 23.7948093,42.9507766 2.59888357,43.0618818 Z M22.203009,37.1131844 L25.9658225,37.1131844 L25.9658225,39.1240191 C24.2246782,39.2102691 22.428831,39.2866407 20.5784933,39.3529214 L22.203009,37.1131844 Z M34.4002606,38.5946229 C32.227654,38.7629802 29.9474475,38.9121119 27.5591098,39.0414869 L27.5591098,37.1131844 L31.4221942,37.1131844 C32.0985977,37.1131844 33.0975889,37.6114584 34.4002606,38.5946229 Z M39.4627716,35.9415871 L50.821954,35.9415871 L51.2143275,36.5137897 C48.4812025,37.0353257 45.377054,37.4929178 41.9100609,37.8863536 L39.4627716,35.9415871 Z M30.7317697,6.64209605 L31.4130593,7.63567001 C34.6806791,22.5682771 32.7593871,29.5027945 31.1366771,32.4491014 L30.7316635,32.4491014 L30.7316635,6.64209605 L30.7317697,6.64209605 Z M15.5000494,29.1538646 L29.1379513,5.09267727 L29.1379513,29.1538646 L15.5000494,29.1538646 Z M49.7290651,34.3482998 L37.4243198,34.3482998 C36.070663,33.3995504 34.5043553,32.7839041 32.8724043,32.5534086 C33.809151,30.5947274 34.4100327,28.1176968 34.6596477,25.1642732 C34.9962562,21.1796742 34.6744122,16.4194628 33.7028256,10.9752002 L49.7290651,34.3482998 Z M54.207477,38.1791998 C54.4705819,37.7132164 54.4376539,37.1558845 54.1214395,36.7242098 C53.8370909,36.3361913 53.3865092,36.1369241 52.9176579,36.1805802 C52.3503414,35.3532392 31.7719738,5.34197362 30.7316635,3.82473925 L30.7316635,0.796643645 C30.7316635,0.356683915 30.3749795,0 29.9350198,0 C29.4950601,0 29.1383762,0.356577695 29.1383762,0.796643645 L29.1383762,1.8606409 L13.668725,29.1538646 L12.8647522,29.1538646 C12.4247925,29.1538646 12.0681086,29.5104423 12.0681086,29.9505082 C12.0681086,30.3905742 12.4247925,30.7471519 12.8647522,30.7471519 L29.1385886,30.7471519 L29.1385886,32.4492076 L21.0682698,32.4492076 C20.2898959,32.4492076 19.5520976,32.8254358 19.0946118,33.4556341 L17.9718753,35.0032471 C17.7135503,35.3593999 17.7927898,35.8575678 18.1489426,36.1158927 C18.5049892,36.3742177 19.0030508,36.294872 19.261482,35.9388254 L20.3841123,34.3913186 C20.5426975,34.1728258 20.798367,34.0423887 21.0681636,34.0423887 L31.4221942,34.0423887 C33.4150779,34.0423887 35.3721658,34.7255903 36.9330563,35.96623 L39.6533287,38.1281084 C38.6935325,38.2251927 37.7082436,38.3177096 36.6976746,38.405659 C34.3788043,36.4123504 32.7440915,35.5197909 31.4221942,35.5197909 L22.0644993,35.5197909 C21.6429154,35.5197909 21.2431066,35.7235192 20.9947662,36.0654386 L18.5613916,39.4203706 C17.945533,39.4395962 17.3241509,39.4578659 16.6968206,39.4749672 L17.0576471,38.9775429 C17.315972,38.6214963 17.2367326,38.1233285 16.8805797,37.8650035 C16.5243207,37.6066786 16.0262591,37.6860243 15.7680403,38.0421771 L14.6920403,39.5255275 C10.488736,39.6231429 6.03836596,39.6746592 1.34390429,39.6796515 C0.879301712,39.6801826 0.454425101,39.9152456 0.207253133,40.3084689 C-0.0401312732,40.7020109 -0.0677482529,41.1873262 0.133537041,41.6065732 L3.79990353,49.2465982 C4.01945852,49.7041903 4.48937205,50.0000106 4.99699338,50.0000106 L32.381778,50.0000106 C32.8217377,50.0000106 33.1784216,49.6434329 33.1784216,49.203367 C33.1784216,48.763301 32.8217377,48.4067233 32.381778,48.4067233 L5.16386367,48.4067233 L3.36143087,44.6509203 C23.4657423,44.5236698 39.2415171,43.5444354 50.310615,41.7375414 C48.5822169,44.673545 46.9834063,47.3002384 46.3840116,48.2804288 C46.3356819,48.3594558 46.2512376,48.4066171 46.1579772,48.4066171 L36.0989172,48.4066171 C35.6589575,48.4066171 35.3022736,48.7631948 35.3022736,49.2032608 C35.3022736,49.6433267 35.6589575,50.0000106 36.0989172,50.0000106 L46.1579772,50.0000106 C46.8008155,50.0000106 47.4082829,49.659472 47.7432981,49.1114874 C48.4445569,47.9647454 53.6779746,39.1171149 54.207477,38.1791998 Z" id="Fill-1" fill="#FC5413" mask="url(#mask-2)"></path>
            </g>
        </g>
    </g>
</svg>