<?xml version="1.0" encoding="UTF-8"?>
<svg width="44px" height="34px" viewBox="0 0 44 34" version="1.1" xmlns="http://www.w3.org/2000/svg" xmlns:xlink="http://www.w3.org/1999/xlink">
    <title>Group 9</title>
    <defs>
        <polygon id="path-1" points="0 0 43.9558011 0 43.9558011 34 0 34"></polygon>
        <polygon id="path-3" points="0 34 43.9558011 34 43.9558011 0 0 0"></polygon>
    </defs>
    <g id="Page-1" stroke="none" stroke-width="1" fill="none" fill-rule="evenodd">
        <g id="Artboard" transform="translate(-1665.000000, -4486.000000)">
            <g id="Group-9" transform="translate(1665.000000, 4486.000000)">
                <g id="Group-3">
                    <mask id="mask-2" fill="white">
                        <use xlink:href="#path-1"></use>
                    </mask>
                    <g id="Clip-2"></g>
                    <path d="M40.0298343,26.298416 L3.92596685,26.298416 C2.80828729,26.3077348 1.8878453,25.4154696 1.87845304,24.2883978 L1.87845304,16.8872928 C1.87845304,15.8541436 2.33867403,14.8679558 3.12762431,14.201105 C3.13701657,14.1917127 3.1558011,14.1729282 3.16519337,14.1635359 L4.44254144,12.961326 L40.0110497,12.961326 L40.9127072,13.9287293 C40.9220994,13.9475138 40.9502762,13.9569061 40.9596685,13.9756906 C41.6640884,14.6425414 42.0679558,15.5723757 42.0679558,16.539779 L42.0679558,24.2883978 L42.0773481,24.2883978 C42.0679558,25.4060773 41.1475138,26.3077348 40.0298343,26.298416 L40.0298343,26.298416 Z M42.0773481,30.0928177 C42.0679558,31.2198895 41.1569061,32.121547 40.0298343,32.121547 L37.5502762,32.121547 C36.4232044,32.121547 35.5121547,31.2104972 35.5027624,30.0928177 L35.5027624,28.1767956 L40.0298343,28.1767956 C40.7718232,28.1767956 41.5138122,27.9983425 42.0773481,27.6320442 L42.0773481,30.0928177 Z M8.45303867,30.0928177 C8.44364641,31.2198895 7.53259669,32.121547 6.40552486,32.121547 L3.92596685,32.121547 C2.79889503,32.121547 1.8878453,31.2198895 1.87845304,30.0928177 L1.87845304,27.6320442 C2.44198895,27.9983425 3.1839779,28.1767956 3.92596685,28.1767956 L8.45303867,28.1767956 L8.45303867,30.0928177 Z M35.0237569,11.0828729 L26.0917127,11.0828729 C26.6082873,8.61270718 29.0314917,7.03480663 31.5016575,7.55138122 C33.2674033,7.92707182 34.6480663,9.30773481 35.0237569,11.0828729 L35.0237569,11.0828729 Z M8.35911602,3.19337017 C8.65966851,2.39502762 9.42044199,1.87845304 10.2657459,1.87845304 L34.2911602,1.87845304 C35.1364641,1.87845304 35.8972376,2.40441989 36.1977901,3.19337017 L39.1281768,11.0828729 L36.939779,11.0828729 C36.4232044,7.56077348 33.1453039,5.1281768 29.6232044,5.65414365 C26.8149171,6.06740331 24.6077348,8.27458564 24.1944751,11.0828729 L5.42872928,11.0828729 L8.35911602,3.19337017 Z M42.2745856,12.6325967 L41.3165746,11.618232 L37.9541436,2.55469613 C37.3812155,1.02375691 35.9160221,0.00939226519 34.281768,0 L10.2657459,0 C8.63149171,0 7.16629834,1.02375691 6.59337017,2.55469613 L3.27790055,11.5055249 L1.89723757,12.7828729 C0.695027624,13.8066298 0,15.3093923 0,16.8872928 L0,30.0928177 C0.00939226519,32.2530387 1.76574586,34 3.92596685,34 L6.40552486,34 C8.56574586,34 10.3220994,32.2530387 10.3314917,30.0928177 L10.3314917,28.1767956 L33.6243094,28.1767956 L33.6243094,30.0928177 C33.6337017,32.2530387 35.3900552,34 37.5502762,34 L40.0298343,34 C42.1900552,34 43.9464088,32.2530387 43.9558011,30.0928177 L43.9558011,16.539779 C43.9464088,15.0651934 43.3453039,13.6563536 42.2745856,12.6325967 L42.2745856,12.6325967 Z" id="Fill-1" fill="#FC5413" mask="url(#mask-2)"></path>
                </g>
                <mask id="mask-4" fill="white">
                    <use xlink:href="#path-3"></use>
                </mask>
                <g id="Clip-5"></g>
                <path d="M6.29281768,21.6022099 L11.4585635,21.6022099 L11.4585635,18.5966851 L6.29281768,18.5966851 L6.29281768,21.6022099 Z M12.3977901,16.718232 L5.35359116,16.718232 C4.83701657,16.718232 4.41436464,17.140884 4.41436464,17.6574586 L4.41436464,22.5414365 C4.41436464,23.058011 4.83701657,23.480663 5.35359116,23.480663 L12.3977901,23.480663 C12.9143646,23.480663 13.3370166,23.058011 13.3370166,22.5414365 L13.3370166,17.6574586 C13.3370166,17.140884 12.9143646,16.718232 12.3977901,16.718232 L12.3977901,16.718232 Z" id="Fill-4" fill="#FC5413" mask="url(#mask-4)"></path>
                <path d="M32.4972376,21.6022099 L37.6629834,21.6022099 L37.6629834,18.5966851 L32.4972376,18.5966851 L32.4972376,21.6022099 Z M38.6022099,16.718232 L31.558011,16.718232 C31.0414365,16.718232 30.6187845,17.140884 30.6187845,17.6574586 L30.6187845,22.5414365 C30.6187845,23.058011 31.0414365,23.480663 31.558011,23.480663 L38.6022099,23.480663 C39.1187845,23.480663 39.5414365,23.058011 39.5414365,22.5414365 L39.5414365,17.6574586 C39.5414365,17.140884 39.1187845,16.718232 38.6022099,16.718232 L38.6022099,16.718232 Z" id="Fill-6" fill="#FC5413" mask="url(#mask-4)"></path>
                <path d="M26.5143646,20.6629834 L17.4414365,20.6629834 C16.9248619,20.6629834 16.5022099,21.0856354 16.5022099,21.6022099 C16.5022099,22.1187845 16.9248619,22.5414365 17.4414365,22.5414365 L26.5143646,22.5414365 C27.0309392,22.5414365 27.4535912,22.1187845 27.4535912,21.6022099 C27.4535912,21.0856354 27.0309392,20.6629834 26.5143646,20.6629834" id="Fill-7" fill="#FC5413" mask="url(#mask-4)"></path>
                <path d="M26.5143646,17.7513812 L17.4414365,17.7513812 C16.9248619,17.7513812 16.5022099,18.1740331 16.5022099,18.6906077 C16.5022099,19.2071823 16.9248619,19.6298343 17.4414365,19.6298343 L26.5143646,19.6298343 C27.0309392,19.6298343 27.4535912,19.2071823 27.4535912,18.6906077 C27.4535912,18.1740331 27.0309392,17.7513812 26.5143646,17.7513812" id="Fill-8" fill="#FC5413" mask="url(#mask-4)"></path>
            </g>
        </g>
    </g>
</svg>