<?xml version="1.0" encoding="UTF-8"?>
<svg width="35px" height="30px" viewBox="0 0 35 30" version="1.1" xmlns="http://www.w3.org/2000/svg" xmlns:xlink="http://www.w3.org/1999/xlink">
    <title>Fill 1</title>
    <g id="Page-1" stroke="none" stroke-width="1" fill="none" fill-rule="evenodd">
        <g id="Artboard" transform="translate(-1542.000000, -452.000000)" fill="#FC5413">
            <path d="M1559.75457,452 L1550.7038,455.906758 L1550.69842,455.904741 L1550.69842,455.909447 L1550.66951,455.922223 L1550.69842,455.988793 L1550.69842,465.092009 L1542,468.458142 L1542.06993,468.639023 L1542.06993,478.309761 L1550.9499,481.803653 L1559.23344,478.544436 L1568.01457,482 L1576.89454,478.505435 L1576.89454,468.667264 L1576.84075,468.688109 L1576.8542,468.652471 L1568.45904,465.467892 L1568.45904,455.911465 L1568.43483,455.920206 L1568.45433,455.876499 L1559.75457,452 Z M1551.58467,456.259106 L1559.7512,452.734282 L1567.61448,456.238261 L1559.43651,459.402667 L1551.58467,456.259106 Z M1559.7707,459.993724 L1567.78662,456.892525 L1567.78662,465.278942 L1559.7707,468.380141 L1559.7707,459.993724 Z M1554.31671,466.450969 L1551.37084,465.272218 L1551.37084,456.898577 L1559.09829,459.991707 L1559.09829,468.333072 L1554.31671,466.450969 Z M1542.9434,468.814524 L1550.77844,465.781239 L1554.05245,467.069595 L1558.67197,468.918749 L1550.80802,471.96212 L1542.9434,468.814524 Z M1560.0901,469.043147 L1567.89286,465.972207 L1575.9545,469.031043 L1567.87269,472.158467 L1560.0901,469.043147 Z M1542.74235,477.851844 L1542.74235,469.45803 L1550.4698,472.550488 L1550.4698,480.892525 L1542.74235,477.851844 Z M1551.14222,472.55385 L1559.1346,469.460719 L1559.1346,477.861257 L1551.14222,481.005491 L1551.14222,472.55385 Z M1568.20621,472.749524 L1576.22145,469.648325 L1576.22145,478.04819 L1568.20621,481.20251 L1568.20621,472.749524 Z M1559.83055,478.056259 L1559.83055,469.663118 L1567.53446,472.747506 L1567.53446,481.088199 L1559.83055,478.056259 Z" id="Fill-1"></path>
        </g>
    </g>
</svg>