<?xml version="1.0" encoding="UTF-8"?>
<svg width="40px" height="50px" viewBox="0 0 40 50" version="1.1" xmlns="http://www.w3.org/2000/svg" xmlns:xlink="http://www.w3.org/1999/xlink">
    <title>Group 26</title>
    <defs>
        <polygon id="path-1" points="0 0 40.0032188 0 40.0032188 50 0 50"></polygon>
    </defs>
    <g id="Page-1" stroke="none" stroke-width="1" fill="none" fill-rule="evenodd">
        <g id="Artboard" transform="translate(-1466.000000, -4638.000000)">
            <g id="Group-26" transform="translate(1466.000000, 4638.000000)">
                <g id="Group-3">
                    <mask id="mask-2" fill="white">
                        <use xlink:href="#path-1"></use>
                    </mask>
                    <g id="Clip-2"></g>
                    <path d="M8.33662435,2.84500111 L8.33662435,7.50008105 C8.33662435,7.96013983 7.96357733,8.33318685 7.50351856,8.33318685 L2.84843861,8.33318685 L8.33662435,2.84500111 Z M33.3366341,2.50017676 L33.3366341,42.4998994 C33.3366341,42.9603488 32.9635871,43.3334935 32.5035283,43.3334935 L2.50322363,43.3334935 C2.04316486,43.3334935 1.67002018,42.9603488 1.67002018,42.4998994 L1.67002018,9.99988672 L7.50351856,9.99988672 C8.88398785,9.99988672 10.0032266,8.880648 10.0032266,7.50008105 L10.0032266,1.66668034 L32.5035283,1.66668034 C32.9635871,1.66668034 33.3366341,2.03972736 33.3366341,2.50017676 L33.3366341,2.50017676 Z M37.5034326,6.66658464 C37.9634914,6.66658464 38.3365384,7.03963166 38.3365384,7.50008105 L38.3365384,47.4999014 C38.3365384,47.9602531 37.9634914,48.3333978 37.5034326,48.3333978 L7.50351856,48.3333978 C7.04306916,48.3333978 6.67002214,47.9602531 6.67002214,47.4999014 L6.67002214,45.0000957 L32.5035283,45.0000957 C33.8839976,45.0000957 35.0032363,43.880857 35.0032363,42.4998994 L35.0032363,6.66658464 L37.5034326,6.66658464 Z M2.50322363,45.0000957 L5.00332227,45.0000957 L5.00332227,47.4999014 C5.00332227,48.8807613 6.12256099,50 7.50351856,50 L37.5034326,50 C38.8839996,50 40.0032383,48.8807613 40.0032383,47.4999014 L40.0032383,7.50008105 C40.0032383,6.11912348 38.8839996,4.99988477 37.5034326,4.99988477 L35.0032363,4.99988477 L35.0032363,2.50017676 C35.0032363,1.11921919 33.8839976,-1.95312576e-05 32.5035283,-1.95312576e-05 L9.17012077,-1.95312576e-05 C9.15254264,-1.95312576e-05 9.13652701,0.00916015983 9.11904653,0.00994141013 C9.04502306,0.0149218808 8.97178085,0.0293750115 8.90156598,0.0533984584 C8.87568706,0.0625781494 8.85088236,0.0690234645 8.82568704,0.0808398753 C8.73447607,0.120878953 8.65137057,0.177421944 8.58076507,0.247539159 L0.24755869,8.58074554 C0.177734444,8.65174166 0.12128911,8.73455419 0.0808594066,8.82488626 C0.0690429957,8.85086283 0.0625000244,8.87683941 0.0534179896,8.90349957 C0.0293945427,8.97254257 0.0148437558,9.04461291 0.0106445354,9.1174645 C0.0106445354,9.13582388 0,9.15183951 0,9.17019889 L0,42.4998994 C0,43.1636692 0.263964947,43.7999976 0.733594037,44.2688454 C1.20312547,44.7379862 1.83984447,45.000877 2.50322363,45.0000957 L2.50322363,45.0000957 Z" id="Fill-1" fill="#FC5413" mask="url(#mask-2)"></path>
                </g>
                <path d="M5.83646712,14.1666462 C5.37640835,14.1666462 5.00336133,14.5396932 5.00336133,15.0001426 C5.00336133,15.4602014 5.37640835,15.8332484 5.83646712,15.8332484 L29.1698747,15.8332484 C29.6302264,15.8332484 30.0033613,15.4602014 30.0033613,15.0001426 C30.0033613,14.5396932 29.6302264,14.1666462 29.1698747,14.1666462 L5.83646712,14.1666462 Z" id="Fill-4" fill="#FC5413"></path>
                <path d="M29.1698356,30.8334495 L5.83642806,30.8334495 C5.37636929,30.8334495 5.00332227,31.2064966 5.00332227,31.6665553 C5.00332227,32.1270047 5.37636929,32.5000518 5.83642806,32.5000518 L29.1698356,32.5000518 C29.630285,32.5000518 30.0033223,32.1270047 30.0033223,31.6665553 C30.0033223,31.2064966 29.630285,30.8334495 29.1698356,30.8334495" id="Fill-6" fill="#FC5413"></path>
                <path d="M29.1698356,18.3334447 L25.0034277,18.3334447 C24.5429783,18.3334447 24.1699313,18.7064917 24.1699313,19.1665505 C24.1699313,19.6269999 24.5429783,20.0000469 25.0034277,20.0000469 L29.1698356,20.0000469 C29.630285,20.0000469 30.003332,19.6269999 30.003332,19.1665505 C30.003332,18.7064917 29.630285,18.3334447 29.1698356,18.3334447" id="Fill-8" fill="#FC5413"></path>
                <path d="M21.6701354,19.16657 C21.6701354,18.7065112 21.2970884,18.3334642 20.836639,18.3334642 L5.83643783,18.3334642 C5.37637905,18.3334642 5.00333203,18.7065112 5.00333203,19.16657 C5.00333203,19.6270194 5.37637905,20.0000664 5.83643783,20.0000664 L20.836639,20.0000664 C21.2970884,20.0000664 21.6701354,19.6270194 21.6701354,19.16657" id="Fill-10" fill="#FC5413"></path>
                <path d="M15.8367054,34.9998574 L15.003209,34.9998574 C14.5431502,34.9998574 14.1701032,35.3729044 14.1701032,35.8333538 C14.1701032,36.2934126 14.5431502,36.6664596 15.003209,36.6664596 L15.8367054,36.6664596 C16.2967642,36.6664596 16.6698112,36.2934126 16.6698112,35.8333538 C16.6698112,35.3729044 16.2967642,34.9998574 15.8367054,34.9998574" id="Fill-12" fill="#FC5413"></path>
                <path d="M10.8367816,34.9998574 L5.83648665,34.9998574 C5.37642788,34.9998574 5.00338086,35.3729044 5.00338086,35.8333538 C5.00338086,36.2934126 5.37642788,36.6664596 5.83648665,36.6664596 L10.8367816,36.6664596 C11.2968404,36.6664596 11.6698874,36.2934126 11.6698874,35.8333538 C11.6698874,35.3729044 11.2968404,34.9998574 10.8367816,34.9998574" id="Fill-14" fill="#FC5413"></path>
                <path d="M5.83646712,24.1664938 L10.0032656,24.1664938 C10.463715,24.1664938 10.836762,23.7934468 10.836762,23.333388 C10.836762,22.8729386 10.463715,22.4998916 10.0032656,22.4998916 L5.83646712,22.4998916 C5.37640835,22.4998916 5.00336133,22.8729386 5.00336133,23.333388 C5.00336133,23.7934468 5.37640835,24.1664938 5.83646712,24.1664938" id="Fill-16" fill="#FC5413"></path>
                <path d="M29.1698356,22.4998525 L14.1700251,22.4998525 C13.7096733,22.4998525 13.3365286,22.8728996 13.3365286,23.333349 C13.3365286,23.7934077 13.7096733,24.1664548 14.1700251,24.1664548 L29.1698356,24.1664548 C29.630285,24.1664548 30.003332,23.7934077 30.003332,23.333349 C30.003332,22.8728996 29.630285,22.4998525 29.1698356,22.4998525" id="Fill-18" fill="#FC5413"></path>
                <path d="M5.83646712,28.3332923 L8.33666341,28.3332923 C8.79701516,28.3332923 9.17015983,27.9602453 9.17015983,27.5001865 C9.17015983,27.0397371 8.79701516,26.6666901 8.33666341,26.6666901 L5.83646712,26.6666901 C5.37640835,26.6666901 5.00336133,27.0397371 5.00336133,27.5001865 C5.00336133,27.9602453 5.37640835,28.3332923 5.83646712,28.3332923" id="Fill-20" fill="#FC5413"></path>
                <path d="M12.5034229,28.3332923 L22.5032314,28.3332923 C22.9636808,28.3332923 23.3368255,27.9602453 23.3368255,27.5001865 C23.3368255,27.0397371 22.9636808,26.6666901 22.5032314,26.6666901 L12.5034229,26.6666901 C12.0429735,26.6666901 11.6699264,27.0397371 11.6699264,27.5001865 C11.6699264,27.9602453 12.0429735,28.3332923 12.5034229,28.3332923" id="Fill-22" fill="#FC5413"></path>
                <path d="M29.1698356,26.666651 L26.6700299,26.666651 C26.2096782,26.666651 25.8365335,27.0396981 25.8365335,27.5001475 C25.8365335,27.9602062 26.2096782,28.3332533 26.6700299,28.3332533 L29.1698356,28.3332533 C29.630285,28.3332533 30.003332,27.9602062 30.003332,27.5001475 C30.003332,27.0396981 29.630285,26.666651 29.1698356,26.666651" id="Fill-24" fill="#FC5413"></path>
            </g>
        </g>
    </g>
</svg>