<?xml version="1.0" encoding="UTF-8"?>
<svg width="28px" height="30px" viewBox="0 0 28 30" version="1.1" xmlns="http://www.w3.org/2000/svg" xmlns:xlink="http://www.w3.org/1999/xlink">
    <title>Group 12</title>
    <defs>
        <polygon id="path-1" points="0 0 27.1875 0 27.1875 30 0 30"></polygon>
    </defs>
    <g id="Page-1" stroke="none" stroke-width="1" fill="none" fill-rule="evenodd">
        <g id="Artboard" transform="translate(-977.000000, -451.000000)">
            <g id="Group-12" transform="translate(977.000000, 451.000000)">
                <mask id="mask-2" fill="white">
                    <use xlink:href="#path-1"></use>
                </mask>
                <g id="Clip-2"></g>
                <path d="M11.1453677,28.7392422 L16.0509527,28.7392422 L16.0509527,23.7660003 L11.1453677,23.7660003 L11.1453677,28.7392422 Z M23.4717418,28.7401962 L23.4717418,1.26785783 L3.71717199,1.26785783 L3.71717199,28.7338851 L9.88500631,28.7338851 L9.88500631,28.395139 C9.88500631,26.7057382 9.88449801,25.0163374 9.88529676,23.3268632 C9.8855146,22.7191603 10.1033566,22.5004724 10.7081588,22.5002523 C12.6310505,22.4995918 14.5539422,22.4996652 16.4768338,22.5001789 C17.0957957,22.500399 17.305868,22.7160048 17.3060133,23.3499062 C17.306449,25.039307 17.3061585,26.7287811 17.3061585,28.4181819 L17.3061585,28.7401962 L23.4717418,28.7401962 Z M0.492601482,30 C0.117767944,29.8191789 -0.0233936985,29.625075 0.0031104165,29.3268375 C0.0343344424,28.9746619 0.27708309,28.7622118 0.683866794,28.7567079 C1.26209219,28.7488556 1.8404628,28.7547265 2.46385411,28.7547265 L2.46385411,28.3685735 C2.46385411,19.2202272 2.4637815,10.0719542 2.46385411,0.923681222 C2.46385411,0.186746999 2.64589744,0 3.36477618,0 C10.1853379,0 17.0058269,0 23.8263886,0 C24.5452674,0 24.7273107,0.186746999 24.7273833,0.923607837 C24.7273833,10.062194 24.7273833,19.2007067 24.7273833,28.3392194 L24.7273833,28.7541394 C25.2093951,28.7541394 25.6699858,28.7538458 26.1305765,28.7542128 C26.2754415,28.7543595 26.4207421,28.7498097 26.5651714,28.7584691 C26.8986149,28.7782831 27.109486,28.9495642 27.1705544,29.2407567 C27.2361249,29.5529373 27.1110109,29.7932739 26.8020383,29.9487037 C26.7676192,29.9659493 26.7331276,29.9829012 26.6986359,30 L0.492601482,30 Z" id="Fill-1" fill="#FC5413" mask="url(#mask-2)"></path>
                <path d="M12.4467597,19.4239423 L14.7410403,19.4239423 L14.7410403,17.1295088 L12.4467597,17.1295088 L12.4467597,19.4239423 Z M13.5840156,20.624154 C13.0637114,20.624154 12.5434759,20.6260761 12.0232404,20.6236735 C11.4756168,20.6210649 11.2539041,20.4057902 11.2523253,19.8667109 C11.2493051,18.8079105 11.2490991,17.7490415 11.2524626,16.6902412 C11.25411,16.1627631 11.4749304,15.9416534 12.0019614,15.9399372 C13.0607598,15.9365736 14.1195582,15.9368481 15.178288,15.9397999 C15.7176746,15.9413101 15.9345137,16.1629004 15.9356806,16.7100799 C15.9380145,17.7597503 15.9382204,18.8094894 15.935612,19.8592284 C15.9342392,20.4033875 15.7158212,20.620653 15.1721789,20.6235362 C14.6427454,20.6264193 14.1133805,20.624154 13.5840156,20.624154 L13.5840156,20.624154 Z" id="Fill-3" fill="#FC5413" mask="url(#mask-2)"></path>
                <path d="M12.4462842,7.25148752 L14.7465681,7.25148752 L14.7465681,4.93471854 L12.4462842,4.93471854 L12.4462842,7.25148752 Z M13.581606,8.4363006 C13.0525393,8.43636942 12.5234726,8.43850298 11.994406,8.43575 C11.4737786,8.43306585 11.2557984,8.22404596 11.2536028,7.70985842 C11.2490058,6.63014029 11.2485256,5.55042216 11.2538087,4.47070403 C11.2562787,3.97386026 11.4833156,3.75286491 11.977253,3.75176372 C13.0536371,3.74935487 14.1300212,3.74949252 15.2064053,3.7516949 C15.7027441,3.75272727 15.9306044,3.97165787 15.933143,4.46719399 C15.9387692,5.55599694 15.9392495,6.64493755 15.9327999,7.73374051 C15.9299182,8.21792059 15.70789,8.43127641 15.2235583,8.43519941 C14.6763095,8.439673 14.1289234,8.43623177 13.581606,8.4363006 L13.581606,8.4363006 Z" id="Fill-4" fill="#FC5413" mask="url(#mask-2)"></path>
                <path d="M12.4471639,13.8059302 L14.7458262,13.8059302 L14.7458262,11.4977814 L12.4471639,11.4977814 L12.4471639,13.8059302 Z M13.6086395,10.3137341 C14.1468374,10.3137341 14.685104,10.3103617 15.2232333,10.3147665 C15.7076389,10.3187583 15.9298754,10.5320437 15.9327571,11.0159449 C15.9392753,12.1047398 15.9387264,13.1936723 15.9332374,14.2824672 C15.9306987,14.7781373 15.702836,14.9972728 15.2067662,14.9983051 C14.1303704,15.0005075 13.0539059,15.0006451 11.97751,14.9982363 C11.4833615,14.9971351 11.2562535,14.7764167 11.2537834,14.2796454 C11.2485002,13.1999353 11.2490491,12.1202252 11.2535776,11.040515 C11.2557046,10.5262625 11.4736871,10.3169688 11.9940457,10.3142847 C12.5322436,10.3115318 13.0704416,10.3136653 13.6086395,10.3137341 L13.6086395,10.3137341 Z" id="Fill-5" fill="#FC5413" mask="url(#mask-2)"></path>
                <path d="M5.87548881,19.4240298 L8.18845305,19.4240298 L8.18845305,17.1319109 L5.87548881,17.1319109 L5.87548881,19.4240298 Z M4.68900215,18.281503 C4.68900215,17.7343167 4.6849419,17.1871303 4.69017205,16.6400126 C4.6946452,16.1709565 4.90742966,15.946512 5.37559674,15.9431508 C6.47344615,15.9353309 7.57143319,15.9360855 8.66935142,15.9426021 C9.15011215,15.9454145 9.37149882,16.1750722 9.37280636,16.6531143 C9.37576552,17.7383638 9.3756967,18.8236133 9.37280636,19.9088628 C9.37149882,20.3870421 9.15024979,20.6170428 8.66990196,20.6199238 C7.57198374,20.6264404 6.47399669,20.6271263 5.37614728,20.619375 C4.90784256,20.6160139 4.69471402,20.3917066 4.69024087,19.9230621 C4.6849419,19.3759443 4.68900215,18.8286894 4.68900215,18.281503 L4.68900215,18.281503 Z" id="Fill-6" fill="#FC5413" mask="url(#mask-2)"></path>
                <path d="M19.0014632,19.4271357 L21.309237,19.4271357 L21.309237,17.13076 L19.0014632,17.13076 L19.0014632,19.4271357 Z M22.498355,18.2949292 C22.498355,18.8329451 22.5017267,19.3709609 22.4973916,19.9089768 C22.4934694,20.3943845 22.2812572,20.6168888 21.7979995,20.6198382 C20.7001933,20.6264227 19.6023872,20.6271772 18.504581,20.619358 C18.0388012,20.6159971 17.8167491,20.3847134 17.8152352,19.9230376 C17.8115883,18.8288297 17.8115883,17.7344846 17.8152352,16.6402766 C17.8167491,16.1783265 18.0384572,15.946837 18.5041681,15.9435447 C19.6110573,15.9357941 20.7180841,15.934971 21.8249733,15.944162 C22.2782983,15.9479344 22.491818,16.1742797 22.4968412,16.6261472 C22.5029653,17.1823393 22.4982862,17.7386685 22.498355,18.2949292 L22.498355,18.2949292 Z" id="Fill-7" fill="#FC5413" mask="url(#mask-2)"></path>
                <path d="M5.87645752,7.24768944 L8.1920948,7.24768944 L8.1920948,4.9409977 L5.87645752,4.9409977 L5.87645752,7.24768944 Z M4.68883828,6.11399095 C4.68876946,5.56517187 4.68553475,5.0163528 4.68973299,4.46760254 C4.69358711,3.96262018 4.90590777,3.75272699 5.41251795,3.75169473 C6.49187774,3.74949257 7.57130635,3.74935493 8.65066613,3.75176354 C9.14770984,3.75286462 9.37207462,3.97631485 9.3731758,4.47193804 C9.37572227,5.55120193 9.37544697,6.63053464 9.37331344,7.70979854 C9.37234991,8.21787769 9.16347043,8.43286337 8.65968202,8.43465262 C7.57109988,8.43843758 6.48258656,8.4385064 5.39400441,8.43451499 C4.90308601,8.43265692 4.69420652,8.22248846 4.68993946,7.7329212 C4.68519064,7.19332366 4.68883828,6.6536573 4.68883828,6.11399095 L4.68883828,6.11399095 Z" id="Fill-8" fill="#FC5413" mask="url(#mask-2)"></path>
                <path d="M18.9991758,7.2544217 L21.3073057,7.2544217 L21.3073057,4.93701782 L18.9991758,4.93701782 L18.9991758,7.2544217 Z M22.4984631,6.09895386 C22.4983943,6.6476497 22.502661,7.19648317 22.4970868,7.74517901 C22.4923384,8.22148608 22.2845792,8.43184013 21.8084327,8.43390445 C20.7107979,8.4387212 19.6131631,8.43858357 18.5155971,8.4341797 C18.0279582,8.432253 17.8158635,8.21474264 17.8146248,7.72467345 C17.8118721,6.63629595 17.8116657,5.54798727 17.8147624,4.45960977 C17.8161388,3.97889882 18.0413776,3.75361286 18.5220659,3.75223665 C19.6105481,3.74914017 20.6990302,3.74941542 21.7874435,3.75209903 C22.2778351,3.75333762 22.4927513,3.96506788 22.497362,4.4526599 C22.5025233,5.00135574 22.4985319,5.55018921 22.4984631,6.09895386 L22.4984631,6.09895386 Z" id="Fill-9" fill="#FC5413" mask="url(#mask-2)"></path>
                <path d="M5.87450817,13.8096905 L8.18623722,13.8096905 L8.18623722,11.4917127 L5.87450817,11.4917127 L5.87450817,13.8096905 Z M4.68880844,12.636422 C4.68880844,12.0967556 4.68522959,11.5570892 4.68990962,11.0174917 C4.69417671,10.5277868 4.9029887,10.3173431 5.39356611,10.315485 C6.48215519,10.3114936 7.57067544,10.3115624 8.65926452,10.3153474 C9.16326261,10.3170678 9.3723499,10.5319847 9.37331343,11.0397886 C9.37544698,12.1190525 9.37572227,13.1983852 9.37317579,14.2776491 C9.3720746,14.7734787 9.14784604,14.9971354 8.65107446,14.9982365 C7.5717078,15.0006451 6.49227232,15.0005074 5.41290565,14.9983053 C4.90601696,14.9973418 4.69355729,14.7875175 4.68970315,14.2828104 C4.68543606,13.7340601 4.68873961,13.185241 4.68880844,12.636422 L4.68880844,12.636422 Z" id="Fill-10" fill="#FC5413" mask="url(#mask-2)"></path>
                <path d="M18.9971366,13.8069833 L21.3096879,13.8069833 L21.3096879,11.5033103 L18.9971366,11.5033103 L18.9971366,13.8069833 Z M20.1559921,10.3144222 C20.704634,10.3143534 21.2532758,10.3104315 21.8018489,10.315523 C22.2785998,10.3199266 22.4939288,10.5280629 22.4961303,10.9984853 C22.5012211,12.1050134 22.5014275,13.2115415 22.4959239,14.3180697 C22.4937224,14.77191 22.2703444,14.9947706 21.8204924,14.9966283 C20.7141277,15.0012383 19.6076942,15.0009631 18.5013295,14.9967659 C18.0514776,14.9950458 17.8185369,14.7675752 17.8164731,14.3233677 C17.8113134,13.2076884 17.8109695,12.0920092 17.8166795,10.9763299 C17.8188809,10.5436129 18.0448732,10.3221972 18.4827548,10.3163487 C19.0404088,10.3089177 19.5982693,10.3145598 20.1559921,10.3144222 L20.1559921,10.3144222 Z" id="Fill-11" fill="#FC5413" mask="url(#mask-2)"></path>
            </g>
        </g>
    </g>
</svg>