<?xml version="1.0" encoding="UTF-8"?>
<svg width="51px" height="50px" viewBox="0 0 51 50" version="1.1" xmlns="http://www.w3.org/2000/svg" xmlns:xlink="http://www.w3.org/1999/xlink">
    <title>Group 5</title>
    <defs>
        <polygon id="path-1" points="0 0 50.0003514 0 50.0003514 50 0 50"></polygon>
    </defs>
    <g id="Page-1" stroke="none" stroke-width="1" fill="none" fill-rule="evenodd">
        <g id="Artboard" transform="translate(-1039.000000, -4478.000000)">
            <g id="Group-5" transform="translate(1039.407365, 4478.000000)">
                <mask id="mask-2" fill="white">
                    <use xlink:href="#path-1"></use>
                </mask>
                <g id="Clip-4"></g>
                <path d="M44.1665302,48.3332037 C41.8653671,48.3332037 39.9998469,46.4677812 39.9998469,44.1665204 C39.9998469,41.8653574 41.8652695,39.9998372 44.1665302,39.9998372 C46.4676933,39.9998372 48.3332135,41.8652597 48.3332135,44.1665204 C48.3304791,46.4666093 46.4665214,48.3304694 44.1665302,48.3332037 L44.1665302,48.3332037 Z M38.9040503,46.6665109 L24.4291057,46.6665109 C25.1902356,45.0867318 25.1902356,43.2463091 24.4291057,41.66653 L38.9040503,41.66653 C38.1429204,43.2463091 38.1429204,45.0867318 38.9040503,46.6665109 L38.9040503,46.6665109 Z M26.6665972,39.9998372 L36.6665589,39.9998372 L36.6665589,36.6665491 L26.6665972,36.6665491 L26.6665972,39.9998372 Z M24.9999043,29.1665778 C25.0004903,28.7066187 25.3732427,28.3338662 25.8332019,28.3332802 L34.1664708,28.3332802 C36.4665597,28.3360146 38.3304197,30.1998747 38.3331541,32.4999635 L38.3344236,34.999954 L24.9999043,34.999954 L24.9999043,29.1665778 Z M19.1666259,48.3332037 C16.866537,48.3304694 15.002677,46.4666093 14.9999426,44.1665204 C14.9999426,41.8653574 16.8653651,39.9998372 19.1666259,39.9998372 C21.4678866,39.9998372 23.3333091,41.8652597 23.3333091,44.1665204 C23.3332115,46.4676835 21.4677889,48.3332037 19.1666259,48.3332037 L19.1666259,48.3332037 Z M8.88141133,37.0250439 C5.90808286,35.2230976 4.80798941,31.4457683 6.34890149,28.3291787 L11.0167547,18.9891754 L21.3063638,38.7451545 C18.9447517,37.8047284 16.2459339,38.5099991 14.6464283,40.4856752 L8.88141133,37.0250439 Z M49.7951219,42.6327372 C49.1040113,40.0936845 46.7979654,38.3322654 44.1665302,38.333242 C42.6423173,38.332949 41.178944,38.9314819 40.0918388,39.9999348 L38.3332517,39.9999348 L38.3332517,36.6666468 C39.2533654,36.6657679 39.998968,35.9200676 39.9999446,34.999954 L39.9999446,32.4999635 C39.9963313,29.2798587 37.386771,26.6702983 34.1666661,26.6666851 L31.6666757,26.6666851 L31.6666757,24.2575146 C32.0608148,24.3340768 32.43054,24.5050722 32.7442106,24.7558525 C32.9540731,24.9695236 33.2624704,25.0541912 33.5519224,24.9775314 C33.8414721,24.9008715 34.0675454,24.6747982 34.1442053,24.3852485 C34.2208651,24.0956988 34.1361975,23.7873992 33.9225264,23.5775367 C33.0682328,22.8370122 31.9629636,22.4514668 30.8333781,22.5000018 C29.7037926,22.4513692 28.5985234,22.8369146 27.7442298,23.5775367 C27.4242115,23.8985316 27.4221607,24.4173773 27.7397376,24.7409112 C28.0593653,25.0663982 28.5803594,25.077238 28.9132683,24.7653252 C29.2284038,24.5095644 29.6016445,24.335151 30.0000805,24.2577099 L30.0000805,26.6667827 L25.8333972,26.6667827 C24.4533244,26.6682476 23.3348716,27.7867003 23.3334068,29.1667732 L23.3334068,35.0000516 C23.3342857,35.9201653 24.079986,36.6657679 25.0000996,36.6667445 L25.0000996,40.0000325 L23.838776,40.0000325 L3.23895245,0.448426018 C3.09559362,0.172841135 2.81073143,-9.76558749e-06 2.5,-9.76558749e-06 L0.833297592,-9.76558749e-06 C0.373045447,-9.76558749e-06 0,0.373133338 0,0.833385483 C0,1.29363763 0.373045447,1.66668308 0.833297592,1.66668308 L1.99462127,1.66668308 L10.0657818,17.1633035 L4.85789157,27.584162 C2.93192237,31.4799479 4.30701477,36.2016095 8.02360211,38.4540423 L13.786666,41.9135994 C12.7117678,44.4723786 13.5901824,47.4342814 15.8862673,48.9933574 C18.1823523,50.5524335 21.2593913,50.2762627 23.2412197,48.3332037 L40.0917411,48.3332037 C41.9730816,50.1730404 44.8534416,50.5248945 47.1222806,49.1919895 C49.3912172,47.8589868 50.4862326,45.1716924 49.7951219,42.6327372 L49.7951219,42.6327372 Z" id="Fill-3" fill="#FC5413" mask="url(#mask-2)"></path>
            </g>
        </g>
    </g>
</svg>