<?xml version="1.0" encoding="UTF-8"?>
<svg width="25px" height="25px" viewBox="0 0 25 25" version="1.1" xmlns="http://www.w3.org/2000/svg" xmlns:xlink="http://www.w3.org/1999/xlink">
    <title>Fill 1</title>
    <g id="Page-1" stroke="none" stroke-width="1" fill="none" fill-rule="evenodd">
        <g id="Artboard" transform="translate(-630.000000, -14824.000000)" fill="#FC5413">
            <path d="M648.640833,14847.3283 C647.9125,14847.2683 643.434167,14846.6775 637.835,14841.1767 C632.305833,14835.5475 631.73,14831.0567 631.6725,14830.3608 C632.764792,14828.6464 634.08401,14827.0875 635.594167,14825.7267 C635.6275,14825.76 635.671667,14825.81 635.728333,14825.875 C636.88651,14827.456 637.884219,14829.1485 638.706667,14830.9275 C638.439219,14831.1966 638.15651,14831.4501 637.86,14831.6867 C637.400156,14832.037 636.977917,14832.4342 636.6,14832.8717 L636.3975,14833.155 L636.4575,14833.4975 C636.633854,14834.2615 636.903958,14835.0007 637.261667,14835.6983 C638.543229,14838.33 640.669792,14840.4563 643.301667,14841.7375 C643.999219,14842.0957 644.738438,14842.3661 645.5025,14842.5425 L645.845,14842.6025 L646.128333,14842.4 C646.5675,14842.0204 646.96625,14841.5965 647.318333,14841.135 C647.579167,14840.8233 647.928333,14840.4075 648.06,14840.29 C649.84401,14841.1116 651.540885,14842.1105 653.125,14843.2717 C653.194167,14843.33 653.2425,14843.375 653.275,14843.4042 C651.914375,14844.9148 650.355469,14846.2343 648.640833,14847.3267 L648.640833,14847.3283 Z M654.195833,14841.995 C654.151667,14841.9583 649.160833,14838.3867 647.806667,14838.6208 C647.155833,14838.7358 646.783333,14839.1792 646.0375,14840.0683 C645.9175,14840.2117 645.628333,14840.5542 645.405,14840.7983 C644.933594,14840.6447 644.473802,14840.4576 644.029167,14840.2383 C641.73375,14839.1208 639.879167,14837.2663 638.761667,14834.9708 C638.542396,14834.5262 638.35526,14834.0664 638.201667,14833.595 C638.446667,14833.3708 638.79,14833.0817 638.936667,14832.9583 C639.820833,14832.2167 640.264167,14831.8442 640.379167,14831.1925 C640.615,14829.8433 637.041667,14824.8483 637.005,14824.8033 C636.675469,14824.336 636.153698,14824.0411 635.583333,14824 C634.135,14824 630,14829.3633 630,14830.2675 C630,14830.32 630.075833,14835.6567 636.656667,14842.3508 C643.343333,14848.9242 648.68,14849 648.7325,14849 C649.636667,14849 655,14844.865 655,14843.4167 C654.958906,14842.8461 654.663646,14842.3242 654.195833,14841.995 L654.195833,14841.995 Z" id="Fill-1"></path>
        </g>
    </g>
</svg>