<?xml version="1.0" encoding="UTF-8"?>
<svg width="60px" height="60px" viewBox="0 0 60 60" version="1.1" xmlns="http://www.w3.org/2000/svg" xmlns:xlink="http://www.w3.org/1999/xlink">
    <title>Group 8</title>
    <defs>
        <polygon id="path-1" points="0 0 28.4529391 0 28.4529391 28.442768 0 28.442768"></polygon>
    </defs>
    <g id="Page-1" stroke="none" stroke-width="1" fill="none" fill-rule="evenodd">
        <g id="Artboard" transform="translate(-310.000000, -1498.000000)">
            <g id="Group-8" transform="translate(310.000000, 1498.000000)">
                <path d="M51.9087954,50.5024382 C51.896132,50.5024382 51.896132,50.5151016 51.9087954,50.5024382 C51.4149222,51.0343017 50.9083856,51.5155115 50.3638587,52.0473749 C49.5407367,52.8325067 48.7049513,53.6556287 47.9198195,54.5800581 C46.6408145,55.947707 45.133868,56.5935412 43.1583752,56.5935412 C42.9684239,56.5935412 42.7658093,56.5935412 42.575858,56.5808778 C38.8148236,56.3402729 35.3197208,54.8713166 32.6983938,53.6176385 C25.5309005,50.1478626 19.2371829,45.2217939 14.0071922,38.9787299 C9.68896744,33.7740661 6.80170866,28.9619681 4.88953288,23.7952945 C3.71183522,20.642104 3.28127909,18.1854013 3.47123032,15.8679962 C3.59786448,14.3863766 4.16771819,13.1580253 5.21878169,12.1069618 L9.53700645,7.78873702 C10.1575138,7.20621989 10.8160114,6.8896345 11.4618456,6.8896345 C12.2596408,6.8896345 12.905475,7.3708443 13.3107043,7.7760736 C13.3233677,7.78873702 13.3360312,7.80140043 13.3486946,7.81406385 C14.1211629,8.53587854 14.8556411,9.28302007 15.6281094,10.0808153 C16.0206753,10.4860446 16.4259046,10.8912739 16.8311339,11.3091666 L20.2882464,14.7662791 C21.6305685,16.1086011 21.6305685,17.3496159 20.2882464,18.6919379 C19.9210073,19.059177 19.5664317,19.4264161 19.1991926,19.7809917 C18.1354657,20.8700454 17.1223925,21.8831187 16.0206753,22.8708651 C15.9953485,22.896192 15.9700216,22.9088554 15.9573582,22.9341822 C14.8683045,24.023236 15.0709191,25.0869629 15.2988606,25.8087776 C15.311524,25.8467678 15.3241874,25.8847581 15.3368508,25.9227483 C16.2359534,28.1008558 17.5022949,30.1523292 19.4271341,32.5963684 L19.4397975,32.6090318 C22.9349003,36.9145932 26.6199542,40.2703983 30.6849107,42.8410717 C31.2041107,43.1703205 31.7359742,43.4362522 32.2425108,43.6895206 C32.6983938,43.917462 33.1289499,44.1327401 33.496189,44.3606816 C33.5468426,44.3860084 33.5974963,44.4239987 33.64815,44.4493255 C34.0787061,44.6646036 34.4839354,44.7659109 34.9018281,44.7659109 C35.9528916,44.7659109 36.6113892,44.1074133 36.8266673,43.8921352 L41.1575555,39.561247 C41.5881116,39.1306909 42.2719361,38.6114909 43.0697313,38.6114909 C43.854863,38.6114909 44.5006972,39.1053641 44.8932631,39.5359202 L44.91859,39.561247 L51.896132,46.5387891 C53.2004638,47.8304575 53.2004638,49.1601161 51.9087954,50.5024382 L51.9087954,50.5024382 Z M47.3752926,37.1678615 C46.1469413,35.8888565 44.6653216,35.205032 43.0950581,35.205032 C41.537458,35.205032 40.0431749,35.8761931 38.7641699,37.1551981 L34.7625306,41.144174 C34.4332817,40.9668862 34.1040329,40.8022618 33.7874475,40.6376374 C33.3315646,40.4096959 32.9010084,40.1944178 32.5337694,39.9664763 C28.7853983,37.5857542 25.3789395,34.4832173 22.1117783,30.4689146 C20.5288513,28.4680949 19.4651244,26.7838606 18.692656,25.0742995 C19.7310561,24.1245433 20.6934757,23.1367969 21.6305685,22.1870407 C21.9851441,21.832465 22.3397197,21.465226 22.6942954,21.1106503 C25.3536127,18.451333 25.3536127,15.006884 22.6942954,12.3475667 L19.2371829,8.89045418 C18.844617,8.4978883 18.4393877,8.09265899 18.0594852,7.68742969 C17.2996803,6.90229792 16.5018851,6.09183931 15.6787631,5.33203437 C14.4504117,4.11634646 12.9814555,3.47051226 11.4365188,3.47051226 C9.89158209,3.47051226 8.39729904,4.11634646 7.13095747,5.33203437 C7.11829405,5.34469778 7.11829405,5.34469778 7.10563063,5.3573612 L2.80006929,9.70091279 C1.17915208,11.32183 0.254722734,13.2973229 0.0521080825,15.5894011 C-0.251813895,19.2871185 0.837239857,22.7315676 1.67302529,24.9856556 C3.72449864,30.5195682 6.78904524,35.6482516 11.3605383,41.144174 C16.9071144,47.7671404 23.5807345,52.9971311 31.2041107,56.6821851 C34.1166963,58.0624974 38.004365,59.696078 42.3479166,59.9746732 C42.6138483,59.9873366 42.8924434,60 43.1457118,60 C46.0709608,60 48.5276634,58.9489365 50.4525026,56.8594729 C50.465166,56.8341461 50.4904929,56.8214827 50.5031563,56.7961558 C51.1616539,55.9983606 51.9214588,55.2765459 52.719254,54.5040776 C53.2637809,53.9848775 53.8209712,53.4403507 54.3654981,52.870497 C55.6191762,51.5661651 56.2776738,50.0465552 56.2776738,48.4889551 C56.2776738,46.9186916 55.6065128,45.4117451 54.3275078,44.1454035 L47.3752926,37.1678615 Z" id="Fill-1" fill="#FC5413"></path>
                <path d="M32.3818084,14.2724059 C35.6996233,14.8295962 38.7135163,16.3998597 41.1195652,18.8059087 C43.5256142,21.2119577 45.0832144,24.2258506 45.6530681,27.5436655 C45.7923656,28.379451 46.5141803,28.9619681 47.3373024,28.9619681 C47.4386097,28.9619681 47.5272536,28.9493047 47.6285609,28.9366413 C48.5656537,28.7846803 49.186161,27.8982412 49.0342001,26.9611484 C48.3503756,22.9468456 46.4508633,19.2871185 43.5509411,16.3871963 C40.6510189,13.4872741 36.9912917,11.5877617 32.9769889,10.9039373 C32.0398962,10.7519763 31.1661205,11.3724837 31.0014961,12.296913 C30.8368717,13.2213424 31.4447156,14.1204449 32.3818084,14.2724059" id="Fill-3" fill="#FC5413"></path>
                <g id="Group-7" transform="translate(31.459832, 0.000000)">
                    <mask id="mask-2" fill="white">
                        <use xlink:href="#path-1"></use>
                    </mask>
                    <g id="Clip-6"></g>
                    <path d="M28.4269158,26.4672752 C27.2998718,19.8569722 24.1846715,13.8418497 19.3979004,9.05507859 C14.6111293,4.26830745 8.5960068,1.15310718 1.9857038,0.026063185 C1.06127445,-0.138561219 0.18749877,0.494609566 0.0228743659,1.41903891 C-0.129086623,2.35613168 0.491420747,3.22990736 1.42851351,3.39453176 C7.32966523,4.39494161 12.7116169,7.19355648 16.9918514,11.4611276 C21.2720859,15.7413621 24.0580374,21.1233138 25.0584472,27.0244655 C25.1977448,27.8602509 25.9195595,28.442768 26.7426815,28.442768 C26.8439888,28.442768 26.9326328,28.4301046 27.0339401,28.4174412 C27.9583694,28.2781436 28.5915402,27.3917045 28.4269158,26.4672752" id="Fill-5" fill="#FC5413" mask="url(#mask-2)"></path>
                </g>
            </g>
        </g>
    </g>
</svg>