<?xml version="1.0" encoding="UTF-8"?>
<svg width="54px" height="50px" viewBox="0 0 54 50" version="1.1" xmlns="http://www.w3.org/2000/svg" xmlns:xlink="http://www.w3.org/1999/xlink">
    <title>Group 4</title>
    <defs>
        <polygon id="path-1" points="0 0 52.5979358 0 52.5979358 50 0 50"></polygon>
    </defs>
    <g id="Page-1" stroke="none" stroke-width="1" fill="none" fill-rule="evenodd">
        <g id="Artboard" transform="translate(-1039.000000, -4561.000000)">
            <g id="Group-4" transform="translate(1039.407365, 4561.000000)">
                <mask id="mask-2" fill="white">
                    <use xlink:href="#path-1"></use>
                </mask>
                <g id="Clip-2"></g>
                <path d="M26.736034,6.03444374 L50.873809,6.03444374 L50.873809,1.72412678 L26.736034,1.72412678 L26.736034,6.03444374 Z M39.6669849,41.3790428 L50.873809,41.3790428 L50.873809,7.75857053 L39.6669849,7.75857053 L39.6669849,41.3790428 Z M50.873809,48.2755499 L26.736034,48.2755499 L26.736034,46.3962517 C27.7668463,46.0318144 28.4570358,45.0585449 28.4601608,43.965233 L28.4601608,43.1031696 L50.873809,43.1031696 L50.873809,48.2755499 Z M25.8739706,44.8272964 L5.18444924,44.8272964 C4.70837473,44.8272964 4.32238585,44.4413075 4.32238585,43.965233 L4.32238585,37.9307892 C4.79846035,37.9307892 5.18444924,37.5448004 5.18444924,37.0687258 C5.18444924,36.5925436 4.79846035,36.2066625 4.32238585,36.2066625 C2.89405456,36.2066625 1.73619567,35.0486958 1.73619567,33.6204723 C1.73619567,32.192141 2.89405456,31.0342821 4.32238585,31.0342821 C5.75071713,31.0342821 6.90857602,32.192141 6.90857602,33.6204723 L6.90857602,38.7928526 C6.90857602,39.2689271 7.29456491,39.654916 7.77063941,39.654916 L23.2877805,39.654916 C23.763855,39.654916 24.1498439,39.2689271 24.1498439,38.7928526 L24.1498439,33.6204723 C24.1498439,32.192141 25.3077028,31.0342821 26.736034,31.0342821 C28.1643653,31.0342821 29.3222242,32.192141 29.3222242,33.6204723 C29.3222242,35.0486958 28.1643653,36.2066625 26.736034,36.2066625 C26.2599595,36.2066625 25.8739706,36.5925436 25.8739706,37.0687258 C25.8739706,37.5448004 26.2599595,37.9307892 26.736034,37.9307892 L26.736034,43.965233 C26.736034,44.4413075 26.3500452,44.8272964 25.8739706,44.8272964 L25.8739706,44.8272964 Z M25.0119073,48.2755499 L23.9601899,48.2755499 L23.5291582,46.5514232 L25.0119073,46.5514232 L25.0119073,48.2755499 Z M7.09822997,48.2755499 L6.04651263,48.2755499 L6.04651263,46.5514232 L7.52926166,46.5514232 L7.09822997,48.2755499 Z M8.63270281,37.9307892 L22.4257171,37.9307892 L22.4257171,35.3445991 L8.63270281,35.3445991 L8.63270281,37.9307892 Z M7.14995377,22.4739926 C12.619746,20.8617186 18.4385661,20.8617186 23.9084661,22.4739926 C25.9909957,23.077006 27.3015476,25.1331349 26.9687912,27.2756857 L26.6584483,29.3101553 C24.308248,29.3523964 22.425286,31.2698409 22.4257171,33.6204723 L8.63270281,33.6204723 C8.63302608,31.2698409 6.75017187,29.3523964 4.39997155,29.3101553 L4.08962873,27.2670651 C3.76161361,25.1275315 5.0710879,23.0766827 7.14995377,22.4739926 L7.14995377,22.4739926 Z M28.4601608,41.3790428 L37.9428581,41.3790428 L37.9428581,39.654916 L28.4601608,39.654916 L28.4601608,41.3790428 Z M26.736034,11.2068241 L37.9428581,11.2068241 L37.9428581,37.9307892 L28.4601608,37.9307892 L28.4601608,37.5687226 C30.6405347,36.6132331 31.6335239,34.0712237 30.6781422,31.8908498 C30.2280373,30.8635936 29.3952841,30.0522841 28.3567132,29.6291188 L28.6756767,27.5860285 C29.0012134,25.5553305 28.2701836,23.4986627 26.736034,22.1291673 L26.736034,11.2068241 Z M26.736034,9.48269731 L37.9428581,9.48269731 L37.9428581,7.75857053 L26.736034,7.75857053 L26.736034,9.48269731 Z M51.7358724,0 L25.8739706,0 C25.3978961,0 25.0119073,0.385881126 25.0119073,0.862063392 L25.0119073,21.0429674 C24.8136327,20.9567611 24.6067375,20.887796 24.3998422,20.8188309 C18.6092547,19.1117299 12.4491652,19.1117299 6.65857764,20.8188309 C3.73187242,21.6526617 1.88393178,24.535294 2.34826068,27.5429254 L2.66722413,29.6291188 C0.466699569,30.5371948 -0.581030726,33.0572216 0.327045299,35.2577462 C0.7547365,36.2940541 1.5693864,37.1230358 2.59825906,37.5687226 L2.59825906,43.965233 C2.60127628,45.0585449 3.29157355,46.0318144 4.32238585,46.3962517 L4.32238585,49.1376133 C4.32238585,49.6136878 4.70837473,50.0000418 5.18444924,50.0000418 L7.77063941,50.0000418 C8.176348,50.0114223 8.5353974,49.7385793 8.63270281,49.3445085 L9.30511225,46.5514232 L21.7533076,46.5514232 L22.4257171,49.3445085 C22.5229147,49.7385793 22.8819641,50.0114223 23.2877805,50.0000418 L51.7358724,50.0000418 C52.2119469,50.0000418 52.5979358,49.6136878 52.5979358,49.1376133 L52.5979358,0.862063392 C52.5979358,0.385881126 52.2119469,0 51.7358724,0 L51.7358724,0 Z" id="Fill-1" fill="#FC5413" mask="url(#mask-2)"></path>
                <path d="M42.2531535,26.723922 C42.729228,26.723922 43.1152169,26.3379332 43.1152169,25.8618587 L43.1152169,22.4136051 C43.1152169,21.9375306 42.729228,21.5515417 42.2531535,21.5515417 C41.777079,21.5515417 41.3910901,21.9375306 41.3910901,22.4136051 L41.3910901,25.8618587 C41.3910901,26.3379332 41.777079,26.723922 42.2531535,26.723922" id="Fill-3" fill="#FC5413" mask="url(#mask-2)"></path>
            </g>
        </g>
    </g>
</svg>