<?xml version="1.0" encoding="UTF-8"?>
<svg width="52px" height="34px" viewBox="0 0 52 34" version="1.1" xmlns="http://www.w3.org/2000/svg" xmlns:xlink="http://www.w3.org/1999/xlink">
    <title>Fill 1</title>
    <g id="Page-1" stroke="none" stroke-width="1" fill="none" fill-rule="evenodd">
        <g id="Artboard" transform="translate(-1461.000000, -4486.000000)" fill="#FC5413">
            <path d="M1485.55012,4503.70757 L1485.55012,4501.84671 C1485.55012,4501.46285 1485.8612,4501.15217 1486.24486,4501.15217 C1486.62842,4501.15217 1486.9396,4501.46285 1486.9396,4501.84671 L1486.9396,4503.70757 C1486.9396,4504.09144 1486.62852,4504.40211 1486.24486,4504.40211 C1485.8612,4504.40211 1485.55012,4504.09144 1485.55012,4503.70757 L1485.55012,4503.70757 Z M1503.33689,4515.78013 C1502.88145,4515.78013 1502.51122,4515.4094 1502.51122,4514.95375 C1502.51122,4514.49861 1502.88155,4514.12789 1503.33689,4514.12789 C1503.79233,4514.12789 1504.16256,4514.49861 1504.16256,4514.95375 C1504.16256,4515.4094 1503.79233,4515.78013 1503.33689,4515.78013 L1503.33689,4515.78013 Z M1503.33689,4512.7388 C1502.11543,4512.7388 1501.12174,4513.73219 1501.12174,4514.95375 C1501.12174,4516.17532 1502.11543,4517.16911 1503.33689,4517.16911 C1504.55835,4517.16911 1505.55204,4516.17522 1505.55204,4514.95375 C1505.55204,4513.73229 1504.55835,4512.7388 1503.33689,4512.7388 L1503.33689,4512.7388 Z M1470.64717,4515.78013 C1470.19173,4515.78013 1469.82131,4515.4094 1469.82131,4514.95375 C1469.82131,4514.49861 1470.19183,4514.12789 1470.64717,4514.12789 C1471.10262,4514.12789 1471.47284,4514.49861 1471.47284,4514.95375 C1471.47284,4515.4094 1471.10262,4515.78013 1470.64717,4515.78013 L1470.64717,4515.78013 Z M1470.64717,4512.7388 C1469.42571,4512.7388 1468.43182,4513.73219 1468.43182,4514.95375 C1468.43182,4516.17532 1469.42571,4517.16911 1470.64717,4517.16911 C1471.86864,4517.16911 1472.86233,4516.17522 1472.86233,4514.95375 C1472.86233,4513.73229 1471.86864,4512.7388 1470.64717,4512.7388 L1470.64717,4512.7388 Z M1474.81512,4502.31859 L1465.52213,4502.31859 L1465.52213,4496.656 L1474.81502,4496.656 L1474.81512,4502.31859 Z M1474.90695,4495.26702 L1465.4302,4495.26702 C1464.71471,4495.26702 1464.13265,4495.84908 1464.13265,4496.56437 L1464.13265,4502.41032 C1464.13265,4503.12561 1464.71471,4503.70767 1465.4302,4503.70767 L1474.90695,4503.70767 C1475.62244,4503.70767 1476.2045,4503.12561 1476.2045,4502.41032 L1476.2045,4496.56437 C1476.2045,4495.84908 1475.62244,4495.26702 1474.90695,4495.26702 L1474.90695,4495.26702 Z M1508.3301,4514.25921 C1508.27537,4513.86242 1508.17582,4513.48056 1508.03456,4513.11856 L1510.93924,4513.11856 L1510.93924,4514.25921 L1508.3301,4514.25921 Z M1503.33689,4518.61092 C1501.31322,4518.61092 1499.66679,4516.97041 1499.66679,4514.95375 C1499.66679,4512.93028 1501.31322,4511.28386 1503.33689,4511.28386 C1505.35334,4511.28386 1506.99386,4512.93028 1506.99386,4514.95375 C1506.99386,4516.97041 1505.35334,4518.61092 1503.33689,4518.61092 L1503.33689,4518.61092 Z M1470.64717,4518.61092 C1468.63072,4518.61092 1466.99021,4516.97041 1466.99021,4514.95375 C1466.99021,4512.93028 1468.63072,4511.28386 1470.64717,4511.28386 C1472.67085,4511.28386 1474.31697,4512.93028 1474.31697,4514.95375 C1474.31707,4516.97041 1472.67085,4518.61092 1470.64717,4518.61092 L1470.64717,4518.61092 Z M1462.38948,4513.11856 L1465.9496,4513.11856 C1465.80835,4513.48056 1465.7088,4513.86242 1465.65406,4514.25921 L1462.38948,4514.25921 L1462.38948,4513.11856 Z M1462.38948,4488.54237 C1462.38948,4487.90658 1462.90698,4487.38908 1463.54297,4487.38908 L1502.81258,4487.38908 C1504.33589,4487.38908 1505.018,4488.51841 1505.018,4489.63691 C1505.018,4490.75592 1504.33589,4491.88525 1502.81258,4491.88525 L1462.38948,4491.88525 L1462.38948,4488.54237 Z M1501.59954,4493.27423 L1504.73339,4499.76269 L1497.04553,4499.76269 L1497.04553,4493.27423 L1501.59954,4493.27423 Z M1479.08823,4511.72958 L1488.01429,4511.72958 L1488.01429,4496.656 L1479.08823,4496.656 L1479.08823,4511.72958 Z M1498.33075,4514.25921 L1475.65312,4514.25921 C1475.59828,4513.86242 1475.49843,4513.48056 1475.35678,4513.11856 L1498.62709,4513.11856 C1498.48553,4513.48066 1498.38558,4513.86252 1498.33075,4514.25921 Z M1510.93914,4502.8821 L1510.93914,4511.72958 L1507.22223,4511.72958 C1506.29581,4510.60957 1504.8982,4509.89488 1503.33689,4509.89488 C1501.77157,4509.89488 1500.37026,4510.60957 1499.44143,4511.72958 L1489.40368,4511.72958 L1489.40368,4496.51194 C1489.40368,4495.82552 1488.83926,4495.26702 1488.14542,4495.26702 L1478.9573,4495.26702 C1478.26346,4495.26702 1477.69875,4495.82562 1477.69875,4496.51194 L1477.69875,4511.72958 L1474.54244,4511.72958 C1473.61371,4510.60957 1472.2125,4509.89488 1470.64707,4509.89488 C1469.08576,4509.89488 1467.68816,4510.60957 1466.76174,4511.72958 L1462.38948,4511.72958 L1462.38948,4493.27423 L1495.65604,4493.27423 L1495.65604,4500.45723 C1495.65604,4500.84109 1495.96712,4501.15177 1496.35078,4501.15177 L1505.84036,4501.15177 L1505.893,4501.15177 L1509.20901,4501.15177 C1510.1629,4501.15177 1510.93914,4501.92801 1510.93914,4502.8821 Z M1509.20901,4499.76279 L1506.27636,4499.76279 L1503.13499,4493.25849 C1505.28317,4493.09879 1506.40729,4491.35973 1506.40729,4489.63691 C1506.40729,4487.82979 1505.17249,4486 1502.81258,4486 L1463.54297,4486 C1462.14086,4486 1461,4487.14026 1461,4488.54237 L1461,4492.57979 L1461,4512.42412 L1461,4514.95375 C1461,4515.33762 1461.31108,4515.6483 1461.69474,4515.6483 L1465.65426,4515.6483 C1465.99452,4518.10255 1468.10079,4520 1470.64717,4520 C1473.20007,4520 1475.31176,4518.10255 1475.65282,4515.6483 L1498.33105,4515.6483 C1498.6721,4518.10255 1500.78399,4520 1503.33689,4520 C1505.88317,4520 1507.98955,4518.10255 1508.3298,4515.6483 L1511.63388,4515.6483 C1512.01744,4515.6483 1512.32862,4515.33762 1512.32862,4514.95375 L1512.32862,4512.42412 L1512.32862,4502.8821 C1512.32862,4501.16209 1510.92922,4499.76279 1509.20901,4499.76279 L1509.20901,4499.76279 Z" id="Fill-1"></path>
        </g>
    </g>
</svg>