<?xml version="1.0" encoding="UTF-8"?>
<svg width="63px" height="60px" viewBox="0 0 63 60" version="1.1" xmlns="http://www.w3.org/2000/svg" xmlns:xlink="http://www.w3.org/1999/xlink">
    <title>Group 11</title>
    <g id="Page-1" stroke="none" stroke-width="1" fill="none" fill-rule="evenodd">
        <g id="Artboard" transform="translate(-508.000000, -1498.000000)" fill="#FC5413">
            <g id="Group-11" transform="translate(508.000000, 1498.000000)">
                <path d="M51.4300868,11.0442216 L11.3562252,11.0442216 C10.6588053,11.0442216 10.0933934,11.6096334 10.0933934,12.3070533 C10.0933934,13.0044732 10.6588053,13.5698851 11.3562252,13.5698851 L51.4300868,13.5698851 C52.1275067,13.5698851 52.6929186,13.0044732 52.6929186,12.3070533 C52.6929186,11.6096334 52.1275067,11.0442216 51.4300868,11.0442216" id="Fill-1"></path>
                <path d="M51.4300868,20.6978128 L11.3562252,20.6978128 C10.6588053,20.6978128 10.0933934,21.2632247 10.0933934,21.9606445 C10.0933934,22.6580644 10.6588053,23.2234763 11.3562252,23.2234763 L51.4300868,23.2234763 C52.1275067,23.2234763 52.6929186,22.6580644 52.6929186,21.9606445 C52.6929186,21.2632247 52.1275067,20.6978128 51.4300868,20.6978128" id="Fill-3"></path>
                <path d="M51.4300868,30.3514208 L11.3562252,30.3514208 C10.6588053,30.3514208 10.0933934,30.9168327 10.0933934,31.6142526 C10.0933934,32.3116725 10.6588053,32.8770844 11.3562252,32.8770844 L51.4300868,32.8770844 C52.1275067,32.8770844 52.6929186,32.3116725 52.6929186,31.6142526 C52.6929186,30.9168327 52.1275067,30.3514208 51.4300868,30.3514208" id="Fill-5"></path>
                <path d="M60.2606485,37.5884403 C60.2606485,40.2112577 58.1267995,42.3723838 55.5039821,42.4057226 C54.8129606,42.4146466 54.2573146,42.9773644 54.2573146,43.6685544 L54.2573146,56.85336 L43.9569851,43.8130223 C43.2516515,42.9197793 42.1942404,42.4075747 41.056008,42.4075747 L7.34496635,42.4075747 C4.68763154,42.4075747 2.52566355,40.2456067 2.52566355,37.5882719 L2.52566355,7.34479797 C2.52566355,4.68746317 4.68746317,2.52549517 7.34496635,2.52549517 L55.4413457,2.52549517 C58.0986805,2.52549517 60.2606485,4.68746317 60.2606485,7.34479797 L60.2606485,37.5884403 Z M55.4413457,0 L7.34496635,0 C3.29498066,0 0,3.29481229 0,7.34496635 L0,37.5884403 C0,41.638426 3.29481229,44.9334067 7.34496635,44.9334067 L41.056008,44.9334067 C41.4165044,44.9334067 41.7514074,45.0955543 41.9750128,45.378597 L52.8614645,59.1608062 C53.2904906,59.7039922 53.9165184,60 54.5720123,60 C54.8156546,60 55.0635064,59.9590843 55.3066436,59.8745587 C56.2035909,59.5630602 56.7831465,58.7482811 56.7831465,57.7988 L56.7831465,44.8079654 C60.1885829,44.1718349 62.786312,41.1610756 62.786312,37.5884403 L62.786312,7.34479797 C62.786312,3.29481229 59.4914997,0 55.4413457,0 L55.4413457,0 Z" id="Fill-7"></path>
            </g>
        </g>
    </g>
</svg>