<?xml version="1.0" encoding="UTF-8"?>
<svg width="22px" height="25px" viewBox="0 0 22 25" version="1.1" xmlns="http://www.w3.org/2000/svg" xmlns:xlink="http://www.w3.org/1999/xlink">
    <title>Group 5</title>
    <g id="Page-1" stroke="none" stroke-width="1" fill="none" fill-rule="evenodd">
        <g id="Artboard" transform="translate(-1267.000000, -14824.000000)" fill="#FC5413">
            <g id="Group-5" transform="translate(1267.000000, 14824.000000)">
                <path d="M10.9863281,23.5351562 C5.22490234,23.5351562 1.46484375,21.8416504 1.46484375,20.6054687 C1.46484375,19.7746094 3.396875,18.4084473 7.678125,17.8759277 L10.3686523,22.0977539 C10.503125,22.3087891 10.7360352,22.4365234 10.9862793,22.4365234 C11.2365234,22.4365234 11.4694824,22.3087402 11.6039063,22.0977539 L14.2943848,17.8759277 C18.5757324,18.4084473 20.5078125,19.7746094 20.5078125,20.6054687 C20.5078125,21.8311523 16.7815918,23.5351562 10.9863281,23.5351562 L10.9863281,23.5351562 Z M5.6762207,12.0090332 C5.66816406,11.9964355 5.65976562,11.9841309 5.65097656,11.9720215 C4.81860352,10.8269043 4.39453125,9.46977539 4.39453125,8.10546875 C4.39453125,4.44248047 7.34404297,1.46484375 10.9863281,1.46484375 C14.6210449,1.46484375 17.578125,4.44379883 17.578125,8.10546875 C17.578125,9.47197266 17.1620605,10.7830566 16.374707,11.897998 C16.3041504,11.9910645 16.6722656,11.4191895 10.9863281,20.3412598 L5.6762207,12.0090332 Z M15.1599609,16.5178223 C17.8202637,12.3433594 17.4858398,12.8641602 17.5625,12.7553223 C18.5310547,11.389209 19.0429688,9.78134766 19.0429688,8.10546875 C19.0429688,3.66113281 15.4364746,0 10.9863281,0 C6.55068359,0 2.9296875,3.65390625 2.9296875,8.10546875 C2.9296875,9.78027344 3.45234375,11.4302246 4.45263672,12.8147461 L6.81259766,16.5178711 C4.2894043,16.9056152 0,18.0611328 0,20.6054688 C0,21.532959 0.605371094,22.8547363 3.48935547,23.8847168 C5.503125,24.6039062 8.16557617,25 10.9863281,25 C16.2609863,25 21.9726562,23.5121094 21.9726562,20.6054688 C21.9726562,18.0606934 17.6882812,16.9063965 15.1599609,16.5178223 L15.1599609,16.5178223 Z" id="Fill-1"></path>
                <path d="M10.9863281,10.3027344 C9.77475586,10.3027344 8.7890625,9.31704102 8.7890625,8.10546875 C8.7890625,6.89389648 9.77475586,5.90820312 10.9863281,5.90820312 C12.1979004,5.90820312 13.1835938,6.89389648 13.1835938,8.10546875 C13.1835938,9.31704102 12.1979004,10.3027344 10.9863281,10.3027344 M10.9863281,4.44335938 C8.96704102,4.44335938 7.32421875,6.08618164 7.32421875,8.10546875 C7.32421875,10.1247559 8.96704102,11.7675781 10.9863281,11.7675781 C13.0056152,11.7675781 14.6484375,10.1247559 14.6484375,8.10546875 C14.6484375,6.08618164 13.0056152,4.44335938 10.9863281,4.44335938" id="Fill-3"></path>
            </g>
        </g>
    </g>
</svg>