<?xml version="1.0" encoding="UTF-8"?>
<svg width="23px" height="30px" viewBox="0 0 23 30" version="1.1" xmlns="http://www.w3.org/2000/svg" xmlns:xlink="http://www.w3.org/1999/xlink">
    <title>Group 6</title>
    <defs>
        <polygon id="path-1" points="0 0 22.4898523 0 22.4898523 30 0 30"></polygon>
    </defs>
    <g id="Page-1" stroke="none" stroke-width="1" fill="none" fill-rule="evenodd">
        <g id="Artboard" transform="translate(-1257.000000, -452.000000)">
            <g id="Group-6" transform="translate(1257.000000, 452.000000)">
                <g id="Group-3">
                    <mask id="mask-2" fill="white">
                        <use xlink:href="#path-1"></use>
                    </mask>
                    <g id="Clip-2"></g>
                    <path d="M20.1066016,28.9890851 C14.1995658,28.9893195 8.29245179,28.9893195 2.38541593,28.9890851 C1.46814958,28.9890851 1.01939923,28.5420535 1.01924298,27.6245528 C1.01865705,23.2113463 1.01865705,18.7981397 1.01924298,14.3849331 C1.01939923,13.463448 1.46580583,13.0154008 2.38049405,13.0153227 C5.33877761,13.0148539 8.29706117,13.0150186 11.2553447,13.0150186 C14.2038627,13.0150186 17.1523806,13.0148539 20.1008204,13.0152445 C21.0187899,13.0154008 21.4676183,13.4614168 21.4678527,14.3795425 C21.4687902,18.7927491 21.4685363,23.2059556 21.4679308,27.6191622 C21.4677746,28.5397879 21.0202742,28.989007 20.1066016,28.9890851 M6.6745599,8.43485034 C6.68424741,6.10414539 8.42635815,4.10375321 10.6460474,3.86906552 C13.1101899,3.60844032 15.2187853,5.118754 15.7209732,7.50805274 C15.7630045,7.70781852 15.8012858,7.91305306 15.8027702,8.11602197 C15.8118327,9.37516357 15.8100358,10.6344614 15.8107389,11.8936812 C15.8107389,11.9207906 15.7979264,11.9479781 15.7849576,11.9996187 L6.67370053,11.9996187 L6.67370053,11.7147748 C6.67370053,10.6214145 6.67002865,9.52813244 6.6745599,8.43485034 M3.93682339,7.57164654 C4.30447993,4.45937848 6.0654188,2.3414862 9.03213987,1.37086045 C13.3600339,-0.0452344103 17.8965218,2.83367409 18.5441004,7.34047448 C18.6447255,8.04094378 18.6142567,8.76164747 18.6247255,9.47328865 C18.6369911,10.301883 18.6276161,11.1307118 18.6276161,11.9903219 L16.8369116,11.9903219 C16.8317553,11.8782905 16.8229272,11.7750092 16.8228491,11.6716497 C16.8217553,10.5978208 16.8280835,9.52406994 16.8208178,8.4503191 C16.8017553,5.64781691 14.9428476,3.42250267 12.1879236,2.89586164 C9.20565563,2.32578307 6.1299501,4.50984727 5.74604355,7.52305275 C5.63205909,8.41781908 5.68244975,9.33414792 5.66705911,10.2407111 C5.65729348,10.8143053 5.66518411,11.3882901 5.66518411,11.9818062 L3.89955773,11.9818062 C3.88713585,11.9607125 3.86940146,11.9446187 3.86947959,11.9286812 C3.88221397,10.4752426 3.76737013,9.00664766 3.93682339,7.57164654 M22.4842598,14.180558 C22.4557441,12.9489945 21.5258215,12.0293844 20.2958987,12.0083688 C20.0851173,12.004775 19.8742577,12.0079 19.6384763,12.0079 C19.6384763,11.859853 19.6386325,11.7543061 19.6384763,11.6487591 C19.6367575,10.5064145 19.6541794,9.36360107 19.6298825,8.22172517 C19.5478512,4.36758154 16.9019898,1.10851649 13.1479243,0.224687676 C12.7518303,0.131406353 12.3472987,0.0739844328 11.9466734,0 L10.5404223,0 C10.3213596,0.0377344045 10.102922,0.079375062 9.88315616,0.112734463 C6.00612188,0.702031798 2.94783824,4.159847 2.86033817,8.07485006 C2.83369753,9.26547599 2.85135379,10.4571957 2.84869754,11.6483685 C2.84846316,11.7615717 2.84869754,11.8747749 2.84869754,12.0105563 C2.57057232,12.0105563 2.33705651,12.0046969 2.10385321,12.0115719 C1.08322741,12.0417282 0.214242355,12.7968069 0.0456484732,13.8029795 C0.0168203256,13.9752453 0.00213281417,14.1519642 0.00205468911,14.3266518 C-0.000289062726,18.7791553 -0.000523437909,23.2315806 0.000726563068,27.6840841 C0.00103906331,28.7113506 0.51486759,29.5056481 1.39752453,29.8486171 C1.55096215,29.9083046 1.7113529,29.9500234 1.86854052,30.0000234 L20.6185552,30.0000234 C22.0676188,29.5054137 22.4869941,28.913382 22.4869941,27.3619745 C22.4869941,23.4368152 22.4869941,19.5116559 22.486916,15.5864966 C22.486916,15.1178243 22.495041,14.6489958 22.4842598,14.180558" id="Fill-1" fill="#FC5413" mask="url(#mask-2)"></path>
                </g>
                <path d="M12.201447,20.9548601 C11.9240249,21.1541572 11.8435561,21.3800167 11.9183999,21.7086888 C12.0869157,22.4486113 12.2319158,23.1938462 12.3913691,23.9604093 L10.0962891,23.9604093 C10.2544143,23.1982212 10.3977737,22.4540019 10.5669145,21.7157201 C10.6420708,21.3877511 10.5664458,21.1600165 10.2920705,20.9578289 C9.6609763,20.4927504 9.45097613,19.7273592 9.73753886,19.0336086 C10.0264453,18.3340768 10.7478521,17.9349359 11.5171496,18.0490766 C12.2203533,18.1533736 12.7959006,18.758374 12.8630882,19.5080621 C12.9166038,20.105172 12.6895724,20.6042348 12.201447,20.9548601 M13.8576202,19.2971245 C13.6960576,18.1406392 12.8202756,17.239076 11.7267592,17.0547008 C10.5619145,16.8582163 9.43316362,17.4086074 8.90175695,18.4322019 C8.36363153,19.4686871 8.55745981,20.6694693 9.38910109,21.5365012 C9.45949177,21.6099388 9.50589805,21.7582201 9.48699179,21.8571265 C9.33324167,22.6610333 9.16144466,23.4615027 8.9948039,24.2629877 C8.89550695,24.74041 9.09246023,24.9920508 9.58613249,24.9982227 C10.1326173,25.0050195 10.6791802,24.9997852 11.2257431,24.999707 C11.7917592,24.9996289 12.3579315,25.006582 12.9237913,24.9974414 C13.3944948,24.9899414 13.5895731,24.7311131 13.4932449,24.2686908 C13.3283229,23.4768933 13.168479,22.6838458 12.9939477,21.8941577 C12.9580101,21.7313451 12.9884789,21.63072 13.1064477,21.5120481 C13.716292,20.8989226 13.9769172,20.1503282 13.8576202,19.2971245" id="Fill-4" fill="#FC5413"></path>
            </g>
        </g>
    </g>
</svg>