<?xml version="1.0" encoding="UTF-8"?>
<svg width="37px" height="50px" viewBox="0 0 37 50" version="1.1" xmlns="http://www.w3.org/2000/svg" xmlns:xlink="http://www.w3.org/1999/xlink">
    <title>Group 8</title>
    <defs>
        <polygon id="path-1" points="0 0 16.6666018 0 16.6666018 50 0 50"></polygon>
        <polygon id="path-3" points="0 50 36.5608398 50 36.5608398 0 0 0"></polygon>
    </defs>
    <g id="Page-1" stroke="none" stroke-width="1" fill="none" fill-rule="evenodd">
        <g id="Artboard" transform="translate(-1670.000000, -4560.000000)">
            <g id="Group-8" transform="translate(1670.000000, 4560.000000)">
                <g id="Group-3">
                    <mask id="mask-2" fill="white">
                        <use xlink:href="#path-1"></use>
                    </mask>
                    <g id="Clip-2"></g>
                    <path d="M14.9999027,48.3333008 L1.66660038,48.3333008 L1.66660038,23.925 C1.66494141,20.7941406 3.40498047,17.9791992 6.20576172,16.5791992 C6.48828125,16.4375 6.66660038,16.1492187 6.66660038,15.8333984 L6.66660038,13.3333984 L9.99990234,13.3333984 L9.99990234,15.8333984 C9.99990234,16.1492187 10.1782227,16.4383789 10.4607422,16.5791992 C13.2616211,17.9783203 15.0007812,20.7933594 14.9999027,23.925 L14.9999027,48.3333008 Z M6.66660156,4.16669922 L9.99990234,4.16669922 L9.99990234,1.66669922 L6.66660156,1.66669922 L6.66660156,4.16669922 Z M6.66660156,11.6666992 L9.99990234,11.6666992 L9.99990234,5.83339844 L6.66660156,5.83339844 L6.66660156,11.6666992 Z M11.6666016,15.3333008 L11.6666016,0.833300781 C11.6666016,0.373339844 11.2932617,0 10.8333008,0 L5.83330078,0 C5.37333984,0 4.9999997,0.373339844 4.9999997,0.833300781 L4.9999997,15.3333008 C1.90166016,17.0866211 -0.00087890625,20.3333008 -3.0438597e-07,23.925 L-3.0438597e-07,49.1666992 C-3.0438597e-07,49.6275391 0.373339844,50 0.833300781,50 L15.8333008,50 C16.2932617,50 16.6666018,49.6275391 16.6666018,49.1666992 L16.6666018,23.9258789 C16.6673828,20.3333008 14.7649414,17.0866211 11.6666016,15.3333008 L11.6666016,15.3333008 Z" id="Fill-1" fill="#FC5413" mask="url(#mask-2)"></path>
                </g>
                <path d="M34.5765625,29.9833008 C33.9416016,32.4474609 31.7223633,34.1666016 29.1774414,34.1666016 L29.1666016,34.1666016 C26.6048828,34.1666016 24.3807617,32.4316406 23.7616211,29.9583008 L23.6149414,29.3399414 C23.5999023,29.2824219 23.5874023,29.2245117 23.5742188,29.1666992 L34.7689453,29.1666992 C34.7520508,29.2444336 34.734375,29.3222656 34.7140625,29.4 L34.5765625,29.9833008 Z M24.8882813,17.5 L33.4441406,17.5 L34.8349609,27.2141602 C34.8491211,27.309375 34.8605469,27.4046875 34.8696289,27.5 L23.4617188,27.5 C23.4714844,27.3897461 23.4833984,27.2794922 23.4999023,27.1691406 L24.8882813,17.5 Z M33.1907227,48.3333008 L25.1423828,48.3333008 C25.4865234,47.3632812 26.4140625,46.6666016 27.4999023,46.6666016 L30.8332031,46.6666016 C31.9198242,46.6666016 32.846582,47.3632812 33.1907227,48.3333008 L33.1907227,48.3333008 Z M36.4832031,26.9733398 L34.9915039,16.5483398 C34.9332031,16.1383789 34.581543,15.8333008 34.1665039,15.8333008 L24.1665039,15.8333008 C23.7523438,15.8333008 23.4006836,16.1382812 23.3407227,16.5483398 L21.8499023,26.9275391 C21.7082031,27.8775391 21.7598633,28.8300781 21.996582,29.7416992 L22.1416016,30.3525391 C22.8814453,33.3060547 25.3644531,35.4426758 28.3307617,35.7841797 L28.3307617,45 L27.4999023,45 C25.2024414,45 23.3332031,46.8691406 23.3332031,49.1666992 C23.3332031,49.6275391 23.7056641,50 24.1665039,50 L34.1665039,50 C34.6273438,50 34.9998047,49.6275391 34.9998047,49.1666992 C34.9999023,46.8691406 33.1307617,45 30.8332031,45 L29.9974609,45 L29.9974609,35.7858398 C32.9504883,35.4511719 35.4351563,33.3307617 36.1941406,30.3833984 L36.3307617,29.8017578 C36.5732422,28.8716797 36.6240234,27.9183594 36.4832031,26.9733398 L36.4832031,26.9733398 Z" id="Fill-4" fill="#FC5413"></path>
                <mask id="mask-4" fill="white">
                    <use xlink:href="#path-3"></use>
                </mask>
                <g id="Clip-7"></g>
                <path d="M4.99990234,40.8333008 L11.6666016,40.8333008 L11.6666016,27.5 L4.99990234,27.5 L4.99990234,40.8333008 Z M4.16660156,25.8333008 C3.70664063,25.8333008 3.33330078,26.2057617 3.33330078,26.6666016 L3.33330078,41.6666016 C3.33330078,42.1274414 3.70664063,42.4999023 4.16660156,42.4999023 L12.4999023,42.4999023 C12.9598633,42.4999023 13.3332031,42.1274414 13.3332031,41.6666016 L13.3332031,26.6666016 C13.3332031,26.2058594 12.9598633,25.8333008 12.4999023,25.8333008 L4.16660156,25.8333008 Z" id="Fill-6" fill="#FC5413" mask="url(#mask-4)"></path>
            </g>
        </g>
    </g>
</svg>