<?xml version="1.0" encoding="UTF-8"?>
<svg width="28px" height="20px" viewBox="0 0 28 20" version="1.1" xmlns="http://www.w3.org/2000/svg" xmlns:xlink="http://www.w3.org/1999/xlink">
    <title>Fill 1</title>
    <g id="Page-1" stroke="none" stroke-width="1" fill="none" fill-rule="evenodd">
        <g id="Artboard" transform="translate(-904.000000, -14827.000000)" fill="#FC5413">
            <path d="M930,14844 L923,14837.0038 L930,14830 L930,14844 Z M907,14845 L914.280915,14838 L915.520312,14839.1929 C916.316237,14839.963 917.374435,14840.3871 918.5,14840.3871 C919.625565,14840.3871 920.683763,14839.963 921.478115,14839.1944 L922.719085,14838 L930,14845 L907,14845 Z M906,14844 L906,14830 L913,14837.0038 L906,14844 Z M930,14829 C929.483478,14829.4939 920.594571,14837.9946 920.287658,14838.2881 C919.810125,14838.7472 919.175287,14839 918.5,14839 C917.824713,14839 917.189875,14838.7472 916.710769,14838.2866 C916.504363,14838.0892 907.713546,14829.6824 907,14829 L930,14829 Z M929.539062,14827 L906.460938,14827 C905.101242,14827 904,14828.1257 904,14829.5 L904,14844.5 C904,14845.8825 905.109336,14847 906.460938,14847 L929.539062,14847 C930.887383,14847 932,14845.8872 932,14844.5 L932,14829.5 C932,14828.1281 930.903133,14827 929.539062,14827 L929.539062,14827 Z" id="Fill-1"></path>
        </g>
    </g>
</svg>