<?xml version="1.0" encoding="UTF-8"?>
<svg width="41px" height="40px" viewBox="0 0 41 40" version="1.1" xmlns="http://www.w3.org/2000/svg" xmlns:xlink="http://www.w3.org/1999/xlink">
    <title>Group 5</title>
    <g id="Page-1" stroke="none" stroke-width="1" fill="none" fill-rule="evenodd">
        <g id="Artboard" transform="translate(-1667.000000, -4642.000000)" fill="#FC5413">
            <g id="Group-5" transform="translate(1667.407365, 4642.000000)">
                <path d="M20,37.3333594 C10.4424219,37.3333594 2.66664062,29.5576562 2.66664062,20 C2.66664062,10.4423438 10.4424219,2.66664062 20,2.66664062 C29.5575781,2.66664062 37.3333594,10.4424219 37.3333594,20 C37.3333594,29.5575781 29.5575781,37.3333594 20,37.3333594 M20,0 C8.94609375,0 0,8.94507813 0,20 C0,31.0539063 8.94507812,40 20,40 C31.0539063,40 40,31.0549219 40,20 C40,8.94609375 31.0549219,0 20,0" id="Fill-1"></path>
                <path d="M29.0113281,18.6666406 L21.3333594,18.6666406 L21.3333594,10.9886719 C21.3333594,10.2523438 20.7364063,9.6553125 20,9.6553125 C19.2635937,9.6553125 18.6666406,10.2522656 18.6666406,10.9886719 L18.6666406,18.6666406 L10.9886719,18.6666406 C10.2523437,18.6666406 9.6553125,19.2635938 9.6553125,20 C9.6553125,20.7364063 10.2522656,21.3333594 10.9886719,21.3333594 L18.6666406,21.3333594 L18.6666406,29.0113281 C18.6666406,29.7476563 19.2635937,30.3446875 20,30.3446875 C20.7364063,30.3446875 21.3333594,29.7477344 21.3333594,29.0113281 L21.3333594,21.3333594 L29.0113281,21.3333594 C29.7476562,21.3333594 30.3446875,20.7364063 30.3446875,20 C30.3446875,19.2635938 29.7476562,18.6666406 29.0113281,18.6666406" id="Fill-3"></path>
            </g>
        </g>
    </g>
</svg>