<?xml version="1.0" encoding="UTF-8"?>
<svg width="41px" height="40px" viewBox="0 0 41 40" version="1.1" xmlns="http://www.w3.org/2000/svg" xmlns:xlink="http://www.w3.org/1999/xlink">
    <title>Group 16</title>
    <g id="Page-1" stroke="none" stroke-width="1" fill="none" fill-rule="evenodd">
        <g id="Artboard" transform="translate(-1256.000000, -4643.000000)" fill="#FC5413">
            <g id="Group-16" transform="translate(1256.407365, 4643.000000)">
                <path d="M29.3022525,31.462324 C28.1111741,31.462324 27.1422541,30.4933309 27.1422541,29.3023256 C27.1422541,28.1112472 28.1112472,27.1423271 29.3022525,27.1423271 C30.4932579,27.1423271 31.462251,28.1113202 31.462251,29.3023256 C31.462324,30.4933309 30.4933309,31.462324 29.3022525,31.462324 L29.3022525,31.462324 Z M32.5581395,29.3023256 C32.5581395,27.5070145 31.0975636,26.0465116 29.3023256,26.0465116 C27.5070876,26.0465116 26.0465116,27.5070876 26.0465116,29.3023256 C26.0465116,31.0975636 27.5070876,32.5581395 29.3023256,32.5581395 C31.0975636,32.5581395 32.5581395,31.0976366 32.5581395,29.3023256 Z" id="Fill-1"></path>
                <path d="M29.7674419,23.6229972 L29.7674419,21.9583982 C29.7674419,21.6474448 29.5591938,21.3953488 29.3023256,21.3953488 C29.0454574,21.3953488 28.8372093,21.6474448 28.8372093,21.9583982 L28.8372093,23.6229972 C28.8372093,23.9339506 29.0454574,24.1860465 29.3023256,24.1860465 C29.5591938,24.1860465 29.7674419,23.9339506 29.7674419,23.6229972" id="Fill-3"></path>
                <path d="M33.2403611,26.0465116 C33.4149247,26.0465116 33.5895792,25.9799251 33.7227533,25.8466612 L35.1490078,24.4204183 C35.415447,24.1539813 35.415447,23.7219877 35.1490078,23.4556417 C34.8825687,23.1892047 34.4505716,23.1892047 34.1842234,23.4556417 L32.7579689,24.8818846 C32.4915297,25.1483216 32.4915297,25.5803151 32.7579689,25.8466612 C32.891143,25.9798342 33.0657975,26.0465116 33.2403611,26.0465116 Z" id="Fill-5"></path>
                <path d="M37.2093023,29.3023256 C37.2093023,29.0454574 36.9572064,28.8372093 36.646253,28.8372093 L34.981654,28.8372093 C34.6707006,28.8372093 34.4186047,29.0454574 34.4186047,29.3023256 C34.4186047,29.5591938 34.6707006,29.7674419 34.981654,29.7674419 L36.646253,29.7674419 C36.9572064,29.7674419 37.2093023,29.5591938 37.2093023,29.3023256" id="Fill-7"></path>
                <path d="M34.1842234,35.1489932 C34.3173975,35.2821619 34.492052,35.3488372 34.6666156,35.3488372 C34.8411792,35.3488372 35.0158338,35.2822529 35.1490078,35.1489932 C35.415447,34.882565 35.415447,34.4505854 35.1490078,34.1841572 L33.7227533,32.7579608 C33.4563142,32.4915325 33.0243171,32.4915325 32.7579689,32.7579608 C32.4915297,33.0243891 32.4915297,33.4563686 32.7579689,33.7227969 L34.1842234,35.1489932 Z" id="Fill-9"></path>
                <path d="M28.8372093,34.981654 L28.8372093,36.646253 C28.8372093,36.9572064 29.0454574,37.2093023 29.3023256,37.2093023 C29.5591938,37.2093023 29.7674419,36.9572064 29.7674419,36.646253 L29.7674419,34.981654 C29.7674419,34.6707006 29.5591938,34.4186047 29.3023256,34.4186047 C29.0454574,34.4186047 28.8372093,34.6707006 28.8372093,34.981654" id="Fill-11"></path>
                <path d="M23.9381043,35.3488372 C24.1126622,35.3488372 24.287311,35.2822529 24.4204808,35.1489932 L25.8466888,33.7227969 C26.1131192,33.4563686 26.1131192,33.0243891 25.8466888,32.7579608 C25.5802583,32.4915325 25.1482753,32.4915325 24.8818448,32.7579608 L23.4556368,34.1841572 C23.1892063,34.4505854 23.1892063,34.882565 23.4556368,35.1489932 C23.5888975,35.2821619 23.7635464,35.3488372 23.9381043,35.3488372" id="Fill-13"></path>
                <path d="M21.3953488,29.3023256 C21.3953488,29.5591938 21.6474448,29.7674419 21.9583982,29.7674419 L23.6229972,29.7674419 C23.9339506,29.7674419 24.1860465,29.5591938 24.1860465,29.3023256 C24.1860465,29.0454574 23.9339506,28.8372093 23.6229972,28.8372093 L21.9583982,28.8372093 C21.6474448,28.8372093 21.3953488,29.0454574 21.3953488,29.3023256" id="Fill-15"></path>
                <path d="M24.8818978,25.8466612 C25.0150719,25.9798342 25.1897265,26.0465116 25.36429,26.0465116 C25.5388536,26.0465116 25.7135082,25.9799251 25.8466823,25.8466612 C26.1131214,25.5802242 26.1131214,25.1482306 25.8466823,24.8818846 L24.4204278,23.4556417 C24.1539886,23.1892047 23.7219915,23.1892047 23.4556433,23.4556417 C23.1892042,23.7220787 23.1892042,24.1540723 23.4556433,24.4204183 L24.8818978,25.8466612 Z" id="Fill-17"></path>
                <path d="M7.6045385,31.1435411 C7.85458661,31.3409211 8.21588758,31.2994083 8.41510599,31.0505649 C8.61440176,30.8017216 8.57734327,30.438135 8.3320145,30.2350801 C8.30864986,30.2158008 6.14061199,28.3858186 6.40241979,25.7258921 C6.97686511,25.8281969 7.93427398,26.1203411 8.59157868,26.9531618 C8.75311967,27.1577715 9.03032339,27.2295248 9.27023651,27.128697 C9.5099949,27.0278692 9.65381899,26.7791035 9.62217614,26.5198431 C9.54171511,25.8612361 9.53041962,24.1229863 10.2289606,22.9341197 C11.0225849,24.3270518 10.8430175,26.5140127 10.8408512,26.5385783 C10.8178734,26.7952733 10.9652564,27.0366537 11.2034674,27.132273 C11.4416011,27.22797 11.7140081,27.1550506 11.8734602,26.9531618 C12.5311518,26.1198746 13.4894117,25.827886 14.0630833,25.7257366 C14.3275989,28.3646735 12.2270246,30.1564857 12.1318639,30.236013 C11.8875409,30.4393011 11.8508692,30.802188 12.0498556,31.0505649 C12.249074,31.2994083 12.6105297,31.3407656 12.860423,31.1435411 C13.6662712,30.507323 14.8152392,30.5399735 15.4789653,30.6289849 C15.2778127,31.1600995 14.796826,31.6503233 14.0425039,32.0913381 C13.1515527,32.6122689 12.1024647,32.9347314 11.3793212,33.1135317 C11.1942608,33.1593201 11.0046359,33.1936031 10.8127673,33.2164585 L10.8127673,29.812645 C10.8127673,29.4906489 10.552971,29.2296005 10.2325195,29.2296005 C9.91206794,29.2296005 9.65227166,29.4906489 9.65227166,29.812645 L9.65227166,33.2164585 C9.46040305,33.1936031 9.27077807,33.1592424 9.08571771,33.1135317 C8.36257422,32.9347314 7.3134862,32.6121912 6.42253505,32.0913381 C5.66906394,31.6507898 5.18823193,31.1612656 4.9867699,30.6307729 C5.65243017,30.5434717 6.80487966,30.5122206 7.6045385,31.1435411 Z M8.80835926,34.2459595 C9.08401565,34.3141368 9.36624818,34.3617132 9.65219429,34.3893107 L9.65219429,36.6262579 C9.65219429,36.9482539 9.91199057,37.2093023 10.2324421,37.2093023 C10.5528936,37.2093023 10.8126899,36.9482539 10.8126899,36.6262579 L10.8126899,34.3893107 C11.098636,34.3617132 11.3808685,34.3140591 11.6566023,34.2459595 C13.497922,33.7905629 16.6072765,32.6593789 16.7432866,30.1992423 C16.758373,29.9259111 16.5822872,29.6789334 16.3199378,29.6053143 C16.2584315,29.5880562 15.3585059,29.343333 14.2903084,29.4356095 C14.9502435,28.355267 15.5107629,26.8136975 15.1170454,24.965913 C15.0597169,24.6970129 14.8232853,24.5049192 14.5496404,24.5049192 C14.4800107,24.5049192 13.1992878,24.5164246 11.9993353,25.2906299 C11.9256825,24.1536155 11.6330055,22.5611268 10.6427933,21.566142 C10.5340162,21.4567629 10.3864012,21.3953488 10.2325195,21.3953488 C10.0786377,21.3953488 9.9310227,21.4567629 9.82224558,21.566142 C8.79095183,22.6024841 8.50160159,24.1547039 8.44032742,25.2743824 C7.24780215,24.5163469 5.98456401,24.5049192 5.91539847,24.5049192 C5.64175361,24.5049192 5.40532198,24.6970129 5.34799349,24.965913 C4.95427602,26.8137753 5.51479539,28.355267 6.17480792,29.4356095 C5.10684251,29.3430998 4.20668476,29.5880562 4.14517849,29.6053143 C3.88282912,29.6789334 3.70674326,29.9259888 3.7218297,30.1992423 C3.85768505,32.6593789 6.96703958,33.7906406 8.80835926,34.2459595 Z" id="Fill-19"></path>
                <path d="M29.893809,14.0240091 L29.893809,9.69240833 C29.893809,9.36599763 29.6289822,9.10137013 29.3023256,9.10137013 C28.975669,9.10137013 28.7108422,9.36599763 28.7108422,9.69240833 L28.7108422,14.0240091 C27.2833955,13.6549648 26.2992459,11.951908 26.2992459,9.70391387 C26.2992459,7.55497779 28.4024033,5.14653653 29.3023256,4.21442989 C30.2024056,5.14677295 32.3054052,7.5552142 32.3054052,9.70391387 C32.3054052,11.951908 31.3212557,13.6549648 29.893809,14.0240091 M29.7027993,2.94684997 C29.4764583,2.73864691 29.1281929,2.73864691 28.9018519,2.94684997 C28.7472775,3.08893555 25.1162791,6.4643941 25.1162791,9.70399268 C25.1162791,12.6665125 26.5960129,14.8829846 28.7108422,15.2320912 L28.7108422,17.0833804 C28.7108422,17.4097911 28.975669,17.6744186 29.3023256,17.6744186 C29.6289822,17.6744186 29.893809,17.4097911 29.893809,17.0833804 L29.893809,15.2320912 C32.0086383,14.8829846 33.4883721,12.6665125 33.4883721,9.70399268 C33.4883721,6.4643941 29.8573736,3.08893555 29.7027993,2.94684997" id="Fill-21"></path>
                <path d="M3.72093023,10.2441244 C3.72093023,10.5645745 3.98072845,10.8243696 4.30118235,10.8243696 L5.26865604,10.8243696 L4.17399108,11.9190215 C3.94738329,12.1456266 3.94738329,12.5130379 4.17399108,12.7395656 C4.2872563,12.8528295 4.43580084,12.9095388 4.58426801,12.9095388 C4.73281255,12.9095388 4.88127973,12.8529069 4.99454494,12.7395656 L6.90976375,10.8243696 L8.82018581,10.8243696 L6.04170659,13.6028158 C5.8150988,13.8294209 5.8150988,14.1968322 6.04170659,14.4234373 C6.1549718,14.5367011 6.30351634,14.5934104 6.45198352,14.5934104 C6.60052806,14.5934104 6.74899523,14.5367785 6.86226044,14.4234373 L9.66379502,11.621936 L9.66379502,13.5553904 L7.74857621,15.4705865 C7.52196841,15.6971916 7.52196841,16.0646028 7.74857621,16.2911306 C7.86184142,16.4043944 8.01038596,16.4611037 8.15885313,16.4611037 C8.30739768,16.4611037 8.45586485,16.4044718 8.56913006,16.2911306 L9.66379502,15.1964786 L9.66379502,16.1639408 C9.66379502,16.4843909 9.92359323,16.744186 10.2440471,16.744186 C10.564501,16.744186 10.8242992,16.4843909 10.8242992,16.1639408 L10.8242992,15.1964786 L11.9189642,16.2911306 C12.0322294,16.4043944 12.180774,16.4611037 12.3292411,16.4611037 C12.4777083,16.4611037 12.6262528,16.4044718 12.7395181,16.2911306 C12.9661258,16.0645255 12.9661258,15.6971142 12.7395181,15.4705865 L10.8242992,13.5553904 L10.8242992,11.6449911 L13.6027785,14.4234373 C13.7160437,14.5367011 13.8645882,14.5934104 14.0130554,14.5934104 C14.1615226,14.5934104 14.3100671,14.5367785 14.4233323,14.4234373 C14.6499401,14.1968322 14.6499401,13.8294209 14.4233323,13.6028158 L11.6448531,10.8243696 L13.5254115,10.8243696 L15.417575,12.7165106 C15.5308402,12.8297744 15.6793847,12.8864837 15.8278519,12.8864837 C15.9763191,12.8864837 16.1248636,12.8298518 16.2381288,12.7165106 C16.4647366,12.4899055 16.4647366,12.1224942 16.2381288,11.8959665 L15.1665192,10.8243696 L16.1639339,10.8243696 C16.4843878,10.8243696 16.744186,10.5645745 16.744186,10.2441244 C16.744186,9.92367427 16.4843878,9.66387914 16.1639339,9.66387914 L15.1204085,9.66387914 L16.2381288,8.54617212 C16.4647366,8.31956702 16.4647366,7.95215574 16.2381288,7.72562801 C16.011521,7.49902291 15.6441054,7.49902291 15.4174976,7.72562801 L13.4791461,9.66395651 L11.6217204,9.66395651 L14.423255,6.86245522 C14.6498627,6.63585012 14.6498627,6.26843885 14.423255,6.04191111 C14.1966472,5.81530601 13.8292315,5.81530601 13.6027011,6.04191111 L10.8242219,8.82035732 L10.8242219,6.93974388 L12.716308,5.0476029 C12.9429158,4.8209978 12.9429158,4.45358653 12.716308,4.2270588 C12.4897002,4.0004537 12.1222845,4.0004537 11.8957541,4.2270588 L10.8242219,5.2985783 L10.8242219,4.30117545 C10.8242219,3.98072536 10.5644237,3.72093023 10.2439698,3.72093023 C9.92351586,3.72093023 9.66371765,3.98072536 9.66371765,4.30117545 L9.66371765,5.34468846 L8.54599734,4.22698143 C8.31938955,4.00037633 7.95197391,4.00037633 7.72544349,4.22698143 C7.4988357,4.45358653 7.4988357,4.8209978 7.72544349,5.04752554 L9.66379502,6.98585404 L9.66379502,8.84325767 L6.86241518,6.04183375 C6.63580739,5.81522865 6.26839175,5.81522865 6.04186132,6.04183375 C5.81525353,6.26843885 5.81525353,6.63585012 6.04186132,6.86237785 L8.8433959,9.66387914 L6.90984112,9.66387914 L4.99462231,7.74868309 C4.76801451,7.52207799 4.40059888,7.52207799 4.17406845,7.74868309 C3.94746066,7.97528819 3.94746066,8.34269946 4.17406845,8.56922719 L5.2687334,9.66380177 L4.30118235,9.66380177 C3.98072845,9.66387914 3.72093023,9.92367427 3.72093023,10.2441244 Z" id="Fill-23"></path>
                <path d="M20.5776161,19.4138198 L20.5776161,1.17236043 L37.7457075,1.17236043 C38.3425032,1.17236043 38.8280492,1.65810844 38.8280492,2.25507437 L38.8280492,19.4138198 L20.5776161,19.4138198 Z M19.4057433,38.8276396 L2.25421435,38.8276396 C1.65741864,38.8276396 1.17187271,38.3418916 1.17187271,37.7448475 L1.17187271,20.5861802 L19.4057433,20.5861802 L19.4057433,38.8276396 Z M39.4139855,25.6990785 C39.7375786,25.6990785 40,25.4366261 40,25.1128983 L40,2.25507437 C40,1.01159074 38.9886739,0 37.7457075,0 L2.25421435,0 C1.01124802,0 0,1.01166889 0,2.25507437 L0,7.96001469 C0,8.28374249 0.262343238,8.54619491 0.585936356,8.54619491 C0.909529474,8.54619491 1.17187271,8.28374249 1.17187271,7.96001469 L1.17187271,2.25507437 C1.17187271,1.65803028 1.65741864,1.17236043 2.25421435,1.17236043 L19.4057433,1.17236043 L19.4057433,19.4138198 L1.17187271,19.4138198 L1.17187271,10.3047356 C1.17187271,9.98100776 0.909529474,9.71855534 0.585936356,9.71855534 C0.262343238,9.71855534 0,9.98100776 0,10.3047356 L0,37.7448475 C0,38.9883311 1.01124802,40 2.25421435,40 L37.7457857,40 C38.988752,40 40,38.9883311 40,37.7448475 L40,27.4576192 C40,27.1338914 39.7376568,26.871439 39.4140636,26.871439 C39.0904705,26.871439 38.8281273,27.1338914 38.8281273,27.4576192 L38.8281273,37.7448475 C38.8281273,38.3418916 38.3425814,38.8276396 37.7457857,38.8276396 L20.5776161,38.8276396 L20.5776161,20.5861802 L38.8280492,20.5861802 L38.8280492,25.1128983 C38.8280492,25.4366261 39.0903924,25.6990785 39.4139855,25.6990785 Z" id="Fill-25"></path>
            </g>
        </g>
    </g>
</svg>