<?xml version="1.0" encoding="UTF-8"?>
<svg width="60px" height="60px" viewBox="0 0 60 60" version="1.1" xmlns="http://www.w3.org/2000/svg" xmlns:xlink="http://www.w3.org/1999/xlink">
    <title>Group 7</title>
    <g id="Page-1" stroke="none" stroke-width="1" fill="none" fill-rule="evenodd">
        <g id="Artboard" transform="translate(-403.000000, -1060.000000)" fill="#FC5413">
            <g id="Group-7" transform="translate(403.000000, 1060.000000)">
                <path d="M58,58 L4,58 L4,56 L55,56 C55.55225,56 56,55.55225 56,55 L56,8 L58,8 L58,58 Z M8,6 L8,7 C8.001875,8.656 9.344,9.998125 11,10 C11.55225,10 12,9.55225 12,9 C12,8.44775 11.55225,8 11,8 C10.448,7.999375 10.000625,7.552 10,7 L10,6 L16,6 L16,7 C16.001875,8.656 17.344,9.998125 19,10 C19.55225,10 20,9.55225 20,9 C20,8.44775 19.55225,8 19,8 C18.448,7.999375 18.000625,7.552 18,7 L18,6 L34,6 L34,7 C34.001875,8.656 35.344,9.998125 37,10 C37.55225,10 38,9.55225 38,9 C38,8.44775 37.55225,8 37,8 C36.448,7.999375 36.000625,7.552 36,7 L36,6 L42,6 L42,7 C42.001875,8.656 43.344,9.998125 45,10 C45.55225,10 46,9.55225 46,9 C46,8.44775 45.55225,8 45,8 C44.448,7.999375 44.000625,7.552 44,7 L44,6 L54,6 L54,16 L2,16 L2,6 L8,6 Z M10,3 C10,2.44775 10.44775,2 11,2 C11.55225,2 12,2.44775 12,3 L12,4 L10,4 L10,3 Z M18,3 C18,2.44775 18.44775,2 19,2 C19.55225,2 20,2.44775 20,3 L20,4 L18,4 L18,3 Z M36,3 C36,2.44775 36.44775,2 37,2 C37.55225,2 38,2.44775 38,3 L38,4 L36,4 L36,3 Z M44,3 C44,2.44775 44.44775,2 45,2 C45.55225,2 46,2.44775 46,3 L46,4 L44,4 L44,3 Z M2,54 L54,54 L54,18 L2,18 L2,54 Z M59,6 L56,6 L56,5 C56,4.44775 55.55225,4 55,4 L48,4 L48,3 C48,1.343125 46.656875,0 45,0 C43.343125,0 42,1.343125 42,3 L42,4 L40,4 L40,3 C40,1.343125 38.656875,0 37,0 C35.343125,0 34,1.343125 34,3 L34,4 L22,4 L22,3 C22,1.343125 20.656875,0 19,0 C17.343125,0 16,1.343125 16,3 L16,4 L14,4 L14,3 C14,1.343125 12.656875,0 11,0 C9.343125,0 8,1.343125 8,3 L8,4 L1,4 C0.44775,4 0,4.44775 0,5 L0,55 C0,55.55225 0.44775,56 1,56 L2,56 L2,59 C2,59.55225 2.44775,60 3,60 L59,60 C59.55225,60 60,59.55225 60,59 L60,7 C60,6.44775 59.55225,6 59,6 L59,6 Z" id="Fill-1"></path>
                <path d="M39,47 C39.55225,47 40,46.55225 40,46 L40,26 C39.999625,25.44775 39.551625,25.00025 38.999375,25.0006248 C38.79075,25.0006248 38.5875,25.066125 38.417875,25.1875 L30.417875,30.91475 C29.96875,31.23625 29.865375,31.860875 30.186875,32.31 C30.508375,32.759125 31.133,32.8625 31.582125,32.541 L38,27.94575 L38,46 C38,46.55225 38.44775,47 39,47" id="Fill-3"></path>
                <path d="M27.9999996,31 C27.9999996,27.68625 25.31375,25 21.9999996,25 C18.68625,25 15.9999996,27.68625 15.9999996,31 C15.9999996,31.55225 16.44775,32 16.9999996,32 C17.55225,32 17.9999996,31.55225 17.9999996,31 C17.9999996,28.790875 19.790875,27 21.9999996,27 C24.209125,27 25.9999996,28.790875 25.9999996,31 C25.9999996,33.209125 24.209125,35 21.9999996,35 C21.44775,35 20.9999996,35.44775 20.9999996,36 C20.9999996,36.55225 21.44775,37 21.9999996,37 C24.209125,37 25.9999996,38.790875 25.9999996,41 C25.9999996,43.209125 24.209125,45 21.9999996,45 C19.790875,45 17.9999996,43.209125 17.9999996,41 C17.9999996,40.44775 17.55225,40 16.9999996,40 C16.44775,40 15.9999996,40.44775 15.9999996,41 C15.99875,44.31375 18.684125,47.001 21.997875,47.0021254 C25.3115,47.003375 27.99875,44.318 27.9999996,41.00425 C28.00075,38.991125 26.99175,37.11175 25.313375,36 C26.990625,34.88925 27.999375,33.01175 27.9999996,31" id="Fill-5"></path>
            </g>
        </g>
    </g>
</svg>