<?xml version="1.0" encoding="UTF-8"?>
<svg width="41px" height="40px" viewBox="0 0 41 40" version="1.1" xmlns="http://www.w3.org/2000/svg" xmlns:xlink="http://www.w3.org/1999/xlink">
    <title>Group 17</title>
    <defs>
        <polygon id="path-1" points="2.79952549e-16 0 40 0 40 40 2.79952549e-16 40"></polygon>
    </defs>
    <g id="Page-1" stroke="none" stroke-width="1" fill="none" fill-rule="evenodd">
        <g id="Artboard" transform="translate(-1047.000000, -4643.000000)">
            <g id="Group-17" transform="translate(1047.407365, 4643.000000)">
                <g id="Group-3">
                    <mask id="mask-2" fill="white">
                        <use xlink:href="#path-1"></use>
                    </mask>
                    <g id="Clip-2"></g>
                    <path d="M37.3130518,36.7724266 L36.9095976,37.1836774 C35.4187085,38.6794673 33.0093308,38.6794673 31.5183629,37.1836774 L23.1167456,28.6900289 L24.8902102,26.90193 L27.151287,24.6264639 L28.9247516,22.838365 L37.3485116,31.3320136 C38.8287628,32.835272 38.8200948,35.2637653 37.3292845,36.7562976 C37.3238473,36.7617004 37.318489,36.7670238 37.3130518,36.7724266 Z M11.9131708,12.7219601 L11.9929948,12.6504521 L13.0038365,11.6312238 L13.0747562,11.5507375 L25.4887722,24.0676681 L24.327108,25.2389702 L11.9131708,12.7219601 Z M14.3161657,28.9225096 C14.1793695,29.0572626 14.0985999,29.2394492 14.0900895,29.4321237 C14.0190911,30.7195867 13.8816645,33.5760956 13.9393458,34.6043021 C13.4604804,35.2033013 11.2791489,36.9736026 9.33728943,38.4398358 L8.89388387,38.4398358 C8.89388387,38.4398358 10.4013209,35.8783374 10.4279552,35.8336846 C10.8047751,34.8948632 10.9200589,32.7044122 8.65449057,31.1040617 C7.21356041,30.084754 5.10764011,29.3158834 3.2854773,31.4661309 C2.68360567,32.2670212 2.13137782,33.1045396 1.63170932,33.9739982 C1.3748225,32.3804013 1.57954396,30.7458858 2.221367,29.2667017 C3.23228755,26.6247171 4.393873,26.1375088 4.50915687,26.0704501 L10.0466438,25.2791737 C10.2143294,25.2574034 10.3701951,25.1804131 10.4899705,25.0601206 L16.2181525,19.2755154 L17.6147185,20.6792187 L12.0151375,26.3297066 C11.7127833,26.6287692 11.7080553,27.1184406 12.0047359,27.4233827 C12.0081243,27.4268787 12.0116703,27.4303746 12.0151375,27.4338706 C12.3118181,27.7388127 12.7973815,27.7435005 13.0998145,27.4443584 C13.1032817,27.4409419 13.1068277,27.437446 13.1102161,27.4338706 L18.7097971,21.7878321 L20.0398561,23.1289261 L14.3161657,28.9225096 Z M9.02248488,12.3241369 C8.34803879,12.327474 7.69841458,12.0679792 7.20914763,11.5999192 L2.60267845,4.4786693 L4.89929387,2.16299979 L11.9619477,6.82111461 C12.9381964,7.87395169 12.9146354,9.51641249 11.908758,10.540408 L10.8934247,11.5641651 C10.3976961,12.0647216 9.72411685,12.3447948 9.02248488,12.3420345 L9.02248488,12.3241369 Z M24.8326077,10.5941185 C24.9502555,10.4721575 25.026376,10.3155548 25.0497795,10.1470342 L25.8345451,4.5859314 C25.883322,4.46079229 26.40206,3.29401902 29.0000841,2.27924012 C30.4680425,1.63527027 32.0885571,1.43043939 33.6686474,1.68913968 C32.8061065,2.19239755 31.9754008,2.74928647 31.1814156,3.35662831 C29.048861,5.19835825 29.8114839,7.31285174 30.8223257,8.76573672 C32.4050952,11.0321451 34.5864267,10.9204336 35.5130317,10.5538356 C35.5484915,10.5538356 38.0978174,9.02054379 38.0978174,9.02054379 L38.0978174,9.46754865 C36.6435701,11.4344972 34.8923269,13.6204987 34.2982565,14.1033371 C33.2785104,14.0496266 30.4410142,14.1882728 29.1686365,14.2597808 C28.9763654,14.2689974 28.7945746,14.3502782 28.658724,14.4877326 L23.4094074,19.7538249 L22.0793483,18.4127309 L27.1424614,13.2852053 C27.4707407,13.0075157 27.5135289,12.51411 27.2381242,12.1831072 C26.9627195,11.8521043 26.4732949,11.8088816 26.1450944,12.0866507 C26.1096346,12.1166047 26.0769327,12.1496573 26.0473829,12.1854908 L20.9709527,17.2995887 L19.5787995,15.891436 L24.8326077,10.5941185 Z M38.4081303,30.214422 L29.4656323,21.184304 C29.1576045,20.8891346 28.6741688,20.8891346 28.366141,21.184304 L26.5926764,22.9724824 L24.504486,20.8714165 L29.5454564,15.761768 C31.6513767,15.6500565 34.4578257,15.6589553 34.582014,15.6410783 C35.1051648,15.5606714 36.1071021,14.7470686 39.4987961,10.1470342 C39.5929617,10.0169689 39.6455998,9.86100191 39.6495398,9.70002931 L39.6495398,7.63026809 C39.6489094,7.34979757 39.5002145,7.09093838 39.2594028,6.95078257 C39.0187487,6.80736917 38.7197829,6.80736917 38.47905,6.95078257 L34.8923269,9.09650124 C34.5864267,9.19486456 33.2430505,9.51228092 32.0947822,7.86266931 C30.8533727,6.07457041 31.4075706,5.21623527 32.1922574,4.54119913 C33.3640868,3.6971656 34.5806744,2.91812496 35.8366618,2.20773206 C36.0669931,2.07202564 36.2137969,1.82818314 36.2267988,1.55955117 C36.2368851,1.29107812 36.1097025,1.03627104 35.8898515,0.88451504 C35.7790593,0.80847813 33.0789897,-1.01092541 28.4414734,0.799579349 C24.8591631,2.19430443 24.3581551,4.03158499 24.3138697,4.2372104 L23.5512468,9.66872467 L18.4793081,14.787272 L13.9481714,10.2051941 C14.1446189,9.70718012 14.246822,9.17651082 14.2496588,8.64051815 C14.2517864,7.51633191 13.8079868,6.43783138 13.0171537,5.64544257 C12.9800391,5.60619258 12.938354,5.57163035 12.8929655,5.54255041 L5.2185112,0.509018244 C4.91276861,0.304981898 4.50687168,0.346059309 4.24754207,0.607302107 L1.05978155,3.82151018 C0.800688344,4.08299134 0.759948932,4.49225583 0.9623064,4.80053505 L5.96773815,12.5252335 C5.99791841,12.5700452 6.03203865,12.6119172 6.06970488,12.6504521 C6.85391887,13.4472903 7.92252075,13.8933417 9.03580202,13.8887334 C9.56872396,13.8896074 10.0968391,13.787907 10.5919373,13.5891941 L15.123074,18.1713514 L9.57226995,23.7682082 L4.25195485,24.5281801 L4.19435232,24.5281801 C3.99041885,24.5773617 2.17266883,25.0779976 0.784928417,28.6944783 C-0.988457416,33.3704701 0.784928417,36.0884917 0.873578009,36.2046526 C1.02250932,36.4240234 1.27064938,36.5532941 1.53423417,36.5489242 C1.79939494,36.5393898 2.04091583,36.3922421 2.17266883,36.1599998 C2.87776798,34.8939097 3.65039842,33.6672286 4.48693537,32.4853592 C5.15641708,31.6940827 6.0210067,31.1442652 7.78556698,32.3825465 C9.42593902,33.5493198 9.11562605,34.9127402 9.00916774,35.2033013 L6.88110474,38.8198614 C6.66070216,39.1874923 6.77764082,39.6656429 7.14224674,39.8878741 C7.26407098,39.9620836 7.40378273,40.0009363 7.54609488,40 L9.59882543,40 C9.75941909,39.9971225 9.91489077,39.9422997 10.042231,39.8435391 C14.6974771,36.374524 15.4378785,35.3731727 15.4998938,34.8680874 C15.4998938,34.7607458 15.4998938,31.9310128 15.6107649,29.8120699 L21.1482518,24.2554165 L23.2586637,26.352033 L21.4851991,28.1402113 C21.1831601,28.4469809 21.1831601,28.9420551 21.4851991,29.2488247 L30.4410142,38.2744933 C32.5354298,40.3832661 35.9279906,40.3832661 38.0224061,38.2744933 L38.4258603,37.8676918 C40.519409,35.7642424 40.5254766,32.3479048 38.4394138,30.2369867 C38.4349222,30.2324579 38.4303518,30.227929 38.4258603,30.2234002 L38.4081303,30.214422 Z" id="Fill-1" fill="#FC5413" mask="url(#mask-2)"></path>
                </g>
                <path d="M29.2884381,27.2242125 C28.9991259,26.9292663 28.5256222,26.9247322 28.2307005,27.2140685 C28.2273194,27.217373 28.2239384,27.2207543 28.2205573,27.2242125 C27.9264809,27.5194662 27.9264809,27.9969287 28.2205573,28.2921823 L34.7056835,34.7779258 C35.0018346,35.0740247 35.48187,35.0740247 35.7779443,34.7779258 C36.0740186,34.4818268 36.0740186,34.0017514 35.7779443,33.7055756 L29.2884381,27.2242125 Z" id="Fill-4" fill="#FC5413"></path>
            </g>
        </g>
    </g>
</svg>