<?xml version="1.0" encoding="UTF-8"?>
<svg width="60px" height="60px" viewBox="0 0 60 60" version="1.1" xmlns="http://www.w3.org/2000/svg" xmlns:xlink="http://www.w3.org/1999/xlink">
    <title>Group 9</title>
    <g id="Page-1" stroke="none" stroke-width="1" fill="none" fill-rule="evenodd">
        <g id="Artboard" transform="translate(-805.000000, -1060.000000)" fill="#FC5413">
            <g id="Group-9" transform="translate(805.000000, 1060.000000)">
                <path d="M60.0000151,15.0127659 L56.2673805,15.0127659 L56.2673805,6.58026024 C50.4859713,12.3616694 44.7284789,18.1193086 39.0044407,23.8433468 C38.028694,22.868187 37.1634341,22.0033673 36.2418303,21.0823505 C41.9560377,15.3682898 47.7151441,9.6091834 53.5505496,3.77392472 L45.0364627,3.77392472 L45.0364627,0.0170798563 L45.6398116,0.0170798563 C49.6019301,0.0170798563 53.5644888,0.0440779603 57.5261671,0.000352770173 C58.687379,-0.0125593665 59.5322436,0.32653095 60.0000151,1.42288874 L60.0000151,15.0127659 Z" id="Fill-1"></path>
                <path d="M1.42288917,60 C0.326091192,59.5322285 -0.0125589388,58.6869237 0.000353197865,57.5255651 C0.044078388,53.5823746 0.017080284,49.6384505 0.017080284,45.6948198 C0.017080284,45.4844107 0.017080284,45.2738548 0.017080284,45.0349803 L3.73254762,45.0349803 L3.73254762,53.4327112 C9.53508577,47.6498347 15.3106258,41.8941031 21.0287949,36.1953022 C22.0085033,37.1497732 22.8862351,38.0049088 23.7914052,38.8870425 C18.0440371,44.6339704 12.2891858,50.3882348 6.45906266,56.2179178 L15.0127663,56.2179178 L15.0127663,60 L1.42288917,60 Z" id="Fill-3"></path>
                <path d="M45.0042704,60 L45.0042704,56.2700065 L53.4184349,56.2700065 C47.648764,50.5004823 41.8939127,44.7456311 36.178825,39.0305433 C37.1614679,38.0515686 38.0257007,37.1907105 38.9041662,36.3156198 C44.5919624,42.0037095 50.3501884,47.7620823 56.2222761,53.6344633 L56.2222761,45.004314 L59.9999564,45.004314 L59.9999564,58.5941911 C59.7192642,59.2506559 59.2506123,59.7193078 58.5941475,60 L45.0042704,60 Z" id="Fill-5"></path>
                <path d="M14.9847117,0.0170211648 L14.9847117,3.76491557 L6.51141551,3.76491557 C12.3261322,9.57948548 18.085532,15.3387386 23.8180805,21.0712871 C22.8727067,22.0131395 22.0045122,22.8779592 21.1144552,23.7646415 C15.3889497,18.0386958 9.63497875,12.2842847 3.80309484,6.45181383 L3.80309484,14.9679549 L0.0437555846,14.9679549 C0.0350985839,14.7886523 0.0182247689,14.6006926 0.0182247689,14.4125863 C0.0166816223,10.3525997 0.0160238365,6.29246632 0.0176378536,2.23247971 C0.0182247689,0.721759716 0.725604439,0.0180482666 2.24322069,0.0176080801 C6.28398583,0.015994063 10.324751,0.0170211648 14.3655161,0.0170211648 C14.5575841,0.0170211648 14.7496522,0.0170211648 14.9847117,0.0170211648" id="Fill-7"></path>
            </g>
        </g>
    </g>
</svg>