<?xml version="1.0" encoding="UTF-8"?>
<svg width="61px" height="60px" viewBox="0 0 61 60" version="1.1" xmlns="http://www.w3.org/2000/svg" xmlns:xlink="http://www.w3.org/1999/xlink">
    <title>Group 8</title>
    <defs>
        <polygon id="path-1" points="0 0 60.0186953 0 60.0186953 60 0 60"></polygon>
    </defs>
    <g id="Page-1" stroke="none" stroke-width="1" fill="none" fill-rule="evenodd">
        <g id="Artboard" transform="translate(-598.000000, -1060.000000)">
            <g id="Group-8" transform="translate(598.000000, 1060.000000)">
                <path d="M29.9875726,46.3675677 C20.9680015,46.3675677 13.630407,39.0299732 13.630407,30.0104021 C13.630407,20.990831 20.9680015,13.6532366 29.9875726,13.6532366 C39.0071437,13.6532366 46.3447381,20.990831 46.3447381,30.0104021 C46.3447381,39.0299732 39.0071437,46.3675677 29.9875726,46.3675677 M29.9875726,10.927085 C19.4644202,10.927085 10.9042554,19.4872497 10.9042554,30.0104021 C10.9042554,40.5335546 19.4644202,49.0937193 29.9875726,49.0937193 C40.510725,49.0937193 49.0708898,40.5335546 49.0708898,30.0104021 C49.0708898,19.4872497 40.510725,10.927085 29.9875726,10.927085" id="Fill-1" fill="#FC5413"></path>
                <path d="M37.2024371,23.594304 L27.2613698,33.5353713 L22.7713279,29.0467351 C22.2383143,28.5137215 21.3768795,28.5137215 20.8438659,29.0467351 C20.3109801,29.5796208 20.3109801,30.4424613 20.8438659,30.9740692 L26.2977027,36.4265003 C26.5647846,36.6923043 26.91378,36.8258452 27.2613698,36.8258452 C27.6089596,36.8258452 27.9592329,36.6923043 28.2250369,36.4265003 L39.1298991,25.5217659 C39.6627849,24.9887523 39.6627849,24.1273175 39.1298991,23.594304 C38.5968855,23.0612904 37.7354507,23.0612904 37.2024371,23.594304 Z" id="Fill-3" fill="#FC5413"></path>
                <g id="Group-7">
                    <mask id="mask-2" fill="white">
                        <use xlink:href="#path-1"></use>
                    </mask>
                    <g id="Clip-6"></g>
                    <path d="M55.1258013,39.158147 C55.5892969,39.9038037 55.3030465,40.9288101 54.2480093,41.2763999 C52.3150524,41.9143293 48.7532796,42.4391643 49.7034009,48.0809807 C49.8847354,49.1537808 49.3108289,49.7957995 48.0813579,49.7017458 C46.2111461,49.5586206 42.3604393,48.8021017 41.2794607,54.2476322 C41.0654118,55.3231158 40.0117803,55.5562054 39.1612077,55.1268298 C35.4917077,53.2743808 34.023652,53.0372019 31.1366123,56.7230591 C30.584558,57.4276952 29.4341892,57.3977922 28.8425199,56.7230591 C27.2914005,54.9550796 25.5342831,52.2371065 20.8166466,55.1282355 C19.9961047,55.6312183 19.0609349,55.2427357 18.6983936,54.2503157 C17.7564509,51.6658836 17.4783791,48.9111069 11.8952185,49.7058351 C11.0336559,49.8285139 10.120466,49.2450231 10.2744534,48.08507 C10.5674767,45.8659905 10.9042043,42.302812 5.72716138,41.2804892 C4.92834387,41.1224125 4.30408798,40.0563854 4.84936943,39.1622362 C6.91714517,35.7803923 6.63089478,33.6648229 3.22310936,31.1226894 C2.83871597,30.836439 2.21305439,29.6055623 3.2531401,28.8613113 C6.572239,26.4868387 6.91714517,24.2199655 4.84936943,20.8367159 C4.30268229,19.9425668 4.92834387,18.8752617 5.72716138,18.7184629 C10.9042043,17.6961401 10.5674767,14.1330894 10.2744534,11.9138821 C10.120466,10.753929 11.0350616,10.170566 11.8952185,10.2932448 C17.4783791,11.0865673 17.7564509,8.33306852 18.6983936,5.74863637 C19.059657,4.75493856 19.9961047,4.36786158 20.8166466,4.87084442 C25.5356888,7.76197342 27.2926784,5.04387256 28.8425199,3.27602078 C29.4341892,2.6012877 30.5832801,2.57125697 31.1366123,3.27602078 C34.023652,6.96175022 35.4917077,6.72457132 39.1612077,4.87212232 C40.0117803,4.44274673 41.0654118,4.67583633 41.2794607,5.75131997 C42.3604393,11.1969782 46.2111461,10.4404593 48.0813579,10.2973341 C49.3122346,10.2032804 49.8847354,10.8452991 49.7034009,11.9179714 C48.7532796,17.5611935 52.3150524,18.0846228 54.2480093,18.7225522 C55.3030465,19.070142 55.5892969,20.0965541 55.1258013,20.8408052 C52.0942307,25.7098733 55.2975515,27.645386 56.7220306,28.8668062 C57.2781742,29.3438476 57.5984169,30.4710864 56.8500765,31.0545771 C55.1476534,32.232293 52.0942307,34.2892066 55.1258013,39.158147 Z M57.072304,25.5762046 C56.5106654,25.1605026 56.3362315,24.338555 56.708357,23.7470134 C58.0400603,21.6287605 59.9742952,17.1796115 53.3142452,15.5479842 C52.6354228,15.3816012 52.13244,14.6796487 52.2769709,13.9981428 C52.9161782,11.0074651 52.0206234,6.66463764 46.0011865,7.72235841 C45.3155912,7.84235356 44.5862917,7.37067935 44.4513451,6.6850841 C44.0002451,4.39239733 42.056426,-0.25175978 36.2537215,3.28956656 C35.656685,3.65351349 34.7052858,3.4559496 34.4244026,2.92434172 C33.5234806,1.22179081 29.5773144,-2.70392891 25.5506403,2.92434172 C25.1445226,3.49275322 24.2107584,3.63856202 23.7214492,3.28828865 C21.0797669,1.39622465 16.8118246,0.923272541 15.5224199,6.6824005 C15.3737998,7.34346001 14.6704416,7.85053214 13.9711728,7.71826912 C11.6621289,7.27943704 6.59409116,7.42384014 7.69960552,13.9940535 C7.81538358,14.6823323 7.35329366,15.4416626 6.66360911,15.5451728 C3.97426107,15.9473291 -0.172280387,18.1078806 3.26681366,23.7429241 C3.6307606,24.338555 3.52571693,25.2572399 2.90286673,25.5721153 C0.515998469,26.7784562 -2.21692608,31.0695286 2.90286673,34.4499669 C3.48482401,34.8343603 3.6307606,35.6618028 3.26681366,36.2574337 C-0.172280387,41.8924772 3.97426107,44.051623 6.66360911,44.455185 C7.35469935,44.5586952 7.81538358,45.3180255 7.69960552,46.0063043 C6.59409116,52.5765177 11.6621289,52.7209208 13.9738564,52.280683 C14.6731252,52.1471421 15.3764833,52.6554921 15.5251035,53.3166794 C16.814636,59.0770853 21.0824505,58.6027275 23.7241328,56.7107913 C24.213442,56.3603901 25.1472062,56.5063267 25.5534517,57.0747382 C29.579998,62.7042867 33.5261642,58.778567 34.427214,57.0747382 C34.7079694,56.5444082 35.6593686,56.3454386 36.2564051,56.7093856 C42.0591096,60.2507119 44.0029287,55.6066826 44.4541565,53.313868 C44.5891031,52.6282728 45.3182748,52.1565986 46.0039979,52.2765937 C52.0234348,53.3343145 52.9175839,48.991487 52.2796545,46.0009371 C52.1338457,45.3193034 52.6381064,44.6173509 53.3169288,44.4510957 C59.9783844,42.8194684 58.0441496,38.3703194 56.7110406,36.2520665 C56.3389151,35.6603971 56.4998032,34.8208145 57.072304,34.4254311 C58.8525514,33.1945544 62.7018525,29.7419146 57.072304,25.5762046 Z" id="Fill-5" fill="#FC5413" mask="url(#mask-2)"></path>
                </g>
            </g>
        </g>
    </g>
</svg>