<?xml version="1.0" encoding="UTF-8"?>
<svg width="19px" height="25px" viewBox="0 0 19 25" version="1.1" xmlns="http://www.w3.org/2000/svg" xmlns:xlink="http://www.w3.org/1999/xlink">
    <title>Group 7</title>
    <g id="Page-1" stroke="none" stroke-width="1" fill="none" fill-rule="evenodd">
        <g id="Mobile-1" transform="translate(-295.000000, -3600.000000)">
            <g id="Group-7" transform="translate(295.000000, 3599.632944)">
                <g transform="translate(0.000000, 0.367056)">
                    <polygon id="Fill-1" fill="#FC5413" points="5.33877746e-05 0 5.33877746e-05 0.800816619 14.6014763 0.800816619 14.6014763 4.93836915 15.4022929 4.93836915 15.4022929 0"></polygon>
                    <polygon id="Fill-2" fill="#FC5413" points="14.6014229 15.6159241 14.6014229 19.6757974 0 19.6757974 0 20.4767475 15.4022395 20.4767475 15.4022395 15.6159241"></polygon>
                    <polygon id="Fill-3" fill="#F4F7FA" points="0.400515085 20.0927693 0.400515085 0.832462223 8.02188685 5.3012859 8.02188685 24.3200133"></polygon>
                    <path d="M5.33877746e-05,20.3285697 L8.42224177,25 L8.42224177,5.07194537 L5.33877746e-05,0.133442743 L5.33877746e-05,20.3285697 Z M0.800870007,19.8570222 L0.800870007,1.53140162 L7.62129169,5.53067982 L7.62129169,23.6400799 L0.800870007,19.8570222 Z" id="Fill-4" fill="#FC5413"></path>
                    <polygon id="Fill-5" fill="#FC5413" points="14.5478883 14.1789921 10.3625537 10.4264989 14.3986695 6.39038315 14.9648468 6.9565605 11.5266741 10.3947332 15.0825669 13.5826507"></polygon>
                    <polygon id="Fill-6" fill="#FC5413" points="10.9546909 10.7884547 18.2657462 10.7884547 18.2657462 9.98777153 10.9546909 9.98777153"></polygon>
                </g>
            </g>
        </g>
    </g>
</svg>