<?xml version="1.0" encoding="UTF-8"?>
<svg width="23px" height="25px" viewBox="0 0 23 25" version="1.1" xmlns="http://www.w3.org/2000/svg" xmlns:xlink="http://www.w3.org/1999/xlink">
    <title>Location-Features-Icon</title>
    <defs>
        <polygon id="path-1" points="0 0 8.01902459 0 8.01902459 7.71968408 0 7.71968408"></polygon>
        <polygon id="path-3" points="1.85037508e-15 0 12.9807969 0 12.9807969 0.781783663 1.85037508e-15 0.781783663"></polygon>
    </defs>
    <g id="Page-1" stroke="none" stroke-width="1" fill="none" fill-rule="evenodd">
        <g id="Mobile-1" transform="translate(-37.000000, -667.000000)">
            <g id="Location-Features-Icon" transform="translate(37.000000, 667.000000)">
                <path d="M1.94314156,6.63321522 C1.93487332,6.90092404 2.08318088,7.0005987 2.30694431,6.88842402 C2.69887211,6.69200439 3.08793532,6.48913943 3.47276675,6.27911301 C3.83116584,6.08353974 4.18370554,6.08080536 4.54197443,6.27162602 C4.91463135,6.47012898 5.2844237,6.67488196 5.6643723,6.85841094 C5.75870841,6.90398394 5.91222432,6.91954386 5.99256301,6.87169221 C6.05447718,6.83477808 6.07485482,6.67279862 6.06111782,6.573775 C6.0031099,6.15561018 5.92837018,5.739724 5.85408619,5.32396804 C5.78064856,4.91316 5.89920346,4.57513855 6.20493319,4.29056772 C6.50838426,4.00808022 6.80545511,3.71817084 7.0923697,3.41908175 C7.16151045,3.34701131 7.22973974,3.21087825 7.2063673,3.13125571 C7.1835157,3.0537165 7.04907535,2.97637261 6.95272101,2.95879446 C6.56144425,2.88744016 6.1671076,2.82910672 5.77179438,2.78496601 C5.32211908,2.73477061 4.99711848,2.52917128 4.80401917,2.11120177 C4.63045115,1.73541983 4.44659665,1.36386967 4.2514791,0.998829946 C4.2043436,0.910743848 4.09548924,0.801889483 4.01397867,0.801037313 C3.93259831,0.800131667 3.81977259,0.906577173 3.7728975,0.994012229 C3.57732423,1.35872644 3.39373014,1.7304719 3.22035743,2.10638405 C3.03246647,2.51387177 2.71990079,2.72812997 2.27960051,2.78158059 C1.8844826,2.82949735 1.4894949,2.88216671 1.09802283,2.95247934 C0.992098163,2.9715549 0.844376539,3.04343003 0.815860862,3.12572184 C0.788517062,3.20462824 0.866837518,3.35163371 0.940600673,3.42858698 C1.23298402,3.73366566 1.54118771,4.02364015 1.84463878,4.31804173 C2.13578514,4.60046412 2.2429468,4.93523035 2.16534249,5.33770504 C2.08070692,5.7761824 2.0135844,6.21798008 1.94314156,6.63321522 L1.94314156,6.63321522 Z M4.19464306,0 C4.60896674,0.118229382 4.86274324,0.398112705 5.02934511,0.787175914 C5.16977505,1.1151062 5.34855142,1.42643489 5.49803086,1.75084955 C5.57042682,1.90794619 5.67120825,1.98515987 5.84627368,2.00644897 C6.28162603,2.05937875 6.71509037,2.12851951 7.1486198,2.19570713 C7.54438875,2.25703536 7.82199343,2.47598108 7.95350408,2.85410677 C8.08761891,3.23971945 8.01548336,3.59675135 7.72843857,3.89108782 C7.41632862,4.21120559 7.09510408,4.52292491 6.76860609,4.82839422 C6.64152252,4.94720954 6.59946516,5.06934518 6.63130115,5.23939757 C6.71190026,5.67045305 6.7809108,6.10372206 6.85272083,6.53647025 C6.91867147,6.93367149 6.78950456,7.26277366 6.47537639,7.50613347 C6.16066227,7.74988392 5.80532308,7.79754026 5.44373388,7.62169358 C5.04959254,7.43002657 4.66118037,7.2254038 4.27856249,7.01153622 C4.09620538,6.90958291 3.94418688,6.90137977 3.7576631,7.00873673 C3.39900359,7.21524753 3.02647687,7.39760463 2.65889808,7.5884904 C2.28754323,7.78126418 1.92211288,7.77364698 1.57719038,7.53106842 C1.23897361,7.29317736 1.10922077,6.95522101 1.16807505,6.55189996 C1.23024964,6.12605283 1.29587476,5.69981508 1.38578378,5.27924139 C1.42940365,5.07500925 1.37491136,4.94161057 1.22998922,4.8068447 C0.932267324,4.53015149 0.64750118,4.23952596 0.355052731,3.95703846 C0.0403386152,3.65306656 -0.0843360912,3.29245392 0.0595443794,2.87175003 C0.198607133,2.46517376 0.497631115,2.24349367 0.925691792,2.18678784 C1.33636962,2.13236066 1.74437818,2.05566781 2.15590237,2.0098995 C2.35271262,1.98802446 2.45967896,1.89648783 2.53819473,1.72500314 C2.68005697,1.41504164 2.85023957,1.11771037 2.98467992,0.804819175 C3.1499797,0.419987745 3.39665984,0.131836178 3.80395225,0 L4.19464306,0 Z" id="Fill-1" fill="#FC5413"></path>
                <path d="M2.19398186,22.3970005 C2.18675529,22.4468703 2.17685944,22.5274043 2.16331775,22.6072222 C2.0926796,23.0236943 2.01312216,23.4388643 1.95583039,23.8570943 C1.9423538,23.9554017 1.97139031,24.1062484 2.0380571,24.1554021 C2.10303118,24.203384 2.25589604,24.1823553 2.34469828,24.1391911 C2.72432137,23.9546856 3.09736893,23.755792 3.46742169,23.5524713 C3.83402392,23.3509736 4.19242301,23.3526663 4.55837419,23.5518203 C4.92933841,23.7537738 5.3012792,23.9546205 5.68083718,24.1392562 C5.76846755,24.1818996 5.92133241,24.199022 5.98565544,24.1503891 C6.05088994,24.1011051 6.07608529,23.9514955 6.06260871,23.8535786 C6.0017362,23.411195 5.91996522,22.9717411 5.84763436,22.5308549 C5.78773842,22.1654896 5.90180112,21.8586531 6.16521306,21.6029886 C6.46866414,21.3084568 6.77836522,21.0198495 7.06964179,20.7136641 C7.14776694,20.6315025 7.22068374,20.4830647 7.19900401,20.3869708 C7.18227221,20.312817 7.01918597,20.2423741 6.9116988,20.2232986 C6.48800011,20.1479078 6.06065558,20.0923739 5.63435272,20.0315014 C5.25687807,19.977595 4.99620051,19.7695868 4.83070542,19.4320862 C4.64483269,19.052984 4.46527507,18.6704963 4.26664189,18.2981649 C4.21586055,18.2029824 4.09548273,18.0714717 4.02165447,18.0801957 C3.9234121,18.0918494 3.80895877,18.2078652 3.754792,18.3078654 C3.54984371,18.6859911 3.36703088,19.0761611 3.17471282,19.4611878 C3.01462138,19.7816962 2.75921727,19.9753164 2.40296662,20.0283764 C1.96103873,20.0941968 1.51735303,20.149861 1.07750847,20.2272699 C0.979070795,20.2445877 0.844565342,20.3160722 0.815854352,20.3950437 C0.788705865,20.4698485 0.853484629,20.611255 0.921193086,20.6816979 C1.22536031,20.9981698 1.5442411,21.3005141 1.85928073,21.6064391 C2.07386446,21.8147728 2.18916415,22.065229 2.19398186,22.3970005 L2.19398186,22.3970005 Z M1.9483434,25 C1.80810876,24.9228514 1.65537411,24.8619138 1.52998326,24.7653642 C1.19111545,24.5044913 1.10849811,24.1438786 1.17594615,23.7386696 C1.24274315,23.3378225 1.30511306,22.9358035 1.38766529,22.5381466 C1.42516536,22.3574171 1.38903248,22.2285106 1.25504786,22.1031848 C0.946062923,21.8141869 0.646908731,21.5147072 0.343978492,21.2192639 C0.0375977248,20.9204353 -0.0802410317,20.5641846 0.0565430718,20.1525302 C0.188769875,19.7546128 0.475814669,19.5256411 0.89345866,19.4648337 C1.29560783,19.4063049 1.69632471,19.3346251 2.10016659,19.2928281 C2.33011492,19.269 2.4648808,19.172906 2.55811013,18.961252 C2.71195156,18.6120977 2.89834513,18.2774617 3.06123605,17.9320835 C3.25140567,17.5289577 3.54749996,17.2850771 4.00615965,17.2821212 C4.47725426,17.2791526 4.77601782,17.533515 4.96996349,17.9429559 C5.12992472,18.2807169 5.31104484,18.6090378 5.45915709,18.9517468 C5.55486039,19.1731665 5.69502991,19.2693906 5.93506941,19.2936745 C6.35512226,19.3361225 6.77270115,19.4078023 7.18936857,19.4783754 C7.57634845,19.5439354 7.83611455,19.774665 7.95877102,20.1443271 C8.08097176,20.5128824 8.01814613,20.8580003 7.7473123,21.1408133 C7.4435357,21.4580014 7.13142576,21.7685488 6.80551371,22.0626249 C6.63793528,22.213797 6.59678937,22.3696567 6.63871653,22.5811154 C6.71462813,22.9636682 6.77699803,23.3490855 6.83845648,23.7343076 C6.93741499,24.3552723 6.69978435,24.7507808 6.10974421,24.960677 C6.08799938,24.9684244 6.06996549,24.9866536 6.05023889,25 L5.65954808,25 C5.19327119,24.7597001 4.72347866,24.5258455 4.26247522,24.2757148 C4.08721448,24.1806626 3.94437568,24.1783188 3.76579463,24.2746081 C3.29632762,24.5277986 2.81540227,24.759635 2.33903421,25 L1.9483434,25 Z" id="Fill-3" fill="#FC5413"></path>
                <g id="Group-7" transform="translate(0.000000, 8.644020)">
                    <mask id="mask-2" fill="white">
                        <use xlink:href="#path-1"></use>
                    </mask>
                    <g id="Clip-6"></g>
                    <path d="M1.94332386,6.62372891 C1.93420926,6.89365128 2.08199598,6.99462803 2.30458753,6.88290907 C2.68193197,6.6933905 3.05856026,6.50139796 3.42613906,6.2939106 C3.81481164,6.07444406 4.19078889,6.06519925 4.58213075,6.28434027 C4.94345953,6.48661929 5.31032218,6.68010922 5.68310932,6.86025278 C5.77041416,6.90244036 5.92419049,6.91747945 5.98773227,6.8681304 C6.05251103,6.81786989 6.07542774,6.66858577 6.06188605,6.57014809 C6.00212032,6.1358374 5.92347434,5.70406578 5.84977629,5.27164312 C5.78428138,4.88687679 5.90544045,4.56942829 6.18441232,4.30256583 C6.48408734,4.01591166 6.78656185,3.73147104 7.07165352,3.43068924 C7.14925782,3.34878805 7.22139337,3.19859246 7.19795583,3.10399594 C7.179336,3.02873538 7.01664039,2.96044099 6.90863239,2.94117012 C6.53304576,2.87424291 6.15426903,2.82170375 5.77497146,2.77932086 C5.31585604,2.72801869 4.98786065,2.51219798 4.7940452,2.08465814 C4.62985219,1.7224179 4.45335447,1.36519068 4.26526819,1.01486452 C4.21416133,0.919682057 4.102833,0.799108921 4.01663493,0.797065127 C3.93225977,0.795072455 3.8142257,0.912976316 3.76383499,1.00672649 C3.56005857,1.38556832 3.37594365,1.77508726 3.18596935,2.16128588 C3.02385968,2.49084378 2.7674139,2.69429467 2.40107209,2.74891716 C1.96721713,2.81356572 1.53134394,2.86675592 1.09970253,2.94351387 C0.993517436,2.96232901 0.846186438,3.03387862 0.816498884,3.11662617 C0.788504042,3.1946862 0.866238558,3.34260314 0.939741296,3.4194262 C1.23186422,3.7248304 1.53935176,4.01558614 1.84332367,4.30959709 C2.13518618,4.59195438 2.24286867,4.92632999 2.16558989,5.32880468 C2.08141004,5.76741225 2.01376669,6.20920993 1.94332386,6.62372891 M1.1585568,6.58993979 C1.22340067,6.20562919 1.29273673,5.73101895 1.38772388,5.26155195 C1.42691666,5.0678667 1.37873949,4.93811386 1.24026268,4.80875165 C0.937137125,4.52567821 0.645144405,4.2307558 0.347422508,3.94182298 C0.0403255943,3.64377556 -0.080442855,3.28850148 0.0551693714,2.87671687 C0.189414408,2.46896874 0.484206612,2.23999696 0.912592809,2.181338 C1.33121336,2.12404623 1.74820631,2.05425444 2.16741281,2.00165018 C2.33837666,1.98023087 2.44814248,1.90796511 2.52223116,1.75067316 C2.7020492,1.3685761 2.8934558,0.991947814 3.07965405,0.612845561 C3.27249294,0.220331824 3.57919923,-0.00499410743 4.02392661,8.40268273e-05 C4.45752115,0.00496684823 4.75569877,0.228795381 4.94313401,0.613366395 C5.12822549,0.993054587 5.32366856,1.36792506 5.50133815,1.75099868 C5.57568725,1.91135053 5.68460672,1.97944961 5.85459401,2.00119445 C6.29782398,2.05803049 6.74033781,2.12189779 7.18109382,2.19507501 C7.56683671,2.25913762 7.8309648,2.48576564 7.95616034,2.85510225 C8.08057463,3.22222532 8.023999,3.56962178 7.7534907,3.85302074 C7.43363334,4.1881776 7.08532542,4.4965766 6.77009047,4.83576993 C6.68532469,4.92691592 6.62679593,5.09377821 6.64085846,5.21610916 C6.69092366,5.65139641 6.77634048,6.0826472 6.85062447,6.51506986 C6.92061157,6.92255758 6.79111915,7.25830038 6.46709512,7.50530604 C6.1415737,7.75361379 5.77783605,7.78616593 5.41051768,7.60322289 C5.01064715,7.40400377 4.61559435,7.19462839 4.22496864,6.97789623 C4.07112721,6.89254451 3.94274156,6.89990129 3.79241577,6.98232332 C3.40074839,7.19716746 3.00882059,7.41337879 2.60562975,7.60504581 C1.90510764,7.93811933 1.14071823,7.4439127 1.1585568,6.58993979" id="Fill-5" fill="#FC5413" mask="url(#mask-2)"></path>
                </g>
                <path d="M16.0615397,12.8906225 C14.0844528,12.8906225 12.1073007,12.8906876 10.1302138,12.8902969 C10.0489636,12.8902969 9.96471869,12.8987605 9.88698417,12.880987 C9.67969212,12.8335911 9.55918409,12.7008435 9.56745234,12.4825488 C9.57526485,12.276038 9.69837705,12.1556602 9.89635919,12.1165325 C9.96712754,12.1026002 10.0422579,12.1095663 10.1154351,12.1095663 C14.0778121,12.109371 18.0401891,12.109371 22.0025662,12.1095012 C22.0676053,12.1095012 22.1339466,12.1039023 22.1974884,12.1142539 C22.4103143,12.1487591 22.5386999,12.2800745 22.543315,12.4921842 C22.5478145,12.7052706 22.4217726,12.8409479 22.2118764,12.8826797 C22.1333607,12.8983699 22.0497668,12.890362 21.9685166,12.890362 C19.9995026,12.8906876 18.0304886,12.8906225 16.0615397,12.8906225" id="Fill-8" fill="#FC5413"></path>
                <path d="M16.0861296,20.7482149 C18.0388024,20.7482149 19.9914101,20.7481498 21.944083,20.7483451 C22.0253982,20.7483451 22.1074296,20.7436576 22.1879636,20.7523165 C22.4058677,20.7758842 22.5304773,20.9094782 22.5433028,21.1192442 C22.5556075,21.3213279 22.4384198,21.4568099 22.2446695,21.5125392 C22.1760495,21.5322007 22.0996822,21.5288153 22.0268305,21.5288153 C18.0483076,21.5295314 14.0697848,21.5297267 10.0912619,21.5279038 C9.99549348,21.5278387 9.89327975,21.5213283 9.80525876,21.4881251 C9.62303186,21.4194401 9.54432078,21.2702862 9.57003698,21.0801166 C9.59438598,20.899973 9.70838358,20.7883191 9.88702974,20.7559623 C9.96606634,20.7416394 10.0492696,20.7484753 10.1305198,20.7484753 C12.1157447,20.7481498 14.1009697,20.7482149 16.0861296,20.7482149" id="Fill-10" fill="#FC5413"></path>
                <path d="M16.047028,0.91883631 C18.0158466,0.91883631 19.9846002,0.918771206 21.9534189,0.919096728 C22.0428722,0.919096728 22.1336927,0.91382328 22.2213882,0.927169659 C22.4163755,0.956857213 22.5243835,1.08641474 22.542808,1.27339425 C22.5605164,1.45236593 22.4739277,1.5946839 22.3034196,1.6569887 C22.2073907,1.69207991 22.0966484,1.69839502 21.9925466,1.69846013 C18.0305602,1.70034815 14.0685738,1.70034815 10.1065223,1.69865544 C10.0103633,1.69859034 9.90867041,1.69318668 9.81908691,1.66245746 C9.63562303,1.59937141 9.54799267,1.45542583 9.56882604,1.26375881 C9.5895943,1.07300326 9.70326639,0.952820747 9.89695164,0.925997782 C9.98497263,0.913758176 10.0755978,0.919096728 10.1650511,0.919096728 C12.1257317,0.918771206 14.0863473,0.91883631 16.047028,0.91883631" id="Fill-12" fill="#FC5413"></path>
                <path d="M16.0621452,4.25177858 C14.0769202,4.25177858 12.0917603,4.25210411 10.1065354,4.25067181 C10.0099857,4.25060671 9.90718603,4.25301557 9.81825357,4.22241655 C9.64735483,4.16375759 9.55861768,4.0301636 9.56669062,3.8464393 C9.57528438,3.6503452 9.68895646,3.53022779 9.87255055,3.48471989 C9.95751164,3.46369121 10.0502852,3.47098289 10.1394781,3.47098289 C14.0854489,3.47046206 18.0314847,3.47052716 21.9774554,3.47052716 C22.0181456,3.47052716 22.0588358,3.46948549 22.0994609,3.47085268 C22.3650863,3.47983707 22.5421049,3.63192068 22.547503,3.85503307 C22.5529122,4.08895277 22.3737452,4.25021608 22.0909322,4.25067181 C20.8054481,4.25288536 19.519964,4.25171348 18.2344799,4.25177858 C17.51039,4.25177858 16.786235,4.25177858 16.0621452,4.25177858" id="Fill-14" fill="#FC5413"></path>
                <g id="Group-18" transform="translate(9.567421, 9.553435)">
                    <mask id="mask-4" fill="white">
                        <use xlink:href="#path-3"></use>
                    </mask>
                    <g id="Clip-17"></g>
                    <path d="M6.48167046,0.000618490711 C8.43408287,0.000618490711 10.3864302,0.000618490711 12.3388426,0.000683594996 C12.4201578,0.000683594996 12.5017335,-0.00205078499 12.5827884,0.00341797498 C12.8194424,0.0194336292 12.9775807,0.171842761 12.9808154,0.382324916 C12.9837656,0.579265379 12.8354581,0.741765675 12.6174889,0.772950628 C12.5455487,0.783237105 12.4715251,0.781544393 12.398413,0.781544393 C8.45296311,0.781869915 4.50757832,0.782000123 0.562128417,0.781023559 C0.473261068,0.780958455 0.38152913,0.779916786 0.296047203,0.759083415 C0.0963072554,0.71038541 -0.00948720828,0.573275785 0.000669060236,0.368848329 C0.010890433,0.16513702 0.127427104,0.0387044976 0.332180081,0.00940756923 C0.420135971,-0.00315755784 0.510761136,0.000944012138 0.60014932,0.000944012138 C2.56063466,0.000553386425 4.52118511,0.000618490711 6.48167046,0.000618490711" id="Fill-16" fill="#FC5413" mask="url(#mask-4)"></path>
                </g>
                <path d="M16.0626269,18.9666036 C14.0940036,18.9666036 12.1254453,18.9667338 10.1568219,18.9664734 C9.7497248,18.9664734 9.57049271,18.8502622 9.56510769,18.5852878 C9.5598156,18.313217 9.75057116,18.1854824 10.165025,18.1854824 C14.0941338,18.1852871 18.0231774,18.1852871 21.9522861,18.1854824 C22.3510499,18.1854824 22.5414148,18.3089201 22.5477299,18.5690768 C22.5541752,18.8372414 22.3586671,18.9664734 21.9440179,18.9665385 C19.9835325,18.9667338 18.0231123,18.9666036 16.0626269,18.9666036" id="Fill-19" fill="#FC5413"></path>
                <path d="M14.3034831,24.0811572 C12.9214493,24.0811572 11.5394156,24.0812223 10.1573818,24.0809619 C10.0761316,24.0809619 9.99403515,24.0850634 9.91376156,24.0756233 C9.70907369,24.0514045 9.58713336,23.9310267 9.56877395,23.7280315 C9.55028434,23.5240598 9.65106577,23.3816116 9.84820155,23.3264032 C9.93986838,23.3007521 10.0406498,23.3009474 10.1373297,23.3008823 C12.9095353,23.2996453 15.6817408,23.2999058 18.4539464,23.2999058 C18.5027095,23.2999058 18.5516679,23.2978224 18.6002357,23.3008823 C18.8591555,23.3172886 19.0352626,23.4865597 19.0259527,23.7085002 C19.0167078,23.9269251 18.8510825,24.0780973 18.5959388,24.0793343 C17.7667056,24.0832405 16.9374723,24.081027 16.108239,24.0811572 C15.5066754,24.0812223 14.9050467,24.0811572 14.3034831,24.0811572" id="Fill-21" fill="#FC5413"></path>
                <path d="M14.2819987,15.4458289 C12.9000951,15.4459591 11.5181916,15.4464149 10.136288,15.4449826 C10.0312097,15.4448524 9.89696466,15.4685503 9.8276937,15.4148393 C9.71747214,15.3294876 9.60803184,15.1986931 9.57587032,15.0679637 C9.53342233,14.8953722 9.64976368,14.7539006 9.82255046,14.6990177 C9.9204673,14.6678978 10.0304935,14.6660749 10.1351161,14.6660098 C12.9070613,14.6643822 15.6790064,14.6647077 18.4509516,14.6647077 C18.4834386,14.6647077 18.5159908,14.6639916 18.5484778,14.6649681 C18.8484784,14.6738874 19.034286,14.8315049 19.0259527,15.0695262 C19.0177495,15.3029901 18.8461997,15.4442664 18.5496497,15.4447222 C17.1271211,15.4469357 15.7045273,15.4456987 14.2819987,15.4458289" id="Fill-23" fill="#FC5413"></path>
                <path d="M14.2947982,6.8146218 C12.9275431,6.8146218 11.560288,6.81475201 10.1929678,6.81429628 C10.1035796,6.81429628 10.0132149,6.81677024 9.92493346,6.80544209 C9.70253722,6.77692642 9.56269321,6.62191311 9.56507144,6.41689972 C9.56757603,6.2115608 9.71262838,6.06084438 9.93456889,6.03851361 C10.0071602,6.03122193 10.0808582,6.03356569 10.1541005,6.03356569 C12.9130248,6.03337037 15.6719491,6.03330527 18.4309385,6.03350058 C18.833869,6.03350058 19.0209136,6.1537482 19.026187,6.41455596 C19.0316558,6.68350177 18.8347153,6.81442648 18.4210427,6.81449159 C17.0455845,6.81481711 15.6701913,6.8146218 14.2947982,6.8146218" id="Fill-25" fill="#FC5413"></path>
                <path d="M3.62734385,4.24001424 C3.9304694,3.93011784 4.19700635,3.65707047 4.46438965,3.38473924 C4.51556162,3.33259071 4.56517108,3.27718696 4.62350452,3.23402282 C4.79622619,3.10615801 4.97174734,3.10739499 5.13392212,3.25121035 C5.29056303,3.39007779 5.31764641,3.61690112 5.16575811,3.77588579 C4.75045788,4.2105871 4.32493627,4.63604361 3.89199277,5.05329697 C3.72806018,5.21130507 3.52213533,5.19079722 3.34479125,5.02660422 C3.18984305,4.88311437 3.04003809,4.73343962 2.89589721,4.57914246 C2.72577971,4.39711088 2.72278491,4.16898546 2.87792842,4.01234455 C3.03333235,3.85544323 3.25813745,3.8580474 3.44414039,4.02582114 C3.50390613,4.07972749 3.55013017,4.14860782 3.62734385,4.24001424" id="Fill-27" fill="#FC5413"></path>
                <path d="M3.64272799,21.4870769 C3.94201239,21.1852535 4.23211709,20.8896149 4.52586763,20.597492 C4.74767793,20.3769187 4.96786062,20.3560202 5.14370729,20.5318018 C5.31981439,20.7079739 5.29911122,20.9262035 5.07730092,21.1504227 C4.71121953,21.5204103 4.34390115,21.8890959 3.97326245,22.2544611 C3.7355016,22.4888366 3.53732416,22.487209 3.29865185,22.2558283 C3.15861253,22.1200208 3.01766175,21.9844086 2.88654172,21.8401375 C2.72853362,21.666309 2.72697112,21.4424805 2.87059117,21.2910479 C3.02169822,21.1317377 3.25412052,21.131282 3.43817033,21.2926104 C3.50425118,21.3504881 3.56570962,21.4135742 3.64272799,21.4870769" id="Fill-29" fill="#FC5413"></path>
                <path d="M3.62464853,12.8730834 C3.94554756,12.5476921 4.23428506,12.2507515 4.52777518,11.9586937 C4.75017142,11.7374693 4.97061453,11.7190448 5.14581016,11.8978863 C5.32015944,12.0758814 5.29789377,12.2911162 5.0749767,12.5160515 C4.70876509,12.8856485 4.34157692,13.2543341 3.97113354,13.6195691 C3.73714874,13.8502987 3.53304681,13.8474341 3.29652294,13.6178764 C3.16240811,13.4876678 3.02744693,13.3578499 2.90023315,13.2210658 C2.72946461,13.0374066 2.72204272,12.8103228 2.87262893,12.6535517 C3.03024641,12.489554 3.26566351,12.4956738 3.45772115,12.6740596 C3.51091135,12.7234737 3.55218746,12.7857134 3.62464853,12.8730834" id="Fill-31" fill="#FC5413"></path>
            </g>
        </g>
    </g>
</svg>