<?xml version="1.0" encoding="UTF-8"?>
<svg width="19px" height="25px" viewBox="0 0 19 25" version="1.1" xmlns="http://www.w3.org/2000/svg" xmlns:xlink="http://www.w3.org/1999/xlink">
    <title>Group 6</title>
    <defs>
        <polygon id="path-1" points="0 0 18.7415436 0 18.7415436 25 0 25"></polygon>
    </defs>
    <g id="Page-1" stroke="none" stroke-width="1" fill="none" fill-rule="evenodd">
        <g id="Mobile-1" transform="translate(-295.000000, -2757.000000)">
            <g id="Group-6" transform="translate(295.000000, 2757.000000)">
                <g id="Group-3">
                    <mask id="mask-2" fill="white">
                        <use xlink:href="#path-1"></use>
                    </mask>
                    <g id="Clip-2"></g>
                    <path d="M16.7555014,24.157571 C11.8329715,24.1577663 6.91037649,24.1577663 1.98784661,24.157571 C1.22345799,24.157571 0.849499362,23.7850446 0.849369153,23.0204607 C0.848880872,19.3427885 0.848880872,15.6651164 0.849369153,11.9874443 C0.849499362,11.21954 1.22150486,10.8461673 1.98374504,10.8461022 C4.44898134,10.8457116 6.91421764,10.8458488 9.37945394,10.8458488 C11.8365522,10.8458488 14.2936505,10.8457116 16.7506837,10.8460371 C17.5156582,10.8461673 17.8896819,11.2178473 17.8898773,11.9829521 C17.8906585,15.6606242 17.8904469,19.3382964 17.8899424,23.0159685 C17.8898122,23.7831566 17.5168952,24.1575059 16.7555014,24.157571 M5.56213325,7.02904195 C5.57020617,5.08678783 7.02196512,3.41979434 8.87170615,3.22422127 C10.9251583,3.0070336 12.6823211,4.26562833 13.100811,6.25671062 C13.1358371,6.4231821 13.1677382,6.59421088 13.1689751,6.76335164 C13.1765272,7.81263631 13.1750298,8.86205119 13.1756158,9.91140097 C13.1756158,9.93399214 13.1649387,9.9566484 13.1541314,9.99968229 L5.56141711,9.99968229 L5.56141711,9.76231231 C5.56141711,8.85117879 5.55835721,7.94011037 5.56213325,7.02904195 M3.28068616,6.30970545 C3.5870666,3.71614874 5.05451567,1.9512385 7.52678322,1.1423837 C11.1333616,-0.0376953419 14.9137682,2.36139507 15.453417,6.11706207 C15.5372713,6.70078648 15.5118806,7.30137289 15.5206046,7.89440721 C15.5308259,8.58490254 15.5230134,9.27559318 15.5230134,9.99193489 L14.0307597,9.99193489 C14.0264628,9.89857544 14.019106,9.81250767 14.0190409,9.72637479 C14.0181294,8.83151732 14.0234029,7.93672495 14.0173482,7.04193258 C14.0014628,4.70651409 12.452373,2.85208556 10.156603,2.41321803 C7.67137969,1.93815256 5.10829175,3.75820606 4.78836963,6.26921063 C4.69338257,7.01484923 4.73537479,7.7784566 4.72254926,8.53392594 C4.71441124,9.0119211 4.72098676,9.49024179 4.72098676,9.98483853 L3.24963145,9.98483853 C3.23927987,9.96726039 3.22450122,9.95384892 3.22456632,9.94056766 C3.23517831,8.7293688 3.13947511,7.50553972 3.28068616,6.30970545 M18.7368831,11.8171316 C18.7131201,10.7908287 17.9381846,10.024487 16.9132489,10.006974 C16.7375977,10.0039792 16.5618814,10.0065833 16.3653969,10.0065833 C16.3653969,9.88321085 16.3655271,9.79525505 16.3653969,9.70729925 C16.3639646,8.75534538 16.3784828,7.80300089 16.3582354,6.85143764 C16.289876,3.63965128 14.0849915,0.923763743 10.9566036,0.18723973 C10.6265252,0.109505294 10.2894156,0.061653694 9.95556116,0 L8.78368525,0 C8.60113302,0.0314453371 8.41910163,0.066145885 8.23596347,0.0939453859 C5.00510157,0.585026499 2.45653187,3.46653917 2.38361514,6.72904172 C2.36141461,7.72122999 2.37612816,8.71432972 2.37391462,9.70697373 C2.3737193,9.80130974 2.37391462,9.89564575 2.37391462,10.0087969 C2.1421436,10.0087969 1.94754709,10.0039141 1.75321101,10.0096432 C0.902689507,10.0347735 0.178535296,10.6640057 0.0380403943,11.5024829 C0.014016938,11.6460377 0.00177734514,11.7933035 0.00171224092,11.9388765 C-0.000240885605,15.6492961 -0.000436198257,19.3596505 0.000605469223,23.0700701 C0.000865886093,23.9261255 0.429056325,24.58804 1.16460377,24.8738476 C1.29246846,24.9235872 1.42612742,24.9583528 1.5571171,25.0000195 L17.1821293,25.0000195 C18.3896823,24.5878447 18.7391618,24.094485 18.7391618,22.8016454 C18.7391618,19.5306793 18.7391618,16.2597132 18.7390967,12.9887471 C18.7390967,12.5981869 18.7458675,12.2074965 18.7368831,11.8171316" id="Fill-1" fill="#FC5413" mask="url(#mask-2)"></path>
                </g>
                <path d="M10.1678725,17.4623834 C9.93668745,17.6284643 9.86963011,17.8166806 9.93199995,18.090574 C10.0724297,18.7071761 10.1932632,19.3282052 10.3261409,19.9670078 L8.41357428,19.9670078 C8.54534522,19.331851 8.66481146,18.7116683 8.80576209,18.0964334 C8.86839235,17.8231259 8.80537146,17.6333471 8.57672545,17.4648574 C8.05081358,17.077292 7.87581344,16.439466 8.11461571,15.8613405 C8.35537111,15.2783974 8.95654346,14.9457799 9.59762469,15.0408972 C10.1836277,15.1278113 10.6632505,15.6319784 10.7192401,16.2567184 C10.7638365,16.75431 10.5746437,17.1701957 10.1678725,17.4623834 M11.5480168,16.080937 C11.4133813,15.1171993 10.683563,14.3658966 9.7722993,14.2122507 C8.80159542,14.0485136 7.86096968,14.5071728 7.4181308,15.3601683 C6.96969295,16.2239059 7.13121651,17.2245577 7.8242509,17.9470843 C7.8829098,18.0082823 7.92158171,18.1318501 7.90582649,18.214272 C7.77770139,18.8841944 7.63453721,19.5512523 7.49566992,20.2191564 C7.41292246,20.6170083 7.57705019,20.826709 7.98844374,20.8318522 C8.44384774,20.8375163 8.89931685,20.8331543 9.35478595,20.8330892 C9.82646601,20.8330241 10.2982763,20.8388184 10.7698261,20.8312012 C11.162079,20.8249512 11.3246443,20.6092609 11.2443708,20.223909 C11.1069358,19.5640778 10.9737325,18.9032049 10.8282897,18.2451314 C10.7983418,18.1094543 10.8237324,18.0256 10.9220398,17.9267067 C11.4302433,17.4157688 11.647431,16.7919402 11.5480168,16.080937" id="Fill-4" fill="#FC5413"></path>
            </g>
        </g>
    </g>
</svg>