<?xml version="1.0" encoding="UTF-8"?>
<svg width="20px" height="20px" viewBox="0 0 20 20" version="1.1" xmlns="http://www.w3.org/2000/svg" xmlns:xlink="http://www.w3.org/1999/xlink">
    <title>Office-Hours-Icon</title>
    <defs>
        <polygon id="path-1" points="0 0 20 0 20 20 0 20"></polygon>
    </defs>
    <g id="Page-1" stroke="none" stroke-width="1" fill="none" fill-rule="evenodd">
        <g id="Mobile-1" transform="translate(-161.000000, -509.000000)">
            <g id="Office-Hours-Icon" transform="translate(161.000000, 509.000000)">
                <g id="Group-3">
                    <mask id="mask-2" fill="white">
                        <use xlink:href="#path-1"></use>
                    </mask>
                    <g id="Clip-2"></g>
                    <path d="M10.0028542,18.8279332 C14.8704113,18.8248585 18.835728,14.8545949 18.8279789,9.99183072 C18.8202071,5.12885817 14.8684842,1.1778655 10.0065,1.17202574 C5.14305744,1.16619883 1.17393872,5.13146234 1.17206306,9.99787239 C1.17018872,14.8620949 5.13946369,18.8310043 10.0028542,18.8279332 M9.37498893,0 L10.6249902,0 C10.9653031,0.0450000352 11.3073868,0.0791667285 11.6455121,0.13677094 C13.5171287,0.455364939 15.1714533,1.23859472 16.5915589,2.49807487 C18.3393733,4.04812816 19.4331765,5.97370258 19.8460936,8.27755855 C19.9112499,8.64089217 19.9493749,9.00906954 20,9.37500732 L20,10.6250083 C19.9888021,10.6750083 19.9747916,10.7245917 19.966875,10.7751126 C19.8864582,11.2879255 19.8390623,11.8082905 19.7221872,12.3126138 C18.8310925,16.1568355 15.6013496,19.1930879 11.7215018,19.8479322 C11.3578035,19.9092864 10.9905635,19.9498073 10.6249902,20.0000156 L9.37498893,20.0000156 C9.24733255,19.9838698 9.1198845,19.9659531 8.99201978,19.9519427 C7.01550731,19.7350675 5.24310963,19.0166815 3.70638928,17.7537639 C1.79055395,16.1792314 0.595396454,14.169334 0.153573077,11.7227175 C0.0879480083,11.3593839 0.0505000526,10.9909982 -2.08333553e-05,10.6250083 C-2.08333553e-05,10.2083413 -2.08333553e-05,9.79167432 -2.08333553e-05,9.37500732 C0.0109687614,9.32474687 0.0280521126,9.27500725 0.03201045,9.22422596 C0.164771005,7.51740171 0.691542387,5.94089006 1.64779338,4.52255562 C3.25222214,2.14286626 5.46425569,0.668906773 8.29759198,0.152187619 C8.65410276,0.0871354847 9.01576981,0.0500521224 9.37498893,0" id="Fill-1" fill="#FC5413" mask="url(#mask-2)"></path>
                </g>
                <path d="M10.2298958,7.62545397 C10.2298958,8.12532309 10.2338329,8.62529612 10.22717,9.12506132 C10.2254538,9.2525095 10.2639676,9.34073087 10.3510906,9.4299394 C11.3572957,10.4599161 12.3598665,11.4937375 13.3631944,12.5267795 C13.6847823,12.8578954 13.7242552,13.2005455 13.4719215,13.4631314 C13.2188812,13.7264446 12.8825541,13.6879452 12.5627834,13.3588036 C11.4923717,12.2570757 10.4239287,11.1533734 9.34983224,10.0554382 C9.17250714,9.87416359 9.0891699,9.67558758 9.09090909,9.41611909 C9.09855859,8.29953171 9.09260232,7.18284042 9.09522712,6.06625304 C9.09603475,5.71705645 9.33615302,5.45987403 9.65299608,5.45454545 C9.97725922,5.44927499 10.2226271,5.70962674 10.2295929,6.06734411 C10.2311072,6.14522623 10.2298958,6.22316029 10.2298958,6.30109436 C10.2298958,6.74251293 10.2298958,7.18398345 10.2298958,7.62545397" id="Fill-4" fill="#FC5413"></path>
                <path d="M10.0013245,3.17949455 C10.0013245,2.9527724 9.99786449,2.72586833 10.0021291,2.49932809 C10.0093709,2.11331225 10.2051815,1.82013182 10.4513227,1.81818182 C10.6969811,1.81625105 10.8994703,2.10821873 10.9044993,2.49241546 C10.9104939,2.95319686 10.9108158,3.41452399 10.9042981,3.87530539 C10.8988668,4.25859256 10.6939637,4.54977196 10.448426,4.54540609 C10.2025664,4.54097958 10.0088077,4.24682896 10.0020486,3.85966102 C9.99806565,3.63306014 10.0013245,3.40621671 10.0013245,3.17949455" id="Fill-6" fill="#FC5413"></path>
                <path d="M3.17459471,9.99850317 C2.9478489,9.99846293 2.72092116,10.002447 2.49435728,9.99757759 C2.11060561,9.98932784 1.81751588,9.7903278 1.81818182,9.54488772 C1.81885003,9.29948787 2.11278877,9.09920007 2.49732881,9.09469289 C2.9506385,9.0894211 3.40437269,9.08994426 3.85774303,9.09449168 C4.24598231,9.09839522 4.53998169,9.29316977 4.54537896,9.53933423 C4.55089751,9.79169606 4.25362338,9.991179 3.85483214,9.99785929 C3.62820762,10.0016421 3.40134052,9.99854341 3.17459471,9.99850317" id="Fill-8" fill="#FC5413"></path>
                <path d="M16.8170486,9.99820919 C16.5903013,9.99837007 16.3633721,10.0019495 16.1368067,9.99756569 C15.7508087,9.99016548 15.4572319,9.79466316 15.4545455,9.54904854 C15.4518952,9.30379588 15.7448049,9.10024985 16.1277101,9.09534318 C16.5886033,9.08947128 17.0499209,9.08935062 17.5108141,9.09546384 C17.8941438,9.10053138 18.18578,9.3047209 18.1817775,9.55053662 C18.1778963,9.79031956 17.8920212,9.986948 17.5199107,9.99688198 C17.2859467,10.0031159 17.0513764,9.99804832 16.8170486,9.99820919" id="Fill-10" fill="#FC5413"></path>
                <path d="M9.99848001,16.8087035 C9.99856051,17.0354255 10.0016194,17.2622688 9.99791653,17.4888696 C9.99135597,17.8885892 9.79300974,18.186196 9.54085082,18.1817694 C9.29489022,18.1774642 9.09859668,17.8833744 9.09453155,17.4962673 C9.08978219,17.0428839 9.08958094,16.5892579 9.09465229,16.1359351 C9.09895892,15.7497982 9.29722465,15.456618 9.54346699,15.4545455 C9.78922635,15.4524946 9.9888203,15.7444622 9.99747379,16.128598 C10.0025451,16.3550169 9.99839952,16.5819815 9.99848001,16.8087035" id="Fill-12" fill="#FC5413"></path>
                <path d="M15.4545143,15.0091052 C15.4515931,15.2636507 15.2516549,15.4575922 14.9953218,15.4545092 C14.7430864,15.4515074 14.5406328,15.2449097 14.545542,14.9955565 C14.5504106,14.7476636 14.7631695,14.5409848 15.0088322,14.5455281 C15.2604184,14.5501525 15.4573949,14.7550464 15.4545143,15.0091052" id="Fill-14" fill="#FC5413"></path>
                <path d="M4.54548707,5.0043705 C4.54256621,4.74802565 4.73672204,4.54815943 4.99120167,4.54548156 C5.245803,4.5428037 5.45014126,4.73950516 5.45448197,4.99138691 C5.45870099,5.2370203 5.25205039,5.44946437 5.00406155,5.45445494 C4.75420661,5.45944551 4.54840793,5.25742889 4.54548707,5.0043705" id="Fill-16" fill="#FC5413"></path>
                <path d="M15.4545455,4.99704368 C15.4546264,5.24776445 15.2506939,5.45434282 15.0028155,5.45454545 C14.7592305,5.4547478 14.5460227,5.24205429 14.5454545,4.99825861 C14.5448887,4.75158759 14.752426,4.54565719 15.001803,4.54545455 C15.2554732,4.54525221 15.4544644,4.74369056 15.4545455,4.99704368" id="Fill-18" fill="#FC5413"></path>
                <path d="M5.00084445,15.4545455 C4.74813774,15.4560753 4.54687982,15.2575375 4.54545455,15.0053462 C4.54404406,14.7546128 4.74659833,14.5473284 4.99480833,14.5454657 C5.23811651,14.543684 5.45221637,14.7549772 5.45452549,14.9992723 C5.45687512,15.2469283 5.2514851,15.4530383 5.00084445,15.4545455" id="Fill-20" fill="#FC5413"></path>
            </g>
        </g>
    </g>
</svg>