<?xml version="1.0" encoding="UTF-8"?>
<svg width="15px" height="15px" viewBox="0 0 15 15" version="1.1" xmlns="http://www.w3.org/2000/svg" xmlns:xlink="http://www.w3.org/1999/xlink">
    <title>Group 8</title>
    <defs>
        <polygon id="path-1" points="0 0 7.11323478 0 7.11323478 7.11069201 0 7.11069201"></polygon>
    </defs>
    <g id="Page-1" stroke="none" stroke-width="1" fill="none" fill-rule="evenodd">
        <g id="Mobile-1" transform="translate(-22.000000, -587.000000)">
            <g id="Group-8" transform="translate(22.000000, 587.000000)">
                <path d="M12.9771989,12.6256096 C12.974033,12.6256096 12.974033,12.6287754 12.9771989,12.6256096 C12.8537306,12.7585754 12.7270964,12.8788779 12.5909647,13.0118437 C12.3851842,13.2081267 12.1762378,13.4139072 11.9799549,13.6450145 C11.6602036,13.9869267 11.283467,14.1483853 10.7895938,14.1483853 C10.742106,14.1483853 10.6914523,14.1483853 10.6439645,14.1452194 C9.70370589,14.0850682 8.82993021,13.7178292 8.17459845,13.4044096 C6.38272512,12.5369656 4.80929572,11.3054485 3.50179805,9.74468248 C2.42224186,8.44351651 1.70042716,7.24049202 1.22238322,5.94882362 C0.927958806,5.16052599 0.820319772,4.54635033 0.867807581,3.96699906 C0.899466121,3.59659415 1.04192955,3.28950632 1.30469542,3.02674044 L2.38425161,1.94718425 C2.53937846,1.80155497 2.70400286,1.72240863 2.86546141,1.72240863 C3.06491021,1.72240863 3.22636876,1.84271107 3.32767608,1.9440184 C3.33084194,1.94718425 3.33400779,1.95035011 3.33717365,1.95351596 C3.53029073,2.13396964 3.71391026,2.32075502 3.90702735,2.52020382 C4.00516882,2.62151114 4.10647615,2.72281847 4.20778348,2.82729165 L5.0720616,3.69156977 C5.40764211,4.02715029 5.40764211,4.33740397 5.0720616,4.67298449 C4.98025183,4.76479425 4.89160792,4.85660401 4.79979816,4.94524792 C4.53386643,5.21751136 4.28059812,5.47077968 4.00516882,5.71771628 C3.99883712,5.72404799 3.99250541,5.72721384 3.98933955,5.73354555 C3.71707612,6.00580899 3.76772978,6.27174072 3.82471515,6.45219439 C3.827881,6.46169196 3.83104686,6.47118952 3.83421271,6.48068708 C4.05898834,7.02521395 4.37557373,7.53808229 4.85678353,8.1490921 L4.85994938,8.15225795 C5.73372507,9.22864829 6.65498856,10.0675996 7.67122767,10.7102679 C7.80102768,10.7925801 7.93399355,10.8590631 8.06062771,10.9223801 C8.17459845,10.9793655 8.28223748,11.033185 8.37404724,11.0901704 C8.38671066,11.0965021 8.39937408,11.1059997 8.41203749,11.1123314 C8.51967653,11.1661509 8.62098385,11.1914777 8.72545703,11.1914777 C8.98822291,11.1914777 9.15284731,11.0268533 9.20666683,10.9730338 L10.2893889,9.89031176 C10.3970279,9.78267273 10.567984,9.65287272 10.7674328,9.65287272 C10.9637158,9.65287272 11.1251743,9.77634102 11.2233158,9.88398005 L11.2296475,9.89031176 L12.974033,11.6346973 C13.300116,11.9576144 13.300116,12.290029 12.9771989,12.6256096 L12.9771989,12.6256096 Z M11.8438232,9.29196537 C11.5367353,8.97221412 11.1663304,8.80125801 10.7737645,8.80125801 C10.3843645,8.80125801 10.0107937,8.96904827 9.69104248,9.28879951 L8.69063264,10.2860435 C8.60832044,10.2417215 8.52600823,10.2005654 8.44686189,10.1594093 C8.33289114,10.102424 8.22525211,10.0486045 8.13344235,9.99161909 C7.19634958,9.39643855 6.34473488,8.62080433 5.52794456,7.61722864 C5.13221282,7.11702372 4.86628109,6.69596515 4.673164,6.26857487 C4.93276402,6.03113582 5.17336892,5.78419922 5.40764211,5.54676017 C5.49628602,5.45811626 5.58492993,5.3663065 5.67357384,5.27766259 C6.33840317,4.61283326 6.33840317,3.75172099 5.67357384,3.08689167 L4.80929572,2.22261355 C4.71115425,2.12447207 4.60984692,2.02316475 4.51487131,1.92185742 C4.32492007,1.72557448 4.12547127,1.52295983 3.91969077,1.33300859 C3.61260294,1.02908662 3.24536388,0.867628065 2.8591297,0.867628065 C2.47289552,0.867628065 2.09932476,1.02908662 1.78273937,1.33300859 C1.77957351,1.33617445 1.77957351,1.33617445 1.77640766,1.3393403 L0.700017323,2.4252282 C0.29478802,2.8304575 0.0636806835,3.32433071 0.0130270206,3.89735027 C-0.0629534737,4.82177962 0.209309964,5.68289189 0.418256323,6.24641389 C0.93112466,7.62989206 1.69726131,8.9120629 2.84013458,10.2860435 C4.2267786,11.9417851 5.89518362,13.2492828 7.80102768,14.1705463 C8.52917409,14.5156243 9.50109124,14.9240195 10.5869791,14.9936683 C10.6534621,14.9968341 10.7231109,15 10.7864279,15 C11.5177402,15 12.1319159,14.7372341 12.6131257,14.2148682 C12.6162915,14.2085365 12.6226232,14.2053707 12.6257891,14.199039 C12.7904135,13.9995902 12.9803647,13.8191365 13.1798135,13.6260194 C13.3159452,13.4962194 13.4552428,13.3600877 13.5913745,13.2176242 C13.9047941,12.8915413 14.0694185,12.5116388 14.0694185,12.1222388 C14.0694185,11.7296729 13.9016282,11.3529363 13.581877,11.0363509 L11.8438232,9.29196537 Z" id="Fill-1" fill="#FC5413"></path>
                <path d="M8.0954521,3.56810147 C8.92490583,3.70739904 9.67837906,4.09996493 10.2798913,4.70147717 C10.8814036,5.30298942 11.2708036,6.05646265 11.413267,6.88591638 C11.4480914,7.09486274 11.6285451,7.24049202 11.8343256,7.24049202 C11.8596524,7.24049202 11.8818134,7.23732617 11.9071402,7.23416031 C12.1414134,7.19617007 12.2965403,6.97456029 12.25855,6.7402871 C12.0875939,5.73671141 11.6127158,4.82177962 10.8877353,4.09679907 C10.1627547,3.37181852 9.24782293,2.89694043 8.24424723,2.72598432 C8.00997404,2.68799407 7.79153012,2.84312092 7.75037402,3.07422825 C7.70921792,3.30533559 7.86117891,3.53011122 8.0954521,3.56810147" id="Fill-3" fill="#FC5413"></path>
                <g id="Group-7" transform="translate(7.864958, 0.000000)">
                    <mask id="mask-2" fill="white">
                        <use xlink:href="#path-1"></use>
                    </mask>
                    <g id="Clip-6"></g>
                    <path d="M7.10672895,6.6168188 C6.82496795,4.96424305 6.04616789,3.46046243 4.8494751,2.26376965 C3.65278232,1.06707686 2.1490017,0.288276796 0.49642595,0.00651579625 C0.265318614,-0.0346403048 0.0468746925,0.123652392 0.00571859146,0.354759728 C-0.0322716557,0.589032919 0.122855187,0.80747684 0.357128377,0.848632941 C1.83241631,1.0987354 3.17790423,1.79838912 4.24796286,2.86528189 C5.31802148,3.93534052 6.01450935,5.28082844 6.26461181,6.75611637 C6.2994362,6.96506273 6.47988987,7.11069201 6.68567038,7.11069201 C6.71099721,7.11069201 6.73315819,7.10752616 6.75848502,7.1043603 C6.98959236,7.06953591 7.14788505,6.84792613 7.10672895,6.6168188" id="Fill-5" fill="#FC5413" mask="url(#mask-2)"></path>
                </g>
            </g>
        </g>
    </g>
</svg>