<?xml version="1.0" encoding="UTF-8"?>
<svg width="30px" height="30px" viewBox="0 0 30 30" version="1.1" xmlns="http://www.w3.org/2000/svg" xmlns:xlink="http://www.w3.org/1999/xlink">
    <title>Phone-Icon</title>
    <defs>
        <polygon id="path-1" points="0 0 14.2471824 0 14.2471824 14.221384 0 14.221384"></polygon>
    </defs>
    <g id="Page-1" stroke="none" stroke-width="1" fill="none" fill-rule="evenodd">
        <g id="Mobile-1" transform="translate(-78.000000, -2062.000000)">
            <g id="Phone-Icon" transform="translate(78.000000, 2062.000000)">
                <path d="M25.9921857,25.2512191 C25.9858448,25.2512191 25.9858448,25.2575508 25.9921857,25.2512191 C25.7448896,25.5171508 25.4912526,25.7577557 25.2185927,26.0236875 C24.8064325,26.4162534 24.3879314,26.8278144 23.9947939,27.290029 C23.3543603,27.9738535 22.5997901,28.2967706 21.6106056,28.2967706 C21.5154917,28.2967706 21.4140369,28.2967706 21.318923,28.2904389 C19.4356678,28.1701364 17.6855721,27.4356583 16.3730003,26.8088192 C12.784036,25.0739313 9.63259553,22.6108969 7.01379291,19.489365 C4.85153699,16.887033 3.40580577,14.480984 2.44832587,11.8976472 C1.85861972,10.321052 1.64302822,9.09270066 1.73814211,7.93399812 C1.80155138,7.1931883 2.08689307,6.57901264 2.61318996,6.05348089 L4.77544588,3.89436851 C5.08615127,3.60310995 5.41587945,3.44481725 5.7392667,3.44481725 C6.13874506,3.44481725 6.46213231,3.68542215 6.66504196,3.8880368 C6.67138288,3.89436851 6.67772381,3.90070022 6.68406473,3.90703192 C7.07086125,4.26793927 7.43863498,4.64151004 7.82543149,5.04040763 C8.02200021,5.24302228 8.22490986,5.44563693 8.42781951,5.65458329 L10.1588924,7.38313954 C10.8310306,8.05430057 10.8310306,8.67480794 10.1588924,9.34596897 C9.97500556,9.5295885 9.79745962,9.71320803 9.61357275,9.89049585 C9.08093493,10.4350227 8.57366081,10.9415594 8.02200021,11.4354326 C8.00931836,11.448096 7.99663651,11.4544277 7.99029558,11.4670911 C7.44497591,12.011618 7.54643073,12.5434814 7.66056741,12.9043888 C7.66690833,12.9233839 7.67324926,12.942379 7.67959019,12.9613742 C8.12979596,14.0504279 8.76388861,15.0761646 9.72770943,16.2981842 L9.73405035,16.3045159 C11.484146,18.4572966 13.3293556,20.1351992 15.364793,21.4205359 C15.624771,21.5851603 15.8910899,21.7181261 16.144727,21.8447603 C16.3730003,21.958731 16.5885918,22.0663701 16.7724787,22.1803408 C16.7978424,22.1930042 16.8232061,22.2119993 16.8485698,22.2246628 C17.0641613,22.3323018 17.267071,22.3829554 17.4763215,22.3829554 C18.0026184,22.3829554 18.3323466,22.0537066 18.4401424,21.9460676 L20.6087392,19.7806235 C20.8243307,19.5653455 21.1667407,19.3057454 21.5662191,19.3057454 C21.9593565,19.3057454 22.2827438,19.552682 22.4793125,19.7679601 L22.4919943,19.7806235 L25.9858448,23.2693945 C26.6389602,23.9152288 26.6389602,24.5800581 25.9921857,25.2512191 L25.9921857,25.2512191 Z M23.7221341,18.5839307 C23.1070642,17.9444282 22.3651758,17.602516 21.5789009,17.602516 C20.798967,17.602516 20.0507377,17.9380965 19.4103041,18.577599 L17.4065713,20.572087 C17.2417073,20.4834431 17.0768432,20.4011309 16.91832,20.3188187 C16.6900467,20.2048479 16.4744552,20.0972089 16.2905683,19.9832382 C14.4136541,18.7928771 12.7079449,17.2416087 11.0719858,15.2344573 C10.27937,14.2340474 9.7467322,13.3919303 9.35993569,12.5371497 C9.87989166,12.0622716 10.3618021,11.5683984 10.8310306,11.0935203 C11.0085766,10.9162325 11.1861225,10.732613 11.3636684,10.5553252 C12.695263,9.22566652 12.695263,7.50344199 11.3636684,6.17378334 L9.63259553,4.44522709 C9.43602681,4.24894415 9.23311716,4.0463295 9.04288937,3.84371485 C8.66243378,3.45114896 8.26295542,3.04591966 7.8507952,2.66601718 C7.23572533,2.05817323 6.50017787,1.73525613 5.72658484,1.73525613 C4.95299182,1.73525613 4.2047625,2.05817323 3.57066985,2.66601718 C3.56432893,2.67234889 3.56432893,2.67234889 3.557988,2.6786806 L1.40207301,4.85045639 C0.590434427,5.660915 0.127546797,6.64866143 0.0260919743,7.79470055 C-0.12609026,9.64355924 0.419229414,11.3657838 0.837730558,12.4928278 C1.86496064,15.2597841 3.39946484,17.8241258 5.68853928,20.572087 C8.46586506,23.8835702 11.8075333,26.4985656 15.624771,28.3410925 C17.0831841,29.0312487 19.0298485,29.848039 21.2047863,29.9873366 C21.3379457,29.9936683 21.4774461,30 21.6042646,30 C23.0690187,30 24.2991584,29.4744682 25.2629792,28.4297365 C25.2693201,28.417073 25.282002,28.4107413 25.2883429,28.3980779 C25.6180711,27.9991803 25.9985267,27.638273 26.398005,27.2520388 C26.6706649,26.9924388 26.9496656,26.7201753 27.2223255,26.4352485 C27.8500772,25.7830826 28.1798054,25.0232776 28.1798054,24.2444776 C28.1798054,23.4593458 27.8437363,22.7058725 27.2033027,22.0727018 L23.7221341,18.5839307 Z" id="Fill-1" fill="#FC5413"></path>
                <path d="M16.2144772,7.13620293 C17.8757999,7.41479808 19.3849404,8.19992985 20.5897164,9.40295434 C21.7944924,10.6059788 22.5744264,12.1129253 22.8597681,13.7718328 C22.9295183,14.1897255 23.2909511,14.480984 23.7031113,14.480984 C23.7538387,14.480984 23.7982252,14.4746523 23.8489526,14.4683206 C24.3181812,14.3923401 24.6288866,13.9491206 24.5527954,13.4805742 C24.2103854,11.4734228 23.2592464,9.64355924 21.8071743,8.19359814 C20.3551021,6.74363704 18.5225744,5.79388087 16.5125007,5.45196864 C16.0432722,5.37598815 15.6057482,5.68624183 15.5233162,6.14845651 C15.4408841,6.61067118 15.7452486,7.06022244 16.2144772,7.13620293" id="Fill-3" fill="#FC5413"></path>
                <g id="Group-7" transform="translate(15.752818, 0.000000)">
                    <mask id="mask-2" fill="white">
                        <use xlink:href="#path-1"></use>
                    </mask>
                    <g id="Clip-6"></g>
                    <path d="M14.2341518,13.2336376 C13.6698094,9.9284861 12.1099415,6.92092486 9.71307129,4.52753929 C7.31620109,2.13415372 4.30426103,0.576553592 0.994297433,0.0130315925 C0.531409803,-0.0692806096 0.0938858785,0.247304783 0.0114538348,0.709519457 C-0.0646372825,1.17806584 0.246068113,1.61495368 0.715296669,1.69726588 C3.67016839,2.1974708 6.36506213,3.59677824 8.50829526,5.73056379 C10.6515284,7.87068104 12.0465322,10.5616569 12.5474654,13.5122327 C12.6172156,13.9301255 12.9786484,14.221384 13.3908086,14.221384 C13.441536,14.221384 13.4859225,14.2150523 13.5366499,14.2087206 C13.9995376,14.1390718 14.3165839,13.6958523 14.2341518,13.2336376" id="Fill-5" fill="#FC5413" mask="url(#mask-2)"></path>
                </g>
            </g>
        </g>
    </g>
</svg>