<?xml version="1.0" encoding="UTF-8"?>
<svg width="25px" height="25px" viewBox="0 0 25 25" version="1.1" xmlns="http://www.w3.org/2000/svg" xmlns:xlink="http://www.w3.org/1999/xlink">
    <title>Storable-Items-Icon</title>
    <defs>
        <polygon id="path-1" points="0 0 25 0 25 25 0 25"></polygon>
    </defs>
    <g id="Page-1" stroke="none" stroke-width="1" fill="none" fill-rule="evenodd">
        <g id="Mobile-1" transform="translate(-36.000000, -821.000000)">
            <g id="Storable-Items-Icon" transform="translate(36.000000, 821.000000)">
                <g id="Group-3">
                    <mask id="mask-2" fill="white">
                        <use xlink:href="#path-1"></use>
                    </mask>
                    <g id="Clip-2"></g>
                    <path d="M12.0722037,7.87213096 C12.0557323,7.86750856 12.0392609,7.86288616 12.0227896,7.85826377 C11.6899119,8.41412328 11.3590524,8.97115468 11.023831,9.52558191 C10.4873725,10.4129519 9.64023689,10.7490197 8.6429059,10.4700483 C6.96100442,9.99960547 5.27968887,9.52681889 3.5979176,9.05572501 C3.24036543,8.95559478 2.88190179,8.85871975 2.51419336,8.75767806 C2.50579492,8.81835516 2.4975918,8.84999579 2.4975918,8.88157132 C2.49694075,11.1274052 2.49583398,13.3732392 2.49811263,15.6190731 C2.49837305,15.9069638 2.60905016,16.0300107 2.9069018,16.1115211 C3.84694111,16.3689431 4.7867851,16.6270812 5.72714993,16.8833312 C5.89427237,16.928839 6.06347814,16.9666646 6.25006673,17.012563 C6.25006673,15.6857398 6.24987142,14.3926405 6.25013184,13.0995412 C6.25026204,11.927731 6.92597837,11.2480433 8.09394742,11.2470016 C9.32265868,11.2458298 10.5513699,11.2467412 11.7800812,11.2467412 C11.8741567,11.2467412 11.9682323,11.2467412 12.0722037,11.2467412 L12.0722037,7.87213096 Z M12.9459669,7.80416219 L12.9459669,11.2467412 C13.0424513,11.2467412 13.137894,11.2467412 13.2334019,11.2467412 C14.486397,11.2467412 15.7394572,11.2417282 16.9924523,11.2483688 C18.0524787,11.2539027 18.7480518,11.9578091 18.7496143,13.0143198 C18.7513721,14.2348279 18.7500049,15.4553361 18.7500049,16.6758442 C18.7500049,16.7805317 18.7500049,16.8852192 18.7500049,17.0059224 C18.8313851,16.9920552 18.8948617,16.9865865 18.9553435,16.97005 C19.9816458,16.6896463 21.0079482,16.4090472 22.0334042,16.1255836 C22.4349017,16.0146461 22.5036517,15.9209612 22.5036517,15.5085913 C22.5039772,13.3442027 22.50384,11.1798792 22.50384,9.01555573 L22.50384,8.76099838 C22.4003965,8.78677963 22.3300839,8.80253484 22.260748,8.82187079 C20.2892631,9.37167562 18.3180386,9.9223268 16.3464235,10.4718061 C15.363741,10.7456994 14.5106158,10.4074181 13.9839229,9.53469649 C13.6479853,8.97812083 13.3150425,8.41972224 12.9459669,7.80416219 L12.9459669,7.80416219 Z M11.8638052,6.5064405 C11.3271514,6.35539879 10.8275419,6.21405761 10.3274766,6.07414872 C7.7233093,5.34537249 5.11836071,4.61920042 2.51608138,3.88378356 C2.33235738,3.83183042 2.24322975,3.864057 2.14876358,4.02805443 C1.78372442,4.66190877 1.39987016,5.2848256 1.03072944,5.91633618 C0.600651198,6.65201345 0.915364822,7.43124542 1.73313847,7.66679236 C2.17793025,7.79491739 2.62402412,7.91855024 3.06979247,8.04322475 C5.0249362,8.59029521 6.97975442,9.13860264 8.93574451,9.6826783 C9.43893475,9.8226523 9.92760675,9.68189705 10.1897162,9.26640215 C10.7573596,8.36672744 11.2951201,7.44810741 11.8638052,6.5064405 L11.8638052,6.5064405 Z M13.1391961,6.50552904 C13.6625036,7.37818552 14.1678422,8.2214149 14.6738319,9.06425366 C15.0353555,9.66640226 15.4850301,9.8491497 16.1593792,9.66034757 C18.5215543,8.99895417 20.883469,8.3365842 23.2446675,7.67174028 C24.0964907,7.43189647 24.4082095,6.65422699 23.9593161,5.89315909 C23.5875712,5.26295059 23.2046284,4.63938272 22.8382221,4.00611432 C22.7520242,3.85709085 22.6703835,3.83339293 22.5091204,3.87896585 C20.3831433,4.47961705 18.2549527,5.07245575 16.1274782,5.6677033 C15.1423868,5.94328931 14.1575558,6.21998209 13.1391961,6.50552904 L13.1391961,6.50552904 Z M21.354042,3.33886155 C21.2516982,3.29940841 21.2160212,3.28241622 21.1785211,3.27167403 C18.3908902,2.47642643 15.6040405,1.67805382 12.8130893,0.894459868 C12.6141309,0.838600479 12.3714876,0.845241106 12.171162,0.901360912 C9.60631761,1.61985068 7.04544454,2.35246806 4.48379023,3.08241617 C4.22174589,3.15702556 3.96139426,3.23755944 3.65690199,3.32831467 C3.72955826,3.35546311 3.75058691,3.36509853 3.77259213,3.37128343 C6.63450694,4.17310656 9.49629154,4.97545051 12.3594433,5.77252103 C12.4537793,5.79882312 12.5686882,5.79289864 12.6642611,5.76659655 C14.0970089,5.37213031 15.5283895,4.97278124 16.9594445,4.57239051 C18.405734,4.16776801 19.8513724,3.76073666 21.354042,3.33886155 L21.354042,3.33886155 Z M7.08203309,18.1184227 C7.08203309,19.8188789 7.08144716,21.519335 7.08235862,23.2197912 C7.08268414,23.8380205 7.41308787,24.1677081 8.03307501,24.1678383 C11.0108753,24.1685545 13.9886755,24.1685545 16.9664758,24.1678383 C17.586528,24.1677081 17.9177781,23.8380856 17.9179083,23.2205073 C17.9186896,19.827733 17.9184538,16.4349587 17.9179734,13.0421844 C17.9179083,12.4071582 17.5951869,12.0829393 16.9549523,12.0826138 C13.985225,12.0809862 11.0155628,12.0809862 8.04590053,12.0826138 C7.40403839,12.0829393 7.08261903,12.4059863 7.08229351,13.0415333 C7.08157736,14.7338515 7.08203309,16.4261045 7.08203309,18.1184227 L7.08203309,18.1184227 Z M12.2070344,-6.51041836e-06 L12.7929721,-6.51041836e-06 C12.8123731,0.0134049514 12.8300164,0.0331966232 12.8515007,0.0393164165 C16.0034547,0.936256754 19.1564503,1.82974657 22.3074928,2.7296817 C23.3788472,3.03567136 23.091217,2.80084057 23.6476624,3.75845801 C24.1222068,4.57499468 24.7229882,5.32564592 25,6.24999512 L25,6.83593277 C24.9839909,6.88111507 24.9640039,6.92532081 24.9525456,6.97160989 C24.769082,7.71034706 24.3145246,8.1980425 23.594928,8.44068579 C23.5125061,8.46842017 23.4285217,8.49153216 23.336204,8.51959206 L23.336204,8.82564683 C23.336204,11.0304651 23.3362691,13.2353485 23.336204,15.4402319 C23.336204,16.3302061 23.0482482,16.7110655 22.1929094,16.9466776 C21.0511123,17.2611308 19.9087291,17.573696 18.7500049,17.8915997 C18.7500049,17.9957013 18.7500049,18.0921857 18.7500049,18.1887352 C18.7500049,19.8891263 18.7527393,21.5895824 18.7486377,23.2900386 C18.746945,23.9980466 18.42201,24.5183592 17.7914109,24.8387369 C17.6485072,24.9113281 17.4869186,24.9472005 17.3339889,24.9999935 L7.66601762,24.9999935 C6.56191577,24.7214843 6.21875162,23.9143877 6.23971517,22.9962885 C6.27656413,21.3861319 6.25000163,19.7745429 6.25000163,18.1635399 C6.25000163,18.0751284 6.25000163,17.9867169 6.25000163,17.8945294 C6.1484391,17.8645164 6.06425939,17.8380841 5.97923333,17.8147117 C4.89075648,17.5156231 3.80188901,17.2179667 2.71367258,16.9178364 C1.98626354,16.7171853 1.66445356,16.2927712 1.66432335,15.5372371 C1.66393272,13.2915985 1.66419314,11.046025 1.66419314,8.80038641 C1.66419314,8.70487857 1.66419314,8.60937073 1.66419314,8.51588112 C0.936979411,8.34146702 0.414583441,7.955269 0.141210974,7.27310736 C0.084375022,7.13124535 0.0465494913,6.98183125 0,6.83593277 C0,6.64062022 0,6.44530767 0,6.24999512 C0.111914092,5.98313307 0.197981822,5.70149237 0.340559985,5.45227356 C0.759765823,4.71946086 1.20579458,4.00207787 1.63151084,3.27291101 C1.74967493,3.070437 1.90214893,2.94817134 2.12955785,2.88391351 C4.65084757,2.17121801 7.17063989,1.45337928 9.68991138,0.733847847 C10.5302762,0.493808722 11.3680368,0.244850324 12.2070344,-6.51041836e-06 L12.2070344,-6.51041836e-06 Z" id="Fill-1" fill="#FC5413" mask="url(#mask-2)"></path>
                </g>
                <path d="M14.1425558,14.9962409 C13.4836363,14.9961758 12.8247169,14.9977383 12.1657974,14.9955247 C11.8516698,14.9944831 11.6704197,14.8404466 11.6699631,14.5836757 C11.6695082,14.3297043 11.8567479,14.1654464 12.1644303,14.1649907 C13.4985452,14.1627771 14.832595,14.1627771 16.1667099,14.1648605 C16.4796657,14.1653813 16.659158,14.3229334 16.6593534,14.5821132 C16.6594835,14.8442877 16.4853949,14.9944831 16.1680771,14.9955898 C15.4929467,14.9978685 14.8177513,14.996306 14.1425558,14.9962409" id="Fill-4" fill="#FC5413"></path>
                <path d="M14.1850493,21.6710148 C14.8357656,21.6708845 15.486547,21.6697778 16.1372633,21.6712752 C16.48199,21.6720564 16.6562088,21.8100122 16.6591081,22.0781112 C16.662003,22.3464056 16.4797764,22.5024603 16.148331,22.5028509 C14.8224192,22.5046738 13.4965725,22.50539 12.1706607,22.5023952 C11.7940981,22.5015488 11.5737856,22.2224472 11.7035382,21.9234888 C11.7853091,21.7350773 11.9381086,21.6695174 12.1351789,21.6702277 C12.8185125,21.6727075 13.5017809,21.671145 14.1850493,21.6710148" id="Fill-6" fill="#FC5413"></path>
                <path d="M14.1727316,19.1681756 C14.8070416,19.1681756 15.4414168,19.1675896 16.0757268,19.1688917 C16.1649196,19.169087 16.2564561,19.1673943 16.342654,19.1860141 C16.5300889,19.226574 16.6382921,19.3495558 16.6563911,19.541483 C16.6754666,19.7438919 16.5865994,19.8917435 16.3990342,19.9646601 C16.3184352,19.9959753 16.223904,20.0015091 16.1356227,20.0017044 C14.8263125,20.0038529 13.5169371,20.0032677 12.2076269,20.0029414 C12.1589289,20.0029414 12.1096451,20.0034622 12.0615331,19.9970169 C11.8212987,19.9649857 11.6671319,19.7981887 11.6703872,19.5768996 C11.6736424,19.3546339 11.8312596,19.190962 12.0747492,19.1739047 C12.2366633,19.1626417 12.3998795,19.1685011 12.5625098,19.1683709 C13.0992287,19.16785 13.6360127,19.1681756 14.1727316,19.1681756" id="Fill-8" fill="#FC5413"></path>
                <path d="M14.160212,17.4963132 C13.5014228,17.4965736 12.8426336,17.4983314 12.1838443,17.4957923 C11.8491437,17.4945553 11.6665265,17.341886 11.6701723,17.0771724 C11.6738181,16.8174067 11.8629458,16.6639562 12.195498,16.6634353 C13.5049384,16.6616124 14.8143789,16.6626541 16.1238193,16.6626541 C16.1563063,16.6626541 16.1889886,16.6616775 16.2213454,16.6640864 C16.4974522,16.684464 16.6617101,16.8441645 16.6588823,17.0885656 C16.6559809,17.3341386 16.4921788,17.4919512 16.2097568,17.4942298 C15.5266186,17.4998288 14.8434153,17.4960527 14.160212,17.4963132" id="Fill-10" fill="#FC5413"></path>
                <path d="M9.18134354,14.4138514 C9.48720299,14.1021326 9.7845989,13.7911299 10.0912396,13.489372 C10.2844037,13.2992678 10.5032189,13.288786 10.6811486,13.4416506 C10.8598596,13.5951012 10.8908492,13.8465336 10.7169559,14.0282393 C10.3006798,14.4630051 9.87431247,14.8886562 9.43980715,15.3052579 C9.2648071,15.4730965 9.05452059,15.4544116 8.86968981,15.2868985 C8.74325749,15.17225 8.62463766,15.0486823 8.50595274,14.9258307 C8.30575737,14.718539 8.28954643,14.4745285 8.46064022,14.2995936 C8.63127829,14.1252446 8.8508747,14.1303878 9.06942945,14.3143071 C9.09944247,14.3395675 9.12815342,14.3664556 9.18134354,14.4138514" id="Fill-12" fill="#FC5413"></path>
                <path d="M9.17700109,21.9082609 C9.47654544,21.6063077 9.76052989,21.3173753 10.0475091,21.0315029 C10.2753087,20.8045497 10.5269363,20.782219 10.7077307,20.967831 C10.888525,21.1535081 10.8683427,21.3835212 10.6442541,21.6100838 C10.2728347,21.9854745 9.90011326,22.3596933 9.52446212,22.7307872 C9.27270424,22.9794852 9.06222241,22.9770112 8.80890203,22.7302663 C8.7041494,22.6282481 8.59959208,22.5258392 8.49900612,22.4197845 C8.31026909,22.2209563 8.29203992,21.9835213 8.44835506,21.8104744 C8.60655823,21.6354093 8.84438381,21.6322192 9.05714429,21.8031177 C9.08858961,21.8283781 9.11795159,21.8563078 9.17700109,21.9082609" id="Fill-14" fill="#FC5413"></path>
                <path d="M9.18474849,16.9185526 C9.47895429,16.6160785 9.7592278,16.3227842 10.0452956,16.0352841 C10.2812983,15.7981096 10.5207514,15.7760393 10.7062333,15.9641904 C10.8922359,16.1529274 10.8672359,16.3887347 10.6309728,16.6267556 C10.2700352,16.9903625 9.90831638,17.3532532 9.54412358,17.7134747 C9.26567299,17.9888654 9.07172762,17.9872378 8.79503484,17.7143861 C8.69666242,17.6173158 8.59770406,17.5206361 8.50219622,17.4207663 C8.30961805,17.219399 8.29034721,16.9891255 8.44842017,16.8134744 C8.61502177,16.6283181 8.85167548,16.6300759 9.07543856,16.8185526 C9.10017815,16.8393859 9.12329014,16.8621724 9.18474849,16.9185526" id="Fill-16" fill="#FC5413"></path>
                <path d="M9.18453364,19.415897 C9.47886966,19.1143995 9.75953379,18.822277 10.0455365,18.535428 C10.2736615,18.3065868 10.5288699,18.2828238 10.7065392,18.4649853 C10.8920862,18.6552197 10.8668909,18.8879021 10.630172,19.1263136 C10.2638308,19.4953892 9.89722914,19.8643346 9.52704675,20.2296342 C9.26982012,20.4835405 9.06942945,20.4817827 8.81278875,20.232043 C8.70797102,20.1300899 8.6034137,20.0276159 8.50237201,19.9219518 C8.3109006,19.7216262 8.2907183,19.4879673 8.4462522,19.3134881 C8.60718974,19.1330193 8.85263251,19.1343865 9.07431226,19.3173944 C9.09924716,19.3379673 9.12261956,19.3604282 9.18453364,19.415897" id="Fill-18" fill="#FC5413"></path>
            </g>
        </g>
    </g>
</svg>