<?xml version="1.0" encoding="UTF-8"?>
<svg width="36px" height="36px" viewBox="0 0 36 36" version="1.1" xmlns="http://www.w3.org/2000/svg" xmlns:xlink="http://www.w3.org/1999/xlink">
    <title>Group 9</title>
    <g id="Page-1" stroke="none" stroke-width="1" fill="none" fill-rule="evenodd">
        <g id="Mobile-1" transform="translate(-262.000000, -4748.000000)" fill="#FC5413">
            <g id="Group-10" transform="translate(73.000000, 4637.000000)">
                <g id="Group-9" transform="translate(189.000000, 111.000000)">
                    <path d="M36,9.00765952 L33.7604198,9.00765952 L33.7604198,3.94815615 C30.2915752,7.41700167 26.8370806,10.8715851 23.4026585,14.3060081 C22.8172106,13.7209122 22.2980548,13.2020204 21.7450927,12.6494103 C25.1736163,9.22097389 28.6290793,5.76551004 32.1303216,2.26435483 L27.0218708,2.26435483 L27.0218708,0.0102479138 L27.3838801,0.0102479138 C29.7611506,0.0102479138 32.1386852,0.0264467762 34.5156916,0.000211662104 C35.2124186,-0.00753561991 35.7193372,0.19591857 36,0.853733243 L36,9.00765952 Z" id="Fill-1"></path>
                    <path d="M0.853733285,36 C0.195654666,35.7193371 -0.0075353614,35.2121542 0.000211918666,34.515339 C0.0264470262,32.1494248 0.0102481678,29.7830703 0.0102481678,27.4168919 C0.0102481678,27.2906464 0.0102481678,27.1643129 0.0102481678,27.0209882 L2.23952801,27.0209882 L2.23952801,32.0596267 C5.72105002,28.5899008 9.18637318,25.1364618 12.6172738,21.7171813 C13.2050986,22.2898639 13.7317376,22.8029453 14.2748395,23.3322255 C10.8264195,26.7803823 7.37350964,30.2329409 3.87543662,33.7307507 L9.00765751,33.7307507 L9.00765751,36 L0.853733285,36 Z" id="Fill-3"></path>
                    <path d="M27.0025554,36 L27.0025554,33.7620039 L32.0510529,33.7620039 C28.5892512,30.3002894 25.1363413,26.8473786 21.7072895,23.418326 C22.2968751,22.8309411 22.8154147,22.3144263 23.3424938,21.7893719 C26.7551707,25.2022257 30.2101055,28.6572494 33.7333571,32.180678 L33.7333571,27.0025884 L35.9999648,27.0025884 L35.9999648,35.1565147 C35.8315495,35.5503935 35.5503584,35.8315847 35.1564797,36 L27.0025554,36 Z" id="Fill-5"></path>
                    <path d="M8.99082479,0.0102126989 L8.99082479,2.25894934 L3.90684832,2.25894934 C7.39567743,5.74769129 10.8513165,9.20324318 14.2908447,12.6427723 C13.7236206,13.2078837 13.202704,13.7267755 12.6686699,14.2587849 C9.23336748,10.8232175 5.7809858,7.3705708 2.28185633,3.8710883 L2.28185633,8.98077293 L0.0262533442,8.98077293 C0.021059145,8.87319136 0.0109348586,8.76041558 0.0109348586,8.64755177 C0.0100089709,6.2115598 0.00961429947,3.77547979 0.0105827095,1.33948783 C0.0109348586,0.43305583 0.435362554,0.01082896 1.34593207,0.0105648481 C3.77039055,0.00959643781 6.19484902,0.0102126989 8.61930749,0.0102126989 C8.73454828,0.0102126989 8.84978908,0.0102126989 8.99082479,0.0102126989" id="Fill-7"></path>
                </g>
            </g>
        </g>
    </g>
</svg>